<svg viewBox="-16 -32 880 192" width="880" height="192" xmlns="http://www.w3.org/2000/svg"><desc>Generated with https://github.com/Platane/snk</desc><style>:root{--cb:#1b1f230a;--cs:blue;--ce:#161b22;--c0:#161b22;--c1:#01311f;--c2:#034525;--c3:#0f6d31;--c4:#00c647}.c{shape-rendering:geometricPrecision;fill:var(--ce);stroke-width:1px;stroke:var(--cb);animation:none 31500ms linear infinite;width:12px;height:12px}@keyframes c0{97.13%{fill:var(--c4)}97.15%,100%{fill:var(--ce)}}.c.c0{fill:var(--c4);animation-name:c0}@keyframes c1{3.48%{fill:var(--c1)}3.5%,100%{fill:var(--ce)}}.c.c1{fill:var(--c1);animation-name:c1}@keyframes c2{96.5%{fill:var(--c4)}96.52%,100%{fill:var(--ce)}}.c.c2{fill:var(--c4);animation-name:c2}@keyframes c3{53.64%{fill:var(--c1)}53.66%,100%{fill:var(--ce)}}.c.c3{fill:var(--c1);animation-name:c3}@keyframes c4{95.86%{fill:var(--c4)}95.88%,100%{fill:var(--ce)}}.c.c4{fill:var(--c4);animation-name:c4}@keyframes c5{2.85%{fill:var(--c1)}2.87%,100%{fill:var(--ce)}}.c.c5{fill:var(--c1);animation-name:c5}@keyframes c6{53.96%{fill:var(--c3)}53.98%,100%{fill:var(--ce)}}.c.c6{fill:var(--c3);animation-name:c6}@keyframes c7{95.55%{fill:var(--c4)}95.57%,100%{fill:var(--ce)}}.c.c7{fill:var(--c4);animation-name:c7}@keyframes c8{0.94%{fill:var(--c1)}0.96%,100%{fill:var(--ce)}}.c.c8{fill:var(--c1);animation-name:c8}@keyframes c9{97.77%{fill:var(--c4)}97.79%,100%{fill:var(--ce)}}.c.c9{fill:var(--c4);animation-name:c9}@keyframes ca{54.91%{fill:var(--c3)}54.93%,100%{fill:var(--ce)}}.c.ca{fill:var(--c3);animation-name:ca}@keyframes cb{2.53%{fill:var(--c1)}2.55%,100%{fill:var(--ce)}}.c.cb{fill:var(--c1);animation-name:cb}@keyframes cc{6.66%{fill:var(--c1)}6.68%,100%{fill:var(--ce)}}.c.cc{fill:var(--c1);animation-name:cc}@keyframes cd{6.34%{fill:var(--c1)}6.36%,100%{fill:var(--ce)}}.c.cd{fill:var(--c1);animation-name:cd}@keyframes ce{51.42%{fill:var(--c2)}51.44%,100%{fill:var(--ce)}}.c.ce{fill:var(--c2);animation-name:ce}@keyframes cf{46.97%{fill:var(--c2)}46.99%,100%{fill:var(--ce)}}.c.cf{fill:var(--c2);animation-name:cf}@keyframes cg{46.66%{fill:var(--c2)}46.68%,100%{fill:var(--ce)}}.c.cg{fill:var(--c2);animation-name:cg}@keyframes ch{89.51%{fill:var(--c4)}89.53%,100%{fill:var(--ce)}}.c.ch{fill:var(--c4);animation-name:ch}@keyframes ci{44.43%{fill:var(--c2)}44.45%,100%{fill:var(--ce)}}.c.ci{fill:var(--c2);animation-name:ci}@keyframes cj{64.75%{fill:var(--c3)}64.77%,100%{fill:var(--ce)}}.c.cj{fill:var(--c3);animation-name:cj}@keyframes ck{32.05%{fill:var(--c2)}32.07%,100%{fill:var(--ce)}}.c.ck{fill:var(--c2);animation-name:ck}@keyframes cl{84.43%{fill:var(--c4)}84.45%,100%{fill:var(--ce)}}.c.cl{fill:var(--c4);animation-name:cl}@keyframes cm{84.12%{fill:var(--c4)}84.14%,100%{fill:var(--ce)}}.c.cm{fill:var(--c4);animation-name:cm}@keyframes cn{33.64%{fill:var(--c2)}33.66%,100%{fill:var(--ce)}}.c.cn{fill:var(--c2);animation-name:cn}@keyframes co{66.97%{fill:var(--c3)}66.99%,100%{fill:var(--ce)}}.c.co{fill:var(--c3);animation-name:co}@keyframes cp{30.78%{fill:var(--c2)}30.8%,100%{fill:var(--ce)}}.c.cp{fill:var(--c2);animation-name:cp}@keyframes cq{30.47%{fill:var(--c2)}30.49%,100%{fill:var(--ce)}}.c.cq{fill:var(--c2);animation-name:cq}@keyframes cr{27.61%{fill:var(--c1)}27.63%,100%{fill:var(--ce)}}.c.cr{fill:var(--c1);animation-name:cr}@keyframes cs{27.93%{fill:var(--c1)}27.95%,100%{fill:var(--ce)}}.c.cs{fill:var(--c1);animation-name:cs}@keyframes ct{28.24%{fill:var(--c1)}28.26%,100%{fill:var(--ce)}}.c.ct{fill:var(--c1);animation-name:ct}@keyframes cu{85.7%{fill:var(--c4)}85.72%,100%{fill:var(--ce)}}.c.cu{fill:var(--c4);animation-name:cu}@keyframes cv{67.61%{fill:var(--c3)}67.63%,100%{fill:var(--ce)}}.c.cv{fill:var(--c3);animation-name:cv}@keyframes cw{19.99%{fill:var(--c1)}20.01%,100%{fill:var(--ce)}}.c.cw{fill:var(--c1);animation-name:cw}@keyframes cx{19.67%{fill:var(--c1)}19.69%,100%{fill:var(--ce)}}.c.cx{fill:var(--c1);animation-name:cx}@keyframes cy{83.48%{fill:var(--c4)}83.5%,100%{fill:var(--ce)}}.c.cy{fill:var(--c4);animation-name:cy}@keyframes cz{28.56%{fill:var(--c2)}28.58%,100%{fill:var(--ce)}}.c.cz{fill:var(--c2);animation-name:cz}@keyframes c10{18.09%{fill:var(--c1)}18.11%,100%{fill:var(--ce)}}.c.c10{fill:var(--c1);animation-name:c10}@keyframes c11{22.21%{fill:var(--c1)}22.23%,100%{fill:var(--ce)}}.c.c11{fill:var(--c1);animation-name:c11}@keyframes c12{80.94%{fill:var(--c4)}80.96%,100%{fill:var(--ce)}}.c.c12{fill:var(--c4);animation-name:c12}@keyframes c13{37.45%{fill:var(--c2)}37.47%,100%{fill:var(--ce)}}.c.c13{fill:var(--c2);animation-name:c13}@keyframes c14{22.85%{fill:var(--c1)}22.87%,100%{fill:var(--ce)}}.c.c14{fill:var(--c1);animation-name:c14}@keyframes c15{23.16%{fill:var(--c1)}23.18%,100%{fill:var(--ce)}}.c.c15{fill:var(--c1);animation-name:c15}@keyframes c16{23.48%{fill:var(--c1)}23.5%,100%{fill:var(--ce)}}.c.c16{fill:var(--c1);animation-name:c16}@keyframes c17{23.8%{fill:var(--c1)}23.82%,100%{fill:var(--ce)}}.c.c17{fill:var(--c1);animation-name:c17}@keyframes c18{77.13%{fill:var(--c4)}77.15%,100%{fill:var(--ce)}}.c.c18{fill:var(--c4);animation-name:c18}@keyframes c19{75.86%{fill:var(--c3)}75.88%,100%{fill:var(--ce)}}.c.c19{fill:var(--c3);animation-name:c19}.u{transform-origin:0 0;transform:scale(0,1);animation:none linear 31500ms infinite}@keyframes u0{0.94%{transform:scale(0.000,1)}0.96%,2.53%{transform:scale(0.059,1)}2.55%,2.85%{transform:scale(0.118,1)}2.87%,3.48%{transform:scale(0.176,1)}3.5%,6.34%{transform:scale(0.235,1)}6.36%,6.66%{transform:scale(0.294,1)}6.68%,18.09%{transform:scale(0.353,1)}18.11%,19.67%{transform:scale(0.412,1)}19.69%,19.99%{transform:scale(0.471,1)}20.01%,22.21%{transform:scale(0.529,1)}22.23%,22.85%{transform:scale(0.588,1)}22.87%,23.16%{transform:scale(0.647,1)}23.18%,23.48%{transform:scale(0.706,1)}23.5%,23.8%{transform:scale(0.765,1)}23.82%,27.61%{transform:scale(0.824,1)}27.63%,27.93%{transform:scale(0.882,1)}27.95%,28.24%{transform:scale(0.941,1)}28.26%,100%{transform:scale(1.000,1)}}.u.u0{fill:var(--c1);animation-name:u0;transform-origin:0.0px 0}@keyframes u1{28.56%{transform:scale(0.000,1)}28.58%,30.47%{transform:scale(0.100,1)}30.49%,30.78%{transform:scale(0.200,1)}30.8%,32.05%{transform:scale(0.300,1)}32.07%,33.64%{transform:scale(0.400,1)}33.66%,37.45%{transform:scale(0.500,1)}37.47%,44.43%{transform:scale(0.600,1)}44.45%,46.66%{transform:scale(0.700,1)}46.68%,46.97%{transform:scale(0.800,1)}46.99%,51.42%{transform:scale(0.900,1)}51.44%,100%{transform:scale(1.000,1)}}.u.u1{fill:var(--c2);animation-name:u1;transform-origin:313.4px 0}@keyframes u2{53.64%{transform:scale(0.000,1)}53.66%,100%{transform:scale(1.000,1)}}.u.u2{fill:var(--c1);animation-name:u2;transform-origin:497.7px 0}@keyframes u3{53.96%{transform:scale(0.000,1)}53.98%,54.91%{transform:scale(0.167,1)}54.93%,64.75%{transform:scale(0.333,1)}64.77%,66.97%{transform:scale(0.500,1)}66.99%,67.61%{transform:scale(0.667,1)}67.63%,75.86%{transform:scale(0.833,1)}75.88%,100%{transform:scale(1.000,1)}}.u.u3{fill:var(--c3);animation-name:u3;transform-origin:516.2px 0}@keyframes u4{77.13%{transform:scale(0.000,1)}77.15%,80.94%{transform:scale(0.083,1)}80.96%,83.48%{transform:scale(0.167,1)}83.5%,84.12%{transform:scale(0.250,1)}84.14%,84.43%{transform:scale(0.333,1)}84.45%,85.7%{transform:scale(0.417,1)}85.72%,89.51%{transform:scale(0.500,1)}89.53%,95.55%{transform:scale(0.583,1)}95.57%,95.86%{transform:scale(0.667,1)}95.88%,96.5%{transform:scale(0.750,1)}96.52%,97.13%{transform:scale(0.833,1)}97.15%,97.77%{transform:scale(0.917,1)}97.79%,100%{transform:scale(1.000,1)}}.u.u4{fill:var(--c4);animation-name:u4;transform-origin:626.8px 0}.s{shape-rendering:geometricPrecision;fill:var(--cs);animation:none linear 31500ms infinite}@keyframes s0{0%,99.68%{transform:translate(0px,-16px)}0.32%{transform:translate(0px,0px)}1.27%,98.41%{transform:translate(48px,0px)}2.22%,50.48%{transform:translate(48px,48px)}2.86%{transform:translate(16px,48px)}3.17%{transform:translate(16px,32px)}3.81%{transform:translate(-16px,32px)}5.08%,52.7%{transform:translate(-16px,96px)}6.03%{transform:translate(32px,96px)}6.67%,54.29%{transform:translate(32px,64px)}10.16%{transform:translate(208px,64px)}10.48%{transform:translate(208px,80px)}12.38%{transform:translate(304px,80px)}12.7%{transform:translate(304px,96px)}16.51%,67.3%{transform:translate(496px,96px)}16.83%{transform:translate(496px,112px)}17.46%{transform:translate(528px,112px)}18.1%{transform:translate(528px,80px)}18.41%{transform:translate(544px,80px)}19.37%,26.98%{transform:translate(544px,32px)}19.68%{transform:translate(528px,32px)}20%,31.43%{transform:translate(528px,16px)}22.86%{transform:translate(672px,16px)}23.81%{transform:translate(672px,64px)}24.13%{transform:translate(656px,64px)}24.44%{transform:translate(656px,48px)}26.67%{transform:translate(544px,48px)}27.62%,84.76%{transform:translate(512px,32px)}28.25%,66.35%{transform:translate(512px,64px)}28.89%{transform:translate(544px,64px)}29.84%{transform:translate(544px,16px)}30.48%{transform:translate(512px,16px)}30.79%,65.08%{transform:translate(512px,0px)}31.11%{transform:translate(528px,0px)}32.38%,64.13%{transform:translate(480px,16px)}33.33%{transform:translate(480px,64px)}36.19%,38.73%,81.27%{transform:translate(624px,64px)}36.51%,38.41%{transform:translate(624px,80px)}37.14%{transform:translate(656px,80px)}37.46%{transform:translate(656px,96px)}37.78%{transform:translate(640px,96px)}38.1%{transform:translate(640px,80px)}46.67%{transform:translate(224px,64px)}46.98%{transform:translate(224px,48px)}51.43%{transform:translate(48px,96px)}53.33%{transform:translate(-16px,64px)}54.92%{transform:translate(32px,32px)}63.81%{transform:translate(480px,32px)}64.44%{transform:translate(496px,16px)}64.76%{transform:translate(496px,0px)}66.67%{transform:translate(496px,64px)}73.97%{transform:translate(832px,96px)}75.87%{transform:translate(832px,0px)}79.68%{transform:translate(640px,0px)}80.95%{transform:translate(640px,64px)}81.59%{transform:translate(624px,48px)}84.13%{transform:translate(496px,48px)}84.44%{transform:translate(496px,32px)}85.71%{transform:translate(512px,80px)}95.87%{transform:translate(0px,80px)}97.14%{transform:translate(0px,16px)}97.78%{transform:translate(32px,16px)}98.1%{transform:translate(32px,0px)}98.73%{transform:translate(48px,-16px)}}.s.s0{transform:translate(0px,-16px);animation-name:s0}@keyframes s1{0%,99.68%{transform:translate(16px,-16px)}0.32%{transform:translate(0px,-16px)}0.63%{transform:translate(0px,0px)}1.59%,98.73%{transform:translate(48px,0px)}2.54%,50.79%{transform:translate(48px,48px)}3.17%{transform:translate(16px,48px)}3.49%{transform:translate(16px,32px)}4.13%{transform:translate(-16px,32px)}5.4%,53.02%{transform:translate(-16px,96px)}6.35%{transform:translate(32px,96px)}6.98%,54.6%{transform:translate(32px,64px)}10.48%{transform:translate(208px,64px)}10.79%{transform:translate(208px,80px)}12.7%{transform:translate(304px,80px)}13.02%{transform:translate(304px,96px)}16.83%,67.62%{transform:translate(496px,96px)}17.14%{transform:translate(496px,112px)}17.78%{transform:translate(528px,112px)}18.41%{transform:translate(528px,80px)}18.73%{transform:translate(544px,80px)}19.68%,27.3%{transform:translate(544px,32px)}20%{transform:translate(528px,32px)}20.32%,31.75%{transform:translate(528px,16px)}23.17%{transform:translate(672px,16px)}24.13%{transform:translate(672px,64px)}24.44%{transform:translate(656px,64px)}24.76%{transform:translate(656px,48px)}26.98%{transform:translate(544px,48px)}27.94%,85.08%{transform:translate(512px,32px)}28.57%,66.67%{transform:translate(512px,64px)}29.21%{transform:translate(544px,64px)}30.16%{transform:translate(544px,16px)}30.79%{transform:translate(512px,16px)}31.11%,65.4%{transform:translate(512px,0px)}31.43%{transform:translate(528px,0px)}32.7%,64.44%{transform:translate(480px,16px)}33.65%{transform:translate(480px,64px)}36.51%,39.05%,81.59%{transform:translate(624px,64px)}36.83%,38.73%{transform:translate(624px,80px)}37.46%{transform:translate(656px,80px)}37.78%{transform:translate(656px,96px)}38.1%{transform:translate(640px,96px)}38.41%{transform:translate(640px,80px)}46.98%{transform:translate(224px,64px)}47.3%{transform:translate(224px,48px)}51.75%{transform:translate(48px,96px)}53.65%{transform:translate(-16px,64px)}55.24%{transform:translate(32px,32px)}64.13%{transform:translate(480px,32px)}64.76%{transform:translate(496px,16px)}65.08%{transform:translate(496px,0px)}66.98%{transform:translate(496px,64px)}74.29%{transform:translate(832px,96px)}76.19%{transform:translate(832px,0px)}80%{transform:translate(640px,0px)}81.27%{transform:translate(640px,64px)}81.9%{transform:translate(624px,48px)}84.44%{transform:translate(496px,48px)}84.76%{transform:translate(496px,32px)}86.03%{transform:translate(512px,80px)}96.19%{transform:translate(0px,80px)}97.46%{transform:translate(0px,16px)}98.1%{transform:translate(32px,16px)}98.41%{transform:translate(32px,0px)}99.05%{transform:translate(48px,-16px)}}.s.s1{transform:translate(16px,-16px);animation-name:s1}@keyframes s2{0%,99.68%{transform:translate(32px,-16px)}0.63%{transform:translate(0px,-16px)}0.95%{transform:translate(0px,0px)}1.9%,99.05%{transform:translate(48px,0px)}2.86%,51.11%{transform:translate(48px,48px)}3.49%{transform:translate(16px,48px)}3.81%{transform:translate(16px,32px)}4.44%{transform:translate(-16px,32px)}5.71%,53.33%{transform:translate(-16px,96px)}6.67%{transform:translate(32px,96px)}7.3%,54.92%{transform:translate(32px,64px)}10.79%{transform:translate(208px,64px)}11.11%{transform:translate(208px,80px)}13.02%{transform:translate(304px,80px)}13.33%{transform:translate(304px,96px)}17.14%,67.94%{transform:translate(496px,96px)}17.46%{transform:translate(496px,112px)}18.1%{transform:translate(528px,112px)}18.73%{transform:translate(528px,80px)}19.05%{transform:translate(544px,80px)}20%,27.62%{transform:translate(544px,32px)}20.32%{transform:translate(528px,32px)}20.63%,32.06%{transform:translate(528px,16px)}23.49%{transform:translate(672px,16px)}24.44%{transform:translate(672px,64px)}24.76%{transform:translate(656px,64px)}25.08%{transform:translate(656px,48px)}27.3%{transform:translate(544px,48px)}28.25%,85.4%{transform:translate(512px,32px)}28.89%,66.98%{transform:translate(512px,64px)}29.52%{transform:translate(544px,64px)}30.48%{transform:translate(544px,16px)}31.11%{transform:translate(512px,16px)}31.43%,65.71%{transform:translate(512px,0px)}31.75%{transform:translate(528px,0px)}33.02%,64.76%{transform:translate(480px,16px)}33.97%{transform:translate(480px,64px)}36.83%,39.37%,81.9%{transform:translate(624px,64px)}37.14%,39.05%{transform:translate(624px,80px)}37.78%{transform:translate(656px,80px)}38.1%{transform:translate(656px,96px)}38.41%{transform:translate(640px,96px)}38.73%{transform:translate(640px,80px)}47.3%{transform:translate(224px,64px)}47.62%{transform:translate(224px,48px)}52.06%{transform:translate(48px,96px)}53.97%{transform:translate(-16px,64px)}55.56%{transform:translate(32px,32px)}64.44%{transform:translate(480px,32px)}65.08%{transform:translate(496px,16px)}65.4%{transform:translate(496px,0px)}67.3%{transform:translate(496px,64px)}74.6%{transform:translate(832px,96px)}76.51%{transform:translate(832px,0px)}80.32%{transform:translate(640px,0px)}81.59%{transform:translate(640px,64px)}82.22%{transform:translate(624px,48px)}84.76%{transform:translate(496px,48px)}85.08%{transform:translate(496px,32px)}86.35%{transform:translate(512px,80px)}96.51%{transform:translate(0px,80px)}97.78%{transform:translate(0px,16px)}98.41%{transform:translate(32px,16px)}98.73%{transform:translate(32px,0px)}99.37%{transform:translate(48px,-16px)}}.s.s2{transform:translate(32px,-16px);animation-name:s2}@keyframes s3{0%,99.68%{transform:translate(48px,-16px)}0.95%{transform:translate(0px,-16px)}1.27%{transform:translate(0px,0px)}2.22%,99.37%{transform:translate(48px,0px)}3.17%,51.43%{transform:translate(48px,48px)}3.81%{transform:translate(16px,48px)}4.13%{transform:translate(16px,32px)}4.76%{transform:translate(-16px,32px)}6.03%,53.65%{transform:translate(-16px,96px)}6.98%{transform:translate(32px,96px)}7.62%,55.24%{transform:translate(32px,64px)}11.11%{transform:translate(208px,64px)}11.43%{transform:translate(208px,80px)}13.33%{transform:translate(304px,80px)}13.65%{transform:translate(304px,96px)}17.46%,68.25%{transform:translate(496px,96px)}17.78%{transform:translate(496px,112px)}18.41%{transform:translate(528px,112px)}19.05%{transform:translate(528px,80px)}19.37%{transform:translate(544px,80px)}20.32%,27.94%{transform:translate(544px,32px)}20.63%{transform:translate(528px,32px)}20.95%,32.38%{transform:translate(528px,16px)}23.81%{transform:translate(672px,16px)}24.76%{transform:translate(672px,64px)}25.08%{transform:translate(656px,64px)}25.4%{transform:translate(656px,48px)}27.62%{transform:translate(544px,48px)}28.57%,85.71%{transform:translate(512px,32px)}29.21%,67.3%{transform:translate(512px,64px)}29.84%{transform:translate(544px,64px)}30.79%{transform:translate(544px,16px)}31.43%{transform:translate(512px,16px)}31.75%,66.03%{transform:translate(512px,0px)}32.06%{transform:translate(528px,0px)}33.33%,65.08%{transform:translate(480px,16px)}34.29%{transform:translate(480px,64px)}37.14%,39.68%,82.22%{transform:translate(624px,64px)}37.46%,39.37%{transform:translate(624px,80px)}38.1%{transform:translate(656px,80px)}38.41%{transform:translate(656px,96px)}38.73%{transform:translate(640px,96px)}39.05%{transform:translate(640px,80px)}47.62%{transform:translate(224px,64px)}47.94%{transform:translate(224px,48px)}52.38%{transform:translate(48px,96px)}54.29%{transform:translate(-16px,64px)}55.87%{transform:translate(32px,32px)}64.76%{transform:translate(480px,32px)}65.4%{transform:translate(496px,16px)}65.71%{transform:translate(496px,0px)}67.62%{transform:translate(496px,64px)}74.92%{transform:translate(832px,96px)}76.83%{transform:translate(832px,0px)}80.63%{transform:translate(640px,0px)}81.9%{transform:translate(640px,64px)}82.54%{transform:translate(624px,48px)}85.08%{transform:translate(496px,48px)}85.4%{transform:translate(496px,32px)}86.67%{transform:translate(512px,80px)}96.83%{transform:translate(0px,80px)}98.1%{transform:translate(0px,16px)}98.73%{transform:translate(32px,16px)}99.05%{transform:translate(32px,0px)}}.s.s3{transform:translate(48px,-16px);animation-name:s3}</style><rect class="c" x="2" y="2" rx="2" ry="2"/><rect class="c c0" x="2" y="18" rx="2" ry="2"/><rect class="c c1" x="2" y="34" rx="2" ry="2"/><rect class="c c2" x="2" y="50" rx="2" ry="2"/><rect class="c c3" x="2" y="66" rx="2" ry="2"/><rect class="c c4" x="2" y="82" rx="2" ry="2"/><rect class="c" x="2" y="98" rx="2" ry="2"/><rect class="c" x="18" y="2" rx="2" ry="2"/><rect class="c" x="18" y="18" rx="2" ry="2"/><rect class="c" x="18" y="34" rx="2" ry="2"/><rect class="c c5" x="18" y="50" rx="2" ry="2"/><rect class="c c6" x="18" y="66" rx="2" ry="2"/><rect class="c c7" x="18" y="82" rx="2" ry="2"/><rect class="c" x="18" y="98" rx="2" ry="2"/><rect class="c c8" x="34" y="2" rx="2" ry="2"/><rect class="c c9" x="34" y="18" rx="2" ry="2"/><rect class="c ca" x="34" y="34" rx="2" ry="2"/><rect class="c cb" x="34" y="50" rx="2" ry="2"/><rect class="c cc" x="34" y="66" rx="2" ry="2"/><rect class="c cd" x="34" y="82" rx="2" ry="2"/><rect class="c" x="34" y="98" rx="2" ry="2"/><rect class="c" x="50" y="2" rx="2" ry="2"/><rect class="c" x="50" y="18" rx="2" ry="2"/><rect class="c" x="50" y="34" rx="2" ry="2"/><rect class="c" x="50" y="50" rx="2" ry="2"/><rect class="c" x="50" y="66" rx="2" ry="2"/><rect class="c" x="50" y="82" rx="2" ry="2"/><rect class="c ce" x="50" y="98" rx="2" ry="2"/><rect class="c" x="66" y="2" rx="2" ry="2"/><rect class="c" x="66" y="18" rx="2" ry="2"/><rect class="c" x="66" y="34" rx="2" ry="2"/><rect class="c" x="66" y="50" rx="2" ry="2"/><rect class="c" x="66" y="66" rx="2" ry="2"/><rect class="c" x="66" y="82" rx="2" ry="2"/><rect class="c" x="66" y="98" rx="2" ry="2"/><rect class="c" x="82" y="2" rx="2" ry="2"/><rect class="c" x="82" y="18" rx="2" ry="2"/><rect class="c" x="82" y="34" rx="2" ry="2"/><rect class="c" x="82" y="50" rx="2" ry="2"/><rect class="c" x="82" y="66" rx="2" ry="2"/><rect class="c" x="82" y="82" rx="2" ry="2"/><rect class="c" x="82" y="98" rx="2" ry="2"/><rect class="c" x="98" y="2" rx="2" ry="2"/><rect class="c" x="98" y="18" rx="2" ry="2"/><rect class="c" x="98" y="34" rx="2" ry="2"/><rect class="c" x="98" y="50" rx="2" ry="2"/><rect class="c" x="98" y="66" rx="2" ry="2"/><rect class="c" x="98" y="82" rx="2" ry="2"/><rect class="c" x="98" y="98" rx="2" ry="2"/><rect class="c" x="114" y="2" rx="2" ry="2"/><rect class="c" x="114" y="18" rx="2" ry="2"/><rect class="c" x="114" y="34" rx="2" ry="2"/><rect class="c" x="114" y="50" rx="2" ry="2"/><rect class="c" x="114" y="66" rx="2" ry="2"/><rect class="c" x="114" y="82" rx="2" ry="2"/><rect class="c" x="114" y="98" rx="2" ry="2"/><rect class="c" x="130" y="2" rx="2" ry="2"/><rect class="c" x="130" y="18" rx="2" ry="2"/><rect class="c" x="130" y="34" rx="2" ry="2"/><rect class="c" x="130" y="50" rx="2" ry="2"/><rect class="c" x="130" y="66" rx="2" ry="2"/><rect class="c" x="130" y="82" rx="2" ry="2"/><rect class="c" x="130" y="98" rx="2" ry="2"/><rect class="c" x="146" y="2" rx="2" ry="2"/><rect class="c" x="146" y="18" rx="2" ry="2"/><rect class="c" x="146" y="34" rx="2" ry="2"/><rect class="c" x="146" y="50" rx="2" ry="2"/><rect class="c" x="146" y="66" rx="2" ry="2"/><rect class="c" x="146" y="82" rx="2" ry="2"/><rect class="c" x="146" y="98" rx="2" ry="2"/><rect class="c" x="162" y="2" rx="2" ry="2"/><rect class="c" x="162" y="18" rx="2" ry="2"/><rect class="c" x="162" y="34" rx="2" ry="2"/><rect class="c" x="162" y="50" rx="2" ry="2"/><rect class="c" x="162" y="66" rx="2" ry="2"/><rect class="c" x="162" y="82" rx="2" ry="2"/><rect class="c" x="162" y="98" rx="2" ry="2"/><rect class="c" x="178" y="2" rx="2" ry="2"/><rect class="c" x="178" y="18" rx="2" ry="2"/><rect class="c" x="178" y="34" rx="2" ry="2"/><rect class="c" x="178" y="50" rx="2" ry="2"/><rect class="c" x="178" y="66" rx="2" ry="2"/><rect class="c" x="178" y="82" rx="2" ry="2"/><rect class="c" x="178" y="98" rx="2" ry="2"/><rect class="c" x="194" y="2" rx="2" ry="2"/><rect class="c" x="194" y="18" rx="2" ry="2"/><rect class="c" x="194" y="34" rx="2" ry="2"/><rect class="c" x="194" y="50" rx="2" ry="2"/><rect class="c" x="194" y="66" rx="2" ry="2"/><rect class="c" x="194" y="82" rx="2" ry="2"/><rect class="c" x="194" y="98" rx="2" ry="2"/><rect class="c" x="210" y="2" rx="2" ry="2"/><rect class="c" x="210" y="18" rx="2" ry="2"/><rect class="c" x="210" y="34" rx="2" ry="2"/><rect class="c" x="210" y="50" rx="2" ry="2"/><rect class="c" x="210" y="66" rx="2" ry="2"/><rect class="c" x="210" y="82" rx="2" ry="2"/><rect class="c" x="210" y="98" rx="2" ry="2"/><rect class="c" x="226" y="2" rx="2" ry="2"/><rect class="c" x="226" y="18" rx="2" ry="2"/><rect class="c" x="226" y="34" rx="2" ry="2"/><rect class="c cf" x="226" y="50" rx="2" ry="2"/><rect class="c cg" x="226" y="66" rx="2" ry="2"/><rect class="c" x="226" y="82" rx="2" ry="2"/><rect class="c" x="226" y="98" rx="2" ry="2"/><rect class="c" x="242" y="2" rx="2" ry="2"/><rect class="c" x="242" y="18" rx="2" ry="2"/><rect class="c" x="242" y="34" rx="2" ry="2"/><rect class="c" x="242" y="50" rx="2" ry="2"/><rect class="c" x="242" y="66" rx="2" ry="2"/><rect class="c" x="242" y="82" rx="2" ry="2"/><rect class="c" x="242" y="98" rx="2" ry="2"/><rect class="c" x="258" y="2" rx="2" ry="2"/><rect class="c" x="258" y="18" rx="2" ry="2"/><rect class="c" x="258" y="34" rx="2" ry="2"/><rect class="c" x="258" y="50" rx="2" ry="2"/><rect class="c" x="258" y="66" rx="2" ry="2"/><rect class="c" x="258" y="82" rx="2" ry="2"/><rect class="c" x="258" y="98" rx="2" ry="2"/><rect class="c" x="274" y="2" rx="2" ry="2"/><rect class="c" x="274" y="18" rx="2" ry="2"/><rect class="c" x="274" y="34" rx="2" ry="2"/><rect class="c" x="274" y="50" rx="2" ry="2"/><rect class="c" x="274" y="66" rx="2" ry="2"/><rect class="c" x="274" y="82" rx="2" ry="2"/><rect class="c" x="274" y="98" rx="2" ry="2"/><rect class="c" x="290" y="2" rx="2" ry="2"/><rect class="c" x="290" y="18" rx="2" ry="2"/><rect class="c" x="290" y="34" rx="2" ry="2"/><rect class="c" x="290" y="50" rx="2" ry="2"/><rect class="c" x="290" y="66" rx="2" ry="2"/><rect class="c" x="290" y="82" rx="2" ry="2"/><rect class="c" x="290" y="98" rx="2" ry="2"/><rect class="c" x="306" y="2" rx="2" ry="2"/><rect class="c" x="306" y="18" rx="2" ry="2"/><rect class="c" x="306" y="34" rx="2" ry="2"/><rect class="c" x="306" y="50" rx="2" ry="2"/><rect class="c" x="306" y="66" rx="2" ry="2"/><rect class="c" x="306" y="82" rx="2" ry="2"/><rect class="c" x="306" y="98" rx="2" ry="2"/><rect class="c" x="322" y="2" rx="2" ry="2"/><rect class="c" x="322" y="18" rx="2" ry="2"/><rect class="c" x="322" y="34" rx="2" ry="2"/><rect class="c" x="322" y="50" rx="2" ry="2"/><rect class="c" x="322" y="66" rx="2" ry="2"/><rect class="c ch" x="322" y="82" rx="2" ry="2"/><rect class="c" x="322" y="98" rx="2" ry="2"/><rect class="c" x="338" y="2" rx="2" ry="2"/><rect class="c" x="338" y="18" rx="2" ry="2"/><rect class="c" x="338" y="34" rx="2" ry="2"/><rect class="c" x="338" y="50" rx="2" ry="2"/><rect class="c ci" x="338" y="66" rx="2" ry="2"/><rect class="c" x="338" y="82" rx="2" ry="2"/><rect class="c" x="338" y="98" rx="2" ry="2"/><rect class="c" x="354" y="2" rx="2" ry="2"/><rect class="c" x="354" y="18" rx="2" ry="2"/><rect class="c" x="354" y="34" rx="2" ry="2"/><rect class="c" x="354" y="50" rx="2" ry="2"/><rect class="c" x="354" y="66" rx="2" ry="2"/><rect class="c" x="354" y="82" rx="2" ry="2"/><rect class="c" x="354" y="98" rx="2" ry="2"/><rect class="c" x="370" y="2" rx="2" ry="2"/><rect class="c" x="370" y="18" rx="2" ry="2"/><rect class="c" x="370" y="34" rx="2" ry="2"/><rect class="c" x="370" y="50" rx="2" ry="2"/><rect class="c" x="370" y="66" rx="2" ry="2"/><rect class="c" x="370" y="82" rx="2" ry="2"/><rect class="c" x="370" y="98" rx="2" ry="2"/><rect class="c" x="386" y="2" rx="2" ry="2"/><rect class="c" x="386" y="18" rx="2" ry="2"/><rect class="c" x="386" y="34" rx="2" ry="2"/><rect class="c" x="386" y="50" rx="2" ry="2"/><rect class="c" x="386" y="66" rx="2" ry="2"/><rect class="c" x="386" y="82" rx="2" ry="2"/><rect class="c" x="386" y="98" rx="2" ry="2"/><rect class="c" x="402" y="2" rx="2" ry="2"/><rect class="c" x="402" y="18" rx="2" ry="2"/><rect class="c" x="402" y="34" rx="2" ry="2"/><rect class="c" x="402" y="50" rx="2" ry="2"/><rect class="c" x="402" y="66" rx="2" ry="2"/><rect class="c" x="402" y="82" rx="2" ry="2"/><rect class="c" x="402" y="98" rx="2" ry="2"/><rect class="c" x="418" y="2" rx="2" ry="2"/><rect class="c" x="418" y="18" rx="2" ry="2"/><rect class="c" x="418" y="34" rx="2" ry="2"/><rect class="c" x="418" y="50" rx="2" ry="2"/><rect class="c" x="418" y="66" rx="2" ry="2"/><rect class="c" x="418" y="82" rx="2" ry="2"/><rect class="c" x="418" y="98" rx="2" ry="2"/><rect class="c" x="434" y="2" rx="2" ry="2"/><rect class="c" x="434" y="18" rx="2" ry="2"/><rect class="c" x="434" y="34" rx="2" ry="2"/><rect class="c" x="434" y="50" rx="2" ry="2"/><rect class="c" x="434" y="66" rx="2" ry="2"/><rect class="c" x="434" y="82" rx="2" ry="2"/><rect class="c" x="434" y="98" rx="2" ry="2"/><rect class="c" x="450" y="2" rx="2" ry="2"/><rect class="c" x="450" y="18" rx="2" ry="2"/><rect class="c" x="450" y="34" rx="2" ry="2"/><rect class="c" x="450" y="50" rx="2" ry="2"/><rect class="c" x="450" y="66" rx="2" ry="2"/><rect class="c" x="450" y="82" rx="2" ry="2"/><rect class="c" x="450" y="98" rx="2" ry="2"/><rect class="c" x="466" y="2" rx="2" ry="2"/><rect class="c" x="466" y="18" rx="2" ry="2"/><rect class="c" x="466" y="34" rx="2" ry="2"/><rect class="c" x="466" y="50" rx="2" ry="2"/><rect class="c" x="466" y="66" rx="2" ry="2"/><rect class="c" x="466" y="82" rx="2" ry="2"/><rect class="c" x="466" y="98" rx="2" ry="2"/><rect class="c" x="482" y="2" rx="2" ry="2"/><rect class="c" x="482" y="18" rx="2" ry="2"/><rect class="c" x="482" y="34" rx="2" ry="2"/><rect class="c" x="482" y="50" rx="2" ry="2"/><rect class="c" x="482" y="66" rx="2" ry="2"/><rect class="c" x="482" y="82" rx="2" ry="2"/><rect class="c" x="482" y="98" rx="2" ry="2"/><rect class="c cj" x="498" y="2" rx="2" ry="2"/><rect class="c ck" x="498" y="18" rx="2" ry="2"/><rect class="c cl" x="498" y="34" rx="2" ry="2"/><rect class="c cm" x="498" y="50" rx="2" ry="2"/><rect class="c cn" x="498" y="66" rx="2" ry="2"/><rect class="c co" x="498" y="82" rx="2" ry="2"/><rect class="c" x="498" y="98" rx="2" ry="2"/><rect class="c cp" x="514" y="2" rx="2" ry="2"/><rect class="c cq" x="514" y="18" rx="2" ry="2"/><rect class="c cr" x="514" y="34" rx="2" ry="2"/><rect class="c cs" x="514" y="50" rx="2" ry="2"/><rect class="c ct" x="514" y="66" rx="2" ry="2"/><rect class="c cu" x="514" y="82" rx="2" ry="2"/><rect class="c cv" x="514" y="98" rx="2" ry="2"/><rect class="c" x="530" y="2" rx="2" ry="2"/><rect class="c cw" x="530" y="18" rx="2" ry="2"/><rect class="c cx" x="530" y="34" rx="2" ry="2"/><rect class="c cy" x="530" y="50" rx="2" ry="2"/><rect class="c cz" x="530" y="66" rx="2" ry="2"/><rect class="c c10" x="530" y="82" rx="2" ry="2"/><rect class="c" x="530" y="98" rx="2" ry="2"/><rect class="c" x="546" y="2" rx="2" ry="2"/><rect class="c" x="546" y="18" rx="2" ry="2"/><rect class="c" x="546" y="34" rx="2" ry="2"/><rect class="c" x="546" y="50" rx="2" ry="2"/><rect class="c" x="546" y="66" rx="2" ry="2"/><rect class="c" x="546" y="82" rx="2" ry="2"/><rect class="c" x="546" y="98" rx="2" ry="2"/><rect class="c" x="562" y="2" rx="2" ry="2"/><rect class="c" x="562" y="18" rx="2" ry="2"/><rect class="c" x="562" y="34" rx="2" ry="2"/><rect class="c" x="562" y="50" rx="2" ry="2"/><rect class="c" x="562" y="66" rx="2" ry="2"/><rect class="c" x="562" y="82" rx="2" ry="2"/><rect class="c" x="562" y="98" rx="2" ry="2"/><rect class="c" x="578" y="2" rx="2" ry="2"/><rect class="c" x="578" y="18" rx="2" ry="2"/><rect class="c" x="578" y="34" rx="2" ry="2"/><rect class="c" x="578" y="50" rx="2" ry="2"/><rect class="c" x="578" y="66" rx="2" ry="2"/><rect class="c" x="578" y="82" rx="2" ry="2"/><rect class="c" x="578" y="98" rx="2" ry="2"/><rect class="c" x="594" y="2" rx="2" ry="2"/><rect class="c" x="594" y="18" rx="2" ry="2"/><rect class="c" x="594" y="34" rx="2" ry="2"/><rect class="c" x="594" y="50" rx="2" ry="2"/><rect class="c" x="594" y="66" rx="2" ry="2"/><rect class="c" x="594" y="82" rx="2" ry="2"/><rect class="c" x="594" y="98" rx="2" ry="2"/><rect class="c" x="610" y="2" rx="2" ry="2"/><rect class="c" x="610" y="18" rx="2" ry="2"/><rect class="c" x="610" y="34" rx="2" ry="2"/><rect class="c" x="610" y="50" rx="2" ry="2"/><rect class="c" x="610" y="66" rx="2" ry="2"/><rect class="c" x="610" y="82" rx="2" ry="2"/><rect class="c" x="610" y="98" rx="2" ry="2"/><rect class="c" x="626" y="2" rx="2" ry="2"/><rect class="c" x="626" y="18" rx="2" ry="2"/><rect class="c" x="626" y="34" rx="2" ry="2"/><rect class="c" x="626" y="50" rx="2" ry="2"/><rect class="c" x="626" y="66" rx="2" ry="2"/><rect class="c" x="626" y="82" rx="2" ry="2"/><rect class="c" x="626" y="98" rx="2" ry="2"/><rect class="c" x="642" y="2" rx="2" ry="2"/><rect class="c c11" x="642" y="18" rx="2" ry="2"/><rect class="c" x="642" y="34" rx="2" ry="2"/><rect class="c" x="642" y="50" rx="2" ry="2"/><rect class="c c12" x="642" y="66" rx="2" ry="2"/><rect class="c" x="642" y="82" rx="2" ry="2"/><rect class="c" x="642" y="98" rx="2" ry="2"/><rect class="c" x="658" y="2" rx="2" ry="2"/><rect class="c" x="658" y="18" rx="2" ry="2"/><rect class="c" x="658" y="34" rx="2" ry="2"/><rect class="c" x="658" y="50" rx="2" ry="2"/><rect class="c" x="658" y="66" rx="2" ry="2"/><rect class="c" x="658" y="82" rx="2" ry="2"/><rect class="c c13" x="658" y="98" rx="2" ry="2"/><rect class="c" x="674" y="2" rx="2" ry="2"/><rect class="c c14" x="674" y="18" rx="2" ry="2"/><rect class="c c15" x="674" y="34" rx="2" ry="2"/><rect class="c c16" x="674" y="50" rx="2" ry="2"/><rect class="c c17" x="674" y="66" rx="2" ry="2"/><rect class="c" x="674" y="82" rx="2" ry="2"/><rect class="c" x="674" y="98" rx="2" ry="2"/><rect class="c" x="690" y="2" rx="2" ry="2"/><rect class="c" x="690" y="18" rx="2" ry="2"/><rect class="c" x="690" y="34" rx="2" ry="2"/><rect class="c" x="690" y="50" rx="2" ry="2"/><rect class="c" x="690" y="66" rx="2" ry="2"/><rect class="c" x="690" y="82" rx="2" ry="2"/><rect class="c" x="690" y="98" rx="2" ry="2"/><rect class="c" x="706" y="2" rx="2" ry="2"/><rect class="c" x="706" y="18" rx="2" ry="2"/><rect class="c" x="706" y="34" rx="2" ry="2"/><rect class="c" x="706" y="50" rx="2" ry="2"/><rect class="c" x="706" y="66" rx="2" ry="2"/><rect class="c" x="706" y="82" rx="2" ry="2"/><rect class="c" x="706" y="98" rx="2" ry="2"/><rect class="c" x="722" y="2" rx="2" ry="2"/><rect class="c" x="722" y="18" rx="2" ry="2"/><rect class="c" x="722" y="34" rx="2" ry="2"/><rect class="c" x="722" y="50" rx="2" ry="2"/><rect class="c" x="722" y="66" rx="2" ry="2"/><rect class="c" x="722" y="82" rx="2" ry="2"/><rect class="c" x="722" y="98" rx="2" ry="2"/><rect class="c" x="738" y="2" rx="2" ry="2"/><rect class="c" x="738" y="18" rx="2" ry="2"/><rect class="c" x="738" y="34" rx="2" ry="2"/><rect class="c" x="738" y="50" rx="2" ry="2"/><rect class="c" x="738" y="66" rx="2" ry="2"/><rect class="c" x="738" y="82" rx="2" ry="2"/><rect class="c" x="738" y="98" rx="2" ry="2"/><rect class="c" x="754" y="2" rx="2" ry="2"/><rect class="c" x="754" y="18" rx="2" ry="2"/><rect class="c" x="754" y="34" rx="2" ry="2"/><rect class="c" x="754" y="50" rx="2" ry="2"/><rect class="c" x="754" y="66" rx="2" ry="2"/><rect class="c" x="754" y="82" rx="2" ry="2"/><rect class="c" x="754" y="98" rx="2" ry="2"/><rect class="c c18" x="770" y="2" rx="2" ry="2"/><rect class="c" x="770" y="18" rx="2" ry="2"/><rect class="c" x="770" y="34" rx="2" ry="2"/><rect class="c" x="770" y="50" rx="2" ry="2"/><rect class="c" x="770" y="66" rx="2" ry="2"/><rect class="c" x="770" y="82" rx="2" ry="2"/><rect class="c" x="770" y="98" rx="2" ry="2"/><rect class="c" x="786" y="2" rx="2" ry="2"/><rect class="c" x="786" y="18" rx="2" ry="2"/><rect class="c" x="786" y="34" rx="2" ry="2"/><rect class="c" x="786" y="50" rx="2" ry="2"/><rect class="c" x="786" y="66" rx="2" ry="2"/><rect class="c" x="786" y="82" rx="2" ry="2"/><rect class="c" x="786" y="98" rx="2" ry="2"/><rect class="c" x="802" y="2" rx="2" ry="2"/><rect class="c" x="802" y="18" rx="2" ry="2"/><rect class="c" x="802" y="34" rx="2" ry="2"/><rect class="c" x="802" y="50" rx="2" ry="2"/><rect class="c" x="802" y="66" rx="2" ry="2"/><rect class="c" x="802" y="82" rx="2" ry="2"/><rect class="c" x="802" y="98" rx="2" ry="2"/><rect class="c" x="818" y="2" rx="2" ry="2"/><rect class="c" x="818" y="18" rx="2" ry="2"/><rect class="c" x="818" y="34" rx="2" ry="2"/><rect class="c" x="818" y="50" rx="2" ry="2"/><rect class="c" x="818" y="66" rx="2" ry="2"/><rect class="c" x="818" y="82" rx="2" ry="2"/><rect class="c" x="818" y="98" rx="2" ry="2"/><rect class="c c19" x="834" y="2" rx="2" ry="2"/><rect class="c" x="834" y="18" rx="2" ry="2"/><rect class="c" x="834" y="34" rx="2" ry="2"/><rect class="c" x="834" y="50" rx="2" ry="2"/><rect class="u u0" height="12" width="314.0" x="0.0" y="144"/><rect class="u u1" height="12" width="184.9" x="313.4" y="144"/><rect class="u u2" height="12" width="19.0" x="497.7" y="144"/><rect class="u u3" height="12" width="111.2" x="516.2" y="144"/><rect class="u u4" height="12" width="221.8" x="626.8" y="144"/><rect class="s s0" x="0.8" y="0.8" width="14.4" height="14.4" rx="4.5" ry="4.5"/><rect class="s s1" x="1.8" y="1.8" width="12.3" height="12.3" rx="4.1" ry="4.1"/><rect class="s s2" x="2.6" y="2.6" width="10.8" height="10.8" rx="3.6" ry="3.6"/><rect class="s s3" x="3.0" y="3.0" width="9.9" height="9.9" rx="3.3" ry="3.3"/></svg>