<svg viewBox="-16 -32 880 192" width="880" height="192" xmlns="http://www.w3.org/2000/svg"><desc>Generated with https://github.com/Platane/snk</desc><style>:root{--cb:#1b1f230a;--cs:#7845ab;--ce:#ebedf0;--c0:#ebedf0;--c1:#9be9a8;--c2:#40c463;--c3:#30a14e;--c4:#216e39}.c{shape-rendering:geometricPrecision;fill:var(--ce);stroke-width:1px;stroke:var(--cb);animation:none 29100ms linear infinite;width:12px;height:12px}@keyframes c0{94.15%{fill:var(--c4)}94.17%,100%{fill:var(--ce)}}.c.c0{fill:var(--c4);animation-name:c0}@keyframes c1{4.46%{fill:var(--c1)}4.48%,100%{fill:var(--ce)}}.c.c1{fill:var(--c1);animation-name:c1}@keyframes c2{52.91%{fill:var(--c2)}52.93%,100%{fill:var(--ce)}}.c.c2{fill:var(--c2);animation-name:c2}@keyframes c3{5.83%{fill:var(--c1)}5.85%,100%{fill:var(--ce)}}.c.c3{fill:var(--c1);animation-name:c3}@keyframes c4{6.18%{fill:var(--c1)}6.2%,100%{fill:var(--ce)}}.c.c4{fill:var(--c1);animation-name:c4}@keyframes c5{93.8%{fill:var(--c4)}93.82%,100%{fill:var(--ce)}}.c.c5{fill:var(--c4);animation-name:c5}@keyframes c6{4.11%{fill:var(--c1)}4.13%,100%{fill:var(--ce)}}.c.c6{fill:var(--c1);animation-name:c6}@keyframes c7{95.18%{fill:var(--c4)}95.2%,100%{fill:var(--ce)}}.c.c7{fill:var(--c4);animation-name:c7}@keyframes c8{49.47%{fill:var(--c1)}49.49%,100%{fill:var(--ce)}}.c.c8{fill:var(--c1);animation-name:c8}@keyframes c9{95.87%{fill:var(--c4)}95.89%,100%{fill:var(--ce)}}.c.c9{fill:var(--c4);animation-name:c9}@keyframes ca{3.43%{fill:var(--c1)}3.45%,100%{fill:var(--ce)}}.c.ca{fill:var(--c1);animation-name:ca}@keyframes cb{49.82%{fill:var(--c2)}49.84%,100%{fill:var(--ce)}}.c.cb{fill:var(--c2);animation-name:cb}@keyframes cc{50.16%{fill:var(--c2)}50.18%,100%{fill:var(--ce)}}.c.cc{fill:var(--c2);animation-name:cc}@keyframes cd{1.36%{fill:var(--c1)}1.38%,100%{fill:var(--ce)}}.c.cd{fill:var(--c1);animation-name:cd}@keyframes ce{93.12%{fill:var(--c3)}93.14%,100%{fill:var(--ce)}}.c.ce{fill:var(--c3);animation-name:ce}@keyframes cf{51.54%{fill:var(--c2)}51.56%,100%{fill:var(--ce)}}.c.cf{fill:var(--c2);animation-name:cf}@keyframes cg{3.08%{fill:var(--c1)}3.1%,100%{fill:var(--ce)}}.c.cg{fill:var(--c1);animation-name:cg}@keyframes ch{8.92%{fill:var(--c1)}8.94%,100%{fill:var(--ce)}}.c.ch{fill:var(--c1);animation-name:ch}@keyframes ci{8.58%{fill:var(--c1)}8.6%,100%{fill:var(--ce)}}.c.ci{fill:var(--c1);animation-name:ci}@keyframes cj{7.89%{fill:var(--c1)}7.91%,100%{fill:var(--ce)}}.c.cj{fill:var(--c1);animation-name:cj}@keyframes ck{13.39%{fill:var(--c1)}13.41%,100%{fill:var(--ce)}}.c.ck{fill:var(--c1);animation-name:ck}@keyframes cl{13.05%{fill:var(--c1)}13.07%,100%{fill:var(--ce)}}.c.cl{fill:var(--c1);animation-name:cl}@keyframes cm{60.81%{fill:var(--c2)}60.83%,100%{fill:var(--ce)}}.c.cm{fill:var(--c2);animation-name:cm}@keyframes cn{16.14%{fill:var(--c1)}16.16%,100%{fill:var(--ce)}}.c.cn{fill:var(--c1);animation-name:cn}@keyframes co{68.37%{fill:var(--c2)}68.39%,100%{fill:var(--ce)}}.c.co{fill:var(--c2);animation-name:co}@keyframes cp{24.73%{fill:var(--c1)}24.75%,100%{fill:var(--ce)}}.c.cp{fill:var(--c1);animation-name:cp}@keyframes cq{67.69%{fill:var(--c2)}67.71%,100%{fill:var(--ce)}}.c.cq{fill:var(--c2);animation-name:cq}@keyframes cr{67.34%{fill:var(--c2)}67.36%,100%{fill:var(--ce)}}.c.cr{fill:var(--c2);animation-name:cr}@keyframes cs{19.58%{fill:var(--c1)}19.6%,100%{fill:var(--ce)}}.c.cs{fill:var(--c1);animation-name:cs}@keyframes ct{64.59%{fill:var(--c2)}64.61%,100%{fill:var(--ce)}}.c.ct{fill:var(--c2);animation-name:ct}@keyframes cu{23.36%{fill:var(--c1)}23.38%,100%{fill:var(--ce)}}.c.cu{fill:var(--c1);animation-name:cu}@keyframes cv{23.01%{fill:var(--c1)}23.03%,100%{fill:var(--ce)}}.c.cv{fill:var(--c1);animation-name:cv}@keyframes cw{27.48%{fill:var(--c1)}27.5%,100%{fill:var(--ce)}}.c.cw{fill:var(--c1);animation-name:cw}@keyframes cx{27.14%{fill:var(--c1)}27.16%,100%{fill:var(--ce)}}.c.cx{fill:var(--c1);animation-name:cx}@keyframes cy{19.92%{fill:var(--c1)}19.94%,100%{fill:var(--ce)}}.c.cy{fill:var(--c1);animation-name:cy}@keyframes cz{64.94%{fill:var(--c2)}64.96%,100%{fill:var(--ce)}}.c.cz{fill:var(--c2);animation-name:cz}@keyframes c10{65.28%{fill:var(--c2)}65.3%,100%{fill:var(--ce)}}.c.c10{fill:var(--c2);animation-name:c10}@keyframes c11{22.67%{fill:var(--c1)}22.69%,100%{fill:var(--ce)}}.c.c11{fill:var(--c1);animation-name:c11}@keyframes c12{22.33%{fill:var(--c1)}22.35%,100%{fill:var(--ce)}}.c.c12{fill:var(--c1);animation-name:c12}@keyframes c13{66.66%{fill:var(--c2)}66.68%,100%{fill:var(--ce)}}.c.c13{fill:var(--c2);animation-name:c13}@keyframes c14{20.26%{fill:var(--c1)}20.28%,100%{fill:var(--ce)}}.c.c14{fill:var(--c1);animation-name:c14}@keyframes c15{20.61%{fill:var(--c1)}20.63%,100%{fill:var(--ce)}}.c.c15{fill:var(--c1);animation-name:c15}@keyframes c16{30.57%{fill:var(--c1)}30.59%,100%{fill:var(--ce)}}.c.c16{fill:var(--c1);animation-name:c16}@keyframes c17{72.84%{fill:var(--c2)}72.86%,100%{fill:var(--ce)}}.c.c17{fill:var(--c2);animation-name:c17}@keyframes c18{33.32%{fill:var(--c1)}33.34%,100%{fill:var(--ce)}}.c.c18{fill:var(--c1);animation-name:c18}@keyframes c19{31.26%{fill:var(--c1)}31.28%,100%{fill:var(--ce)}}.c.c19{fill:var(--c1);animation-name:c19}@keyframes c1a{31.61%{fill:var(--c1)}31.63%,100%{fill:var(--ce)}}.c.c1a{fill:var(--c1);animation-name:c1a}@keyframes c1b{31.95%{fill:var(--c1)}31.97%,100%{fill:var(--ce)}}.c.c1b{fill:var(--c1);animation-name:c1b}@keyframes c1c{32.29%{fill:var(--c1)}32.31%,100%{fill:var(--ce)}}.c.c1c{fill:var(--c1);animation-name:c1c}@keyframes c1d{76.97%{fill:var(--c2)}76.99%,100%{fill:var(--ce)}}.c.c1d{fill:var(--c2);animation-name:c1d}.u{transform-origin:0 0;transform:scale(0,1);animation:none linear 29100ms infinite}@keyframes u0{1.36%{transform:scale(0.000,1)}1.38%,3.08%{transform:scale(0.032,1)}3.1%,3.43%{transform:scale(0.065,1)}3.45%,4.11%{transform:scale(0.097,1)}4.13%,4.46%{transform:scale(0.129,1)}4.48%,5.83%{transform:scale(0.161,1)}5.85%,6.18%{transform:scale(0.194,1)}6.2%,7.89%{transform:scale(0.226,1)}7.91%,8.58%{transform:scale(0.258,1)}8.6%,8.92%{transform:scale(0.290,1)}8.94%,13.05%{transform:scale(0.323,1)}13.07%,13.39%{transform:scale(0.355,1)}13.41%,16.14%{transform:scale(0.387,1)}16.16%,19.58%{transform:scale(0.419,1)}19.6%,19.92%{transform:scale(0.452,1)}19.94%,20.26%{transform:scale(0.484,1)}20.28%,20.61%{transform:scale(0.516,1)}20.63%,22.33%{transform:scale(0.548,1)}22.35%,22.67%{transform:scale(0.581,1)}22.69%,23.01%{transform:scale(0.613,1)}23.03%,23.36%{transform:scale(0.645,1)}23.38%,24.73%{transform:scale(0.677,1)}24.75%,27.14%{transform:scale(0.710,1)}27.16%,27.48%{transform:scale(0.742,1)}27.5%,30.57%{transform:scale(0.774,1)}30.59%,31.26%{transform:scale(0.806,1)}31.28%,31.61%{transform:scale(0.839,1)}31.63%,31.95%{transform:scale(0.871,1)}31.97%,32.29%{transform:scale(0.903,1)}32.31%,33.32%{transform:scale(0.935,1)}33.34%,49.47%{transform:scale(0.968,1)}49.49%,100%{transform:scale(1.000,1)}}.u.u0{fill:var(--c1);animation-name:u0;transform-origin:0.0px 0}@keyframes u1{49.82%{transform:scale(0.000,1)}49.84%,50.16%{transform:scale(0.071,1)}50.18%,51.54%{transform:scale(0.143,1)}51.56%,52.91%{transform:scale(0.214,1)}52.93%,60.81%{transform:scale(0.286,1)}60.83%,64.59%{transform:scale(0.357,1)}64.61%,64.94%{transform:scale(0.429,1)}64.96%,65.28%{transform:scale(0.500,1)}65.3%,66.66%{transform:scale(0.571,1)}66.68%,67.34%{transform:scale(0.643,1)}67.36%,67.69%{transform:scale(0.714,1)}67.71%,68.37%{transform:scale(0.786,1)}68.39%,72.84%{transform:scale(0.857,1)}72.86%,76.97%{transform:scale(0.929,1)}76.99%,100%{transform:scale(1.000,1)}}.u.u1{fill:var(--c2);animation-name:u1;transform-origin:525.8px 0}@keyframes u2{93.12%{transform:scale(0.000,1)}93.14%,100%{transform:scale(1.000,1)}}.u.u2{fill:var(--c3);animation-name:u2;transform-origin:763.2px 0}@keyframes u3{93.8%{transform:scale(0.000,1)}93.82%,94.15%{transform:scale(0.250,1)}94.17%,95.18%{transform:scale(0.500,1)}95.2%,95.87%{transform:scale(0.750,1)}95.89%,100%{transform:scale(1.000,1)}}.u.u3{fill:var(--c4);animation-name:u3;transform-origin:780.2px 0}.s{shape-rendering:geometricPrecision;fill:var(--cs);animation:none linear 29100ms infinite}@keyframes s0{0%,99.66%{transform:translate(0px,-16px)}0.34%{transform:translate(0px,0px)}1.72%{transform:translate(64px,0px)}2.75%{transform:translate(64px,48px)}3.44%{transform:translate(32px,48px)}3.78%{transform:translate(32px,32px)}4.81%{transform:translate(-16px,32px)}5.5%{transform:translate(-16px,64px)}5.84%,49.14%,53.26%{transform:translate(0px,64px)}6.53%{transform:translate(0px,96px)}7.9%{transform:translate(64px,96px)}8.25%{transform:translate(64px,80px)}8.59%,50.52%{transform:translate(48px,80px)}8.93%{transform:translate(48px,64px)}13.06%{transform:translate(240px,64px)}13.4%{transform:translate(240px,48px)}15.81%{transform:translate(352px,48px)}16.15%{transform:translate(352px,64px)}20.27%{transform:translate(544px,64px)}20.62%{transform:translate(544px,80px)}20.96%{transform:translate(560px,80px)}21.99%{transform:translate(560px,32px)}22.34%{transform:translate(544px,32px)}22.68%,24.05%{transform:translate(544px,16px)}23.02%{transform:translate(528px,16px)}23.37%{transform:translate(528px,0px)}23.71%{transform:translate(544px,0px)}25.09%{transform:translate(496px,16px)}26.12%{transform:translate(496px,64px)}26.8%{transform:translate(528px,64px)}27.49%{transform:translate(528px,32px)}30.24%{transform:translate(656px,32px)}30.58%{transform:translate(656px,16px)}31.27%{transform:translate(688px,16px)}32.3%{transform:translate(688px,64px)}32.65%{transform:translate(672px,64px)}33.33%{transform:translate(672px,96px)}35.74%{transform:translate(560px,96px)}36.08%{transform:translate(560px,112px)}48.11%{transform:translate(0px,112px)}49.83%{transform:translate(32px,64px)}50.17%,96.22%{transform:translate(32px,80px)}51.55%{transform:translate(48px,32px)}52.58%,94.5%{transform:translate(0px,32px)}60.48%{transform:translate(336px,64px)}60.82%{transform:translate(336px,80px)}64.95%{transform:translate(528px,80px)}65.29%{transform:translate(528px,96px)}65.64%{transform:translate(544px,96px)}66.67%{transform:translate(544px,48px)}67.35%{transform:translate(512px,48px)}68.38%{transform:translate(512px,0px)}71.48%{transform:translate(656px,0px)}72.85%{transform:translate(656px,64px)}75.6%{transform:translate(784px,64px)}76.98%{transform:translate(784px,0px)}92.78%,98.28%{transform:translate(48px,0px)}93.13%{transform:translate(48px,16px)}94.16%{transform:translate(0px,16px)}94.85%{transform:translate(16px,32px)}95.88%{transform:translate(16px,80px)}97.94%{transform:translate(32px,0px)}98.63%{transform:translate(48px,-16px)}}.s.s0{transform:translate(0px,-16px);animation-name:s0}@keyframes s1{0%,99.66%{transform:translate(16px,-16px)}0.34%{transform:translate(0px,-16px)}0.69%{transform:translate(0px,0px)}2.06%{transform:translate(64px,0px)}3.09%{transform:translate(64px,48px)}3.78%{transform:translate(32px,48px)}4.12%{transform:translate(32px,32px)}5.15%{transform:translate(-16px,32px)}5.84%{transform:translate(-16px,64px)}6.19%,49.48%,53.61%{transform:translate(0px,64px)}6.87%{transform:translate(0px,96px)}8.25%{transform:translate(64px,96px)}8.59%{transform:translate(64px,80px)}8.93%,50.86%{transform:translate(48px,80px)}9.28%{transform:translate(48px,64px)}13.4%{transform:translate(240px,64px)}13.75%{transform:translate(240px,48px)}16.15%{transform:translate(352px,48px)}16.49%{transform:translate(352px,64px)}20.62%{transform:translate(544px,64px)}20.96%{transform:translate(544px,80px)}21.31%{transform:translate(560px,80px)}22.34%{transform:translate(560px,32px)}22.68%{transform:translate(544px,32px)}23.02%,24.4%{transform:translate(544px,16px)}23.37%{transform:translate(528px,16px)}23.71%{transform:translate(528px,0px)}24.05%{transform:translate(544px,0px)}25.43%{transform:translate(496px,16px)}26.46%{transform:translate(496px,64px)}27.15%{transform:translate(528px,64px)}27.84%{transform:translate(528px,32px)}30.58%{transform:translate(656px,32px)}30.93%{transform:translate(656px,16px)}31.62%{transform:translate(688px,16px)}32.65%{transform:translate(688px,64px)}32.99%{transform:translate(672px,64px)}33.68%{transform:translate(672px,96px)}36.08%{transform:translate(560px,96px)}36.43%{transform:translate(560px,112px)}48.45%{transform:translate(0px,112px)}50.17%{transform:translate(32px,64px)}50.52%,96.56%{transform:translate(32px,80px)}51.89%{transform:translate(48px,32px)}52.92%,94.85%{transform:translate(0px,32px)}60.82%{transform:translate(336px,64px)}61.17%{transform:translate(336px,80px)}65.29%{transform:translate(528px,80px)}65.64%{transform:translate(528px,96px)}65.98%{transform:translate(544px,96px)}67.01%{transform:translate(544px,48px)}67.7%{transform:translate(512px,48px)}68.73%{transform:translate(512px,0px)}71.82%{transform:translate(656px,0px)}73.2%{transform:translate(656px,64px)}75.95%{transform:translate(784px,64px)}77.32%{transform:translate(784px,0px)}93.13%,98.63%{transform:translate(48px,0px)}93.47%{transform:translate(48px,16px)}94.5%{transform:translate(0px,16px)}95.19%{transform:translate(16px,32px)}96.22%{transform:translate(16px,80px)}98.28%{transform:translate(32px,0px)}98.97%{transform:translate(48px,-16px)}}.s.s1{transform:translate(16px,-16px);animation-name:s1}@keyframes s2{0%,99.66%{transform:translate(32px,-16px)}0.69%{transform:translate(0px,-16px)}1.03%{transform:translate(0px,0px)}2.41%{transform:translate(64px,0px)}3.44%{transform:translate(64px,48px)}4.12%{transform:translate(32px,48px)}4.47%{transform:translate(32px,32px)}5.5%{transform:translate(-16px,32px)}6.19%{transform:translate(-16px,64px)}6.53%,49.83%,53.95%{transform:translate(0px,64px)}7.22%{transform:translate(0px,96px)}8.59%{transform:translate(64px,96px)}8.93%{transform:translate(64px,80px)}9.28%,51.2%{transform:translate(48px,80px)}9.62%{transform:translate(48px,64px)}13.75%{transform:translate(240px,64px)}14.09%{transform:translate(240px,48px)}16.49%{transform:translate(352px,48px)}16.84%{transform:translate(352px,64px)}20.96%{transform:translate(544px,64px)}21.31%{transform:translate(544px,80px)}21.65%{transform:translate(560px,80px)}22.68%{transform:translate(560px,32px)}23.02%{transform:translate(544px,32px)}23.37%,24.74%{transform:translate(544px,16px)}23.71%{transform:translate(528px,16px)}24.05%{transform:translate(528px,0px)}24.4%{transform:translate(544px,0px)}25.77%{transform:translate(496px,16px)}26.8%{transform:translate(496px,64px)}27.49%{transform:translate(528px,64px)}28.18%{transform:translate(528px,32px)}30.93%{transform:translate(656px,32px)}31.27%{transform:translate(656px,16px)}31.96%{transform:translate(688px,16px)}32.99%{transform:translate(688px,64px)}33.33%{transform:translate(672px,64px)}34.02%{transform:translate(672px,96px)}36.43%{transform:translate(560px,96px)}36.77%{transform:translate(560px,112px)}48.8%{transform:translate(0px,112px)}50.52%{transform:translate(32px,64px)}50.86%,96.91%{transform:translate(32px,80px)}52.23%{transform:translate(48px,32px)}53.26%,95.19%{transform:translate(0px,32px)}61.17%{transform:translate(336px,64px)}61.51%{transform:translate(336px,80px)}65.64%{transform:translate(528px,80px)}65.98%{transform:translate(528px,96px)}66.32%{transform:translate(544px,96px)}67.35%{transform:translate(544px,48px)}68.04%{transform:translate(512px,48px)}69.07%{transform:translate(512px,0px)}72.16%{transform:translate(656px,0px)}73.54%{transform:translate(656px,64px)}76.29%{transform:translate(784px,64px)}77.66%{transform:translate(784px,0px)}93.47%,98.97%{transform:translate(48px,0px)}93.81%{transform:translate(48px,16px)}94.85%{transform:translate(0px,16px)}95.53%{transform:translate(16px,32px)}96.56%{transform:translate(16px,80px)}98.63%{transform:translate(32px,0px)}99.31%{transform:translate(48px,-16px)}}.s.s2{transform:translate(32px,-16px);animation-name:s2}@keyframes s3{0%,99.66%{transform:translate(48px,-16px)}1.03%{transform:translate(0px,-16px)}1.37%{transform:translate(0px,0px)}2.75%{transform:translate(64px,0px)}3.78%{transform:translate(64px,48px)}4.47%{transform:translate(32px,48px)}4.81%{transform:translate(32px,32px)}5.84%{transform:translate(-16px,32px)}6.53%{transform:translate(-16px,64px)}6.87%,50.17%,54.3%{transform:translate(0px,64px)}7.56%{transform:translate(0px,96px)}8.93%{transform:translate(64px,96px)}9.28%{transform:translate(64px,80px)}9.62%,51.55%{transform:translate(48px,80px)}9.97%{transform:translate(48px,64px)}14.09%{transform:translate(240px,64px)}14.43%{transform:translate(240px,48px)}16.84%{transform:translate(352px,48px)}17.18%{transform:translate(352px,64px)}21.31%{transform:translate(544px,64px)}21.65%{transform:translate(544px,80px)}21.99%{transform:translate(560px,80px)}23.02%{transform:translate(560px,32px)}23.37%{transform:translate(544px,32px)}23.71%,25.09%{transform:translate(544px,16px)}24.05%{transform:translate(528px,16px)}24.4%{transform:translate(528px,0px)}24.74%{transform:translate(544px,0px)}26.12%{transform:translate(496px,16px)}27.15%{transform:translate(496px,64px)}27.84%{transform:translate(528px,64px)}28.52%{transform:translate(528px,32px)}31.27%{transform:translate(656px,32px)}31.62%{transform:translate(656px,16px)}32.3%{transform:translate(688px,16px)}33.33%{transform:translate(688px,64px)}33.68%{transform:translate(672px,64px)}34.36%{transform:translate(672px,96px)}36.77%{transform:translate(560px,96px)}37.11%{transform:translate(560px,112px)}49.14%{transform:translate(0px,112px)}50.86%{transform:translate(32px,64px)}51.2%,97.25%{transform:translate(32px,80px)}52.58%{transform:translate(48px,32px)}53.61%,95.53%{transform:translate(0px,32px)}61.51%{transform:translate(336px,64px)}61.86%{transform:translate(336px,80px)}65.98%{transform:translate(528px,80px)}66.32%{transform:translate(528px,96px)}66.67%{transform:translate(544px,96px)}67.7%{transform:translate(544px,48px)}68.38%{transform:translate(512px,48px)}69.42%{transform:translate(512px,0px)}72.51%{transform:translate(656px,0px)}73.88%{transform:translate(656px,64px)}76.63%{transform:translate(784px,64px)}78.01%{transform:translate(784px,0px)}93.81%,99.31%{transform:translate(48px,0px)}94.16%{transform:translate(48px,16px)}95.19%{transform:translate(0px,16px)}95.88%{transform:translate(16px,32px)}96.91%{transform:translate(16px,80px)}98.97%{transform:translate(32px,0px)}}.s.s3{transform:translate(48px,-16px);animation-name:s3}</style><rect class="c" x="2" y="2" rx="2" ry="2"/><rect class="c c0" x="2" y="18" rx="2" ry="2"/><rect class="c c1" x="2" y="34" rx="2" ry="2"/><rect class="c c2" x="2" y="50" rx="2" ry="2"/><rect class="c c3" x="2" y="66" rx="2" ry="2"/><rect class="c c4" x="2" y="82" rx="2" ry="2"/><rect class="c" x="2" y="98" rx="2" ry="2"/><rect class="c" x="18" y="2" rx="2" ry="2"/><rect class="c c5" x="18" y="18" rx="2" ry="2"/><rect class="c c6" x="18" y="34" rx="2" ry="2"/><rect class="c c7" x="18" y="50" rx="2" ry="2"/><rect class="c c8" x="18" y="66" rx="2" ry="2"/><rect class="c c9" x="18" y="82" rx="2" ry="2"/><rect class="c" x="18" y="98" rx="2" ry="2"/><rect class="c" x="34" y="2" rx="2" ry="2"/><rect class="c" x="34" y="18" rx="2" ry="2"/><rect class="c" x="34" y="34" rx="2" ry="2"/><rect class="c ca" x="34" y="50" rx="2" ry="2"/><rect class="c cb" x="34" y="66" rx="2" ry="2"/><rect class="c cc" x="34" y="82" rx="2" ry="2"/><rect class="c" x="34" y="98" rx="2" ry="2"/><rect class="c cd" x="50" y="2" rx="2" ry="2"/><rect class="c ce" x="50" y="18" rx="2" ry="2"/><rect class="c cf" x="50" y="34" rx="2" ry="2"/><rect class="c cg" x="50" y="50" rx="2" ry="2"/><rect class="c ch" x="50" y="66" rx="2" ry="2"/><rect class="c ci" x="50" y="82" rx="2" ry="2"/><rect class="c" x="50" y="98" rx="2" ry="2"/><rect class="c" x="66" y="2" rx="2" ry="2"/><rect class="c" x="66" y="18" rx="2" ry="2"/><rect class="c" x="66" y="34" rx="2" ry="2"/><rect class="c" x="66" y="50" rx="2" ry="2"/><rect class="c" x="66" y="66" rx="2" ry="2"/><rect class="c" x="66" y="82" rx="2" ry="2"/><rect class="c cj" x="66" y="98" rx="2" ry="2"/><rect class="c" x="82" y="2" rx="2" ry="2"/><rect class="c" x="82" y="18" rx="2" ry="2"/><rect class="c" x="82" y="34" rx="2" ry="2"/><rect class="c" x="82" y="50" rx="2" ry="2"/><rect class="c" x="82" y="66" rx="2" ry="2"/><rect class="c" x="82" y="82" rx="2" ry="2"/><rect class="c" x="82" y="98" rx="2" ry="2"/><rect class="c" x="98" y="2" rx="2" ry="2"/><rect class="c" x="98" y="18" rx="2" ry="2"/><rect class="c" x="98" y="34" rx="2" ry="2"/><rect class="c" x="98" y="50" rx="2" ry="2"/><rect class="c" x="98" y="66" rx="2" ry="2"/><rect class="c" x="98" y="82" rx="2" ry="2"/><rect class="c" x="98" y="98" rx="2" ry="2"/><rect class="c" x="114" y="2" rx="2" ry="2"/><rect class="c" x="114" y="18" rx="2" ry="2"/><rect class="c" x="114" y="34" rx="2" ry="2"/><rect class="c" x="114" y="50" rx="2" ry="2"/><rect class="c" x="114" y="66" rx="2" ry="2"/><rect class="c" x="114" y="82" rx="2" ry="2"/><rect class="c" x="114" y="98" rx="2" ry="2"/><rect class="c" x="130" y="2" rx="2" ry="2"/><rect class="c" x="130" y="18" rx="2" ry="2"/><rect class="c" x="130" y="34" rx="2" ry="2"/><rect class="c" x="130" y="50" rx="2" ry="2"/><rect class="c" x="130" y="66" rx="2" ry="2"/><rect class="c" x="130" y="82" rx="2" ry="2"/><rect class="c" x="130" y="98" rx="2" ry="2"/><rect class="c" x="146" y="2" rx="2" ry="2"/><rect class="c" x="146" y="18" rx="2" ry="2"/><rect class="c" x="146" y="34" rx="2" ry="2"/><rect class="c" x="146" y="50" rx="2" ry="2"/><rect class="c" x="146" y="66" rx="2" ry="2"/><rect class="c" x="146" y="82" rx="2" ry="2"/><rect class="c" x="146" y="98" rx="2" ry="2"/><rect class="c" x="162" y="2" rx="2" ry="2"/><rect class="c" x="162" y="18" rx="2" ry="2"/><rect class="c" x="162" y="34" rx="2" ry="2"/><rect class="c" x="162" y="50" rx="2" ry="2"/><rect class="c" x="162" y="66" rx="2" ry="2"/><rect class="c" x="162" y="82" rx="2" ry="2"/><rect class="c" x="162" y="98" rx="2" ry="2"/><rect class="c" x="178" y="2" rx="2" ry="2"/><rect class="c" x="178" y="18" rx="2" ry="2"/><rect class="c" x="178" y="34" rx="2" ry="2"/><rect class="c" x="178" y="50" rx="2" ry="2"/><rect class="c" x="178" y="66" rx="2" ry="2"/><rect class="c" x="178" y="82" rx="2" ry="2"/><rect class="c" x="178" y="98" rx="2" ry="2"/><rect class="c" x="194" y="2" rx="2" ry="2"/><rect class="c" x="194" y="18" rx="2" ry="2"/><rect class="c" x="194" y="34" rx="2" ry="2"/><rect class="c" x="194" y="50" rx="2" ry="2"/><rect class="c" x="194" y="66" rx="2" ry="2"/><rect class="c" x="194" y="82" rx="2" ry="2"/><rect class="c" x="194" y="98" rx="2" ry="2"/><rect class="c" x="210" y="2" rx="2" ry="2"/><rect class="c" x="210" y="18" rx="2" ry="2"/><rect class="c" x="210" y="34" rx="2" ry="2"/><rect class="c" x="210" y="50" rx="2" ry="2"/><rect class="c" x="210" y="66" rx="2" ry="2"/><rect class="c" x="210" y="82" rx="2" ry="2"/><rect class="c" x="210" y="98" rx="2" ry="2"/><rect class="c" x="226" y="2" rx="2" ry="2"/><rect class="c" x="226" y="18" rx="2" ry="2"/><rect class="c" x="226" y="34" rx="2" ry="2"/><rect class="c" x="226" y="50" rx="2" ry="2"/><rect class="c" x="226" y="66" rx="2" ry="2"/><rect class="c" x="226" y="82" rx="2" ry="2"/><rect class="c" x="226" y="98" rx="2" ry="2"/><rect class="c" x="242" y="2" rx="2" ry="2"/><rect class="c" x="242" y="18" rx="2" ry="2"/><rect class="c" x="242" y="34" rx="2" ry="2"/><rect class="c ck" x="242" y="50" rx="2" ry="2"/><rect class="c cl" x="242" y="66" rx="2" ry="2"/><rect class="c" x="242" y="82" rx="2" ry="2"/><rect class="c" x="242" y="98" rx="2" ry="2"/><rect class="c" x="258" y="2" rx="2" ry="2"/><rect class="c" x="258" y="18" rx="2" ry="2"/><rect class="c" x="258" y="34" rx="2" ry="2"/><rect class="c" x="258" y="50" rx="2" ry="2"/><rect class="c" x="258" y="66" rx="2" ry="2"/><rect class="c" x="258" y="82" rx="2" ry="2"/><rect class="c" x="258" y="98" rx="2" ry="2"/><rect class="c" x="274" y="2" rx="2" ry="2"/><rect class="c" x="274" y="18" rx="2" ry="2"/><rect class="c" x="274" y="34" rx="2" ry="2"/><rect class="c" x="274" y="50" rx="2" ry="2"/><rect class="c" x="274" y="66" rx="2" ry="2"/><rect class="c" x="274" y="82" rx="2" ry="2"/><rect class="c" x="274" y="98" rx="2" ry="2"/><rect class="c" x="290" y="2" rx="2" ry="2"/><rect class="c" x="290" y="18" rx="2" ry="2"/><rect class="c" x="290" y="34" rx="2" ry="2"/><rect class="c" x="290" y="50" rx="2" ry="2"/><rect class="c" x="290" y="66" rx="2" ry="2"/><rect class="c" x="290" y="82" rx="2" ry="2"/><rect class="c" x="290" y="98" rx="2" ry="2"/><rect class="c" x="306" y="2" rx="2" ry="2"/><rect class="c" x="306" y="18" rx="2" ry="2"/><rect class="c" x="306" y="34" rx="2" ry="2"/><rect class="c" x="306" y="50" rx="2" ry="2"/><rect class="c" x="306" y="66" rx="2" ry="2"/><rect class="c" x="306" y="82" rx="2" ry="2"/><rect class="c" x="306" y="98" rx="2" ry="2"/><rect class="c" x="322" y="2" rx="2" ry="2"/><rect class="c" x="322" y="18" rx="2" ry="2"/><rect class="c" x="322" y="34" rx="2" ry="2"/><rect class="c" x="322" y="50" rx="2" ry="2"/><rect class="c" x="322" y="66" rx="2" ry="2"/><rect class="c" x="322" y="82" rx="2" ry="2"/><rect class="c" x="322" y="98" rx="2" ry="2"/><rect class="c" x="338" y="2" rx="2" ry="2"/><rect class="c" x="338" y="18" rx="2" ry="2"/><rect class="c" x="338" y="34" rx="2" ry="2"/><rect class="c" x="338" y="50" rx="2" ry="2"/><rect class="c" x="338" y="66" rx="2" ry="2"/><rect class="c cm" x="338" y="82" rx="2" ry="2"/><rect class="c" x="338" y="98" rx="2" ry="2"/><rect class="c" x="354" y="2" rx="2" ry="2"/><rect class="c" x="354" y="18" rx="2" ry="2"/><rect class="c" x="354" y="34" rx="2" ry="2"/><rect class="c" x="354" y="50" rx="2" ry="2"/><rect class="c cn" x="354" y="66" rx="2" ry="2"/><rect class="c" x="354" y="82" rx="2" ry="2"/><rect class="c" x="354" y="98" rx="2" ry="2"/><rect class="c" x="370" y="2" rx="2" ry="2"/><rect class="c" x="370" y="18" rx="2" ry="2"/><rect class="c" x="370" y="34" rx="2" ry="2"/><rect class="c" x="370" y="50" rx="2" ry="2"/><rect class="c" x="370" y="66" rx="2" ry="2"/><rect class="c" x="370" y="82" rx="2" ry="2"/><rect class="c" x="370" y="98" rx="2" ry="2"/><rect class="c" x="386" y="2" rx="2" ry="2"/><rect class="c" x="386" y="18" rx="2" ry="2"/><rect class="c" x="386" y="34" rx="2" ry="2"/><rect class="c" x="386" y="50" rx="2" ry="2"/><rect class="c" x="386" y="66" rx="2" ry="2"/><rect class="c" x="386" y="82" rx="2" ry="2"/><rect class="c" x="386" y="98" rx="2" ry="2"/><rect class="c" x="402" y="2" rx="2" ry="2"/><rect class="c" x="402" y="18" rx="2" ry="2"/><rect class="c" x="402" y="34" rx="2" ry="2"/><rect class="c" x="402" y="50" rx="2" ry="2"/><rect class="c" x="402" y="66" rx="2" ry="2"/><rect class="c" x="402" y="82" rx="2" ry="2"/><rect class="c" x="402" y="98" rx="2" ry="2"/><rect class="c" x="418" y="2" rx="2" ry="2"/><rect class="c" x="418" y="18" rx="2" ry="2"/><rect class="c" x="418" y="34" rx="2" ry="2"/><rect class="c" x="418" y="50" rx="2" ry="2"/><rect class="c" x="418" y="66" rx="2" ry="2"/><rect class="c" x="418" y="82" rx="2" ry="2"/><rect class="c" x="418" y="98" rx="2" ry="2"/><rect class="c" x="434" y="2" rx="2" ry="2"/><rect class="c" x="434" y="18" rx="2" ry="2"/><rect class="c" x="434" y="34" rx="2" ry="2"/><rect class="c" x="434" y="50" rx="2" ry="2"/><rect class="c" x="434" y="66" rx="2" ry="2"/><rect class="c" x="434" y="82" rx="2" ry="2"/><rect class="c" x="434" y="98" rx="2" ry="2"/><rect class="c" x="450" y="2" rx="2" ry="2"/><rect class="c" x="450" y="18" rx="2" ry="2"/><rect class="c" x="450" y="34" rx="2" ry="2"/><rect class="c" x="450" y="50" rx="2" ry="2"/><rect class="c" x="450" y="66" rx="2" ry="2"/><rect class="c" x="450" y="82" rx="2" ry="2"/><rect class="c" x="450" y="98" rx="2" ry="2"/><rect class="c" x="466" y="2" rx="2" ry="2"/><rect class="c" x="466" y="18" rx="2" ry="2"/><rect class="c" x="466" y="34" rx="2" ry="2"/><rect class="c" x="466" y="50" rx="2" ry="2"/><rect class="c" x="466" y="66" rx="2" ry="2"/><rect class="c" x="466" y="82" rx="2" ry="2"/><rect class="c" x="466" y="98" rx="2" ry="2"/><rect class="c" x="482" y="2" rx="2" ry="2"/><rect class="c" x="482" y="18" rx="2" ry="2"/><rect class="c" x="482" y="34" rx="2" ry="2"/><rect class="c" x="482" y="50" rx="2" ry="2"/><rect class="c" x="482" y="66" rx="2" ry="2"/><rect class="c" x="482" y="82" rx="2" ry="2"/><rect class="c" x="482" y="98" rx="2" ry="2"/><rect class="c" x="498" y="2" rx="2" ry="2"/><rect class="c" x="498" y="18" rx="2" ry="2"/><rect class="c" x="498" y="34" rx="2" ry="2"/><rect class="c" x="498" y="50" rx="2" ry="2"/><rect class="c" x="498" y="66" rx="2" ry="2"/><rect class="c" x="498" y="82" rx="2" ry="2"/><rect class="c" x="498" y="98" rx="2" ry="2"/><rect class="c co" x="514" y="2" rx="2" ry="2"/><rect class="c cp" x="514" y="18" rx="2" ry="2"/><rect class="c cq" x="514" y="34" rx="2" ry="2"/><rect class="c cr" x="514" y="50" rx="2" ry="2"/><rect class="c cs" x="514" y="66" rx="2" ry="2"/><rect class="c ct" x="514" y="82" rx="2" ry="2"/><rect class="c" x="514" y="98" rx="2" ry="2"/><rect class="c cu" x="530" y="2" rx="2" ry="2"/><rect class="c cv" x="530" y="18" rx="2" ry="2"/><rect class="c cw" x="530" y="34" rx="2" ry="2"/><rect class="c cx" x="530" y="50" rx="2" ry="2"/><rect class="c cy" x="530" y="66" rx="2" ry="2"/><rect class="c cz" x="530" y="82" rx="2" ry="2"/><rect class="c c10" x="530" y="98" rx="2" ry="2"/><rect class="c" x="546" y="2" rx="2" ry="2"/><rect class="c c11" x="546" y="18" rx="2" ry="2"/><rect class="c c12" x="546" y="34" rx="2" ry="2"/><rect class="c c13" x="546" y="50" rx="2" ry="2"/><rect class="c c14" x="546" y="66" rx="2" ry="2"/><rect class="c c15" x="546" y="82" rx="2" ry="2"/><rect class="c" x="546" y="98" rx="2" ry="2"/><rect class="c" x="562" y="2" rx="2" ry="2"/><rect class="c" x="562" y="18" rx="2" ry="2"/><rect class="c" x="562" y="34" rx="2" ry="2"/><rect class="c" x="562" y="50" rx="2" ry="2"/><rect class="c" x="562" y="66" rx="2" ry="2"/><rect class="c" x="562" y="82" rx="2" ry="2"/><rect class="c" x="562" y="98" rx="2" ry="2"/><rect class="c" x="578" y="2" rx="2" ry="2"/><rect class="c" x="578" y="18" rx="2" ry="2"/><rect class="c" x="578" y="34" rx="2" ry="2"/><rect class="c" x="578" y="50" rx="2" ry="2"/><rect class="c" x="578" y="66" rx="2" ry="2"/><rect class="c" x="578" y="82" rx="2" ry="2"/><rect class="c" x="578" y="98" rx="2" ry="2"/><rect class="c" x="594" y="2" rx="2" ry="2"/><rect class="c" x="594" y="18" rx="2" ry="2"/><rect class="c" x="594" y="34" rx="2" ry="2"/><rect class="c" x="594" y="50" rx="2" ry="2"/><rect class="c" x="594" y="66" rx="2" ry="2"/><rect class="c" x="594" y="82" rx="2" ry="2"/><rect class="c" x="594" y="98" rx="2" ry="2"/><rect class="c" x="610" y="2" rx="2" ry="2"/><rect class="c" x="610" y="18" rx="2" ry="2"/><rect class="c" x="610" y="34" rx="2" ry="2"/><rect class="c" x="610" y="50" rx="2" ry="2"/><rect class="c" x="610" y="66" rx="2" ry="2"/><rect class="c" x="610" y="82" rx="2" ry="2"/><rect class="c" x="610" y="98" rx="2" ry="2"/><rect class="c" x="626" y="2" rx="2" ry="2"/><rect class="c" x="626" y="18" rx="2" ry="2"/><rect class="c" x="626" y="34" rx="2" ry="2"/><rect class="c" x="626" y="50" rx="2" ry="2"/><rect class="c" x="626" y="66" rx="2" ry="2"/><rect class="c" x="626" y="82" rx="2" ry="2"/><rect class="c" x="626" y="98" rx="2" ry="2"/><rect class="c" x="642" y="2" rx="2" ry="2"/><rect class="c" x="642" y="18" rx="2" ry="2"/><rect class="c" x="642" y="34" rx="2" ry="2"/><rect class="c" x="642" y="50" rx="2" ry="2"/><rect class="c" x="642" y="66" rx="2" ry="2"/><rect class="c" x="642" y="82" rx="2" ry="2"/><rect class="c" x="642" y="98" rx="2" ry="2"/><rect class="c" x="658" y="2" rx="2" ry="2"/><rect class="c c16" x="658" y="18" rx="2" ry="2"/><rect class="c" x="658" y="34" rx="2" ry="2"/><rect class="c" x="658" y="50" rx="2" ry="2"/><rect class="c c17" x="658" y="66" rx="2" ry="2"/><rect class="c" x="658" y="82" rx="2" ry="2"/><rect class="c" x="658" y="98" rx="2" ry="2"/><rect class="c" x="674" y="2" rx="2" ry="2"/><rect class="c" x="674" y="18" rx="2" ry="2"/><rect class="c" x="674" y="34" rx="2" ry="2"/><rect class="c" x="674" y="50" rx="2" ry="2"/><rect class="c" x="674" y="66" rx="2" ry="2"/><rect class="c" x="674" y="82" rx="2" ry="2"/><rect class="c c18" x="674" y="98" rx="2" ry="2"/><rect class="c" x="690" y="2" rx="2" ry="2"/><rect class="c c19" x="690" y="18" rx="2" ry="2"/><rect class="c c1a" x="690" y="34" rx="2" ry="2"/><rect class="c c1b" x="690" y="50" rx="2" ry="2"/><rect class="c c1c" x="690" y="66" rx="2" ry="2"/><rect class="c" x="690" y="82" rx="2" ry="2"/><rect class="c" x="690" y="98" rx="2" ry="2"/><rect class="c" x="706" y="2" rx="2" ry="2"/><rect class="c" x="706" y="18" rx="2" ry="2"/><rect class="c" x="706" y="34" rx="2" ry="2"/><rect class="c" x="706" y="50" rx="2" ry="2"/><rect class="c" x="706" y="66" rx="2" ry="2"/><rect class="c" x="706" y="82" rx="2" ry="2"/><rect class="c" x="706" y="98" rx="2" ry="2"/><rect class="c" x="722" y="2" rx="2" ry="2"/><rect class="c" x="722" y="18" rx="2" ry="2"/><rect class="c" x="722" y="34" rx="2" ry="2"/><rect class="c" x="722" y="50" rx="2" ry="2"/><rect class="c" x="722" y="66" rx="2" ry="2"/><rect class="c" x="722" y="82" rx="2" ry="2"/><rect class="c" x="722" y="98" rx="2" ry="2"/><rect class="c" x="738" y="2" rx="2" ry="2"/><rect class="c" x="738" y="18" rx="2" ry="2"/><rect class="c" x="738" y="34" rx="2" ry="2"/><rect class="c" x="738" y="50" rx="2" ry="2"/><rect class="c" x="738" y="66" rx="2" ry="2"/><rect class="c" x="738" y="82" rx="2" ry="2"/><rect class="c" x="738" y="98" rx="2" ry="2"/><rect class="c" x="754" y="2" rx="2" ry="2"/><rect class="c" x="754" y="18" rx="2" ry="2"/><rect class="c" x="754" y="34" rx="2" ry="2"/><rect class="c" x="754" y="50" rx="2" ry="2"/><rect class="c" x="754" y="66" rx="2" ry="2"/><rect class="c" x="754" y="82" rx="2" ry="2"/><rect class="c" x="754" y="98" rx="2" ry="2"/><rect class="c" x="770" y="2" rx="2" ry="2"/><rect class="c" x="770" y="18" rx="2" ry="2"/><rect class="c" x="770" y="34" rx="2" ry="2"/><rect class="c" x="770" y="50" rx="2" ry="2"/><rect class="c" x="770" y="66" rx="2" ry="2"/><rect class="c" x="770" y="82" rx="2" ry="2"/><rect class="c" x="770" y="98" rx="2" ry="2"/><rect class="c c1d" x="786" y="2" rx="2" ry="2"/><rect class="c" x="786" y="18" rx="2" ry="2"/><rect class="c" x="786" y="34" rx="2" ry="2"/><rect class="c" x="786" y="50" rx="2" ry="2"/><rect class="c" x="786" y="66" rx="2" ry="2"/><rect class="c" x="786" y="82" rx="2" ry="2"/><rect class="c" x="786" y="98" rx="2" ry="2"/><rect class="c" x="802" y="2" rx="2" ry="2"/><rect class="c" x="802" y="18" rx="2" ry="2"/><rect class="c" x="802" y="34" rx="2" ry="2"/><rect class="c" x="802" y="50" rx="2" ry="2"/><rect class="c" x="802" y="66" rx="2" ry="2"/><rect class="c" x="802" y="82" rx="2" ry="2"/><rect class="c" x="802" y="98" rx="2" ry="2"/><rect class="c" x="818" y="2" rx="2" ry="2"/><rect class="c" x="818" y="18" rx="2" ry="2"/><rect class="c" x="818" y="34" rx="2" ry="2"/><rect class="c" x="818" y="50" rx="2" ry="2"/><rect class="c" x="818" y="66" rx="2" ry="2"/><rect class="c" x="818" y="82" rx="2" ry="2"/><rect class="c" x="818" y="98" rx="2" ry="2"/><rect class="c" x="834" y="2" rx="2" ry="2"/><rect class="c" x="834" y="18" rx="2" ry="2"/><rect class="u u0" height="12" width="526.4" x="0.0" y="144"/><rect class="u u1" height="12" width="238.0" x="525.8" y="144"/><rect class="u u2" height="12" width="17.6" x="763.2" y="144"/><rect class="u u3" height="12" width="68.4" x="780.2" y="144"/><rect class="s s0" x="0.8" y="0.8" width="14.4" height="14.4" rx="4.5" ry="4.5"/><rect class="s s1" x="1.8" y="1.8" width="12.3" height="12.3" rx="4.1" ry="4.1"/><rect class="s s2" x="2.6" y="2.6" width="10.8" height="10.8" rx="3.6" ry="3.6"/><rect class="s s3" x="3.0" y="3.0" width="9.9" height="9.9" rx="3.3" ry="3.3"/></svg>