<svg viewBox="-16 -32 880 192" width="880" height="192" xmlns="http://www.w3.org/2000/svg"><desc>Generated with https://github.com/Platane/snk</desc><style>:root{--cb:#1b1f230a;--cs:#7845ab;--ce:#ebedf0;--c0:#ebedf0;--c1:#9be9a8;--c2:#40c463;--c3:#30a14e;--c4:#216e39}.c{shape-rendering:geometricPrecision;fill:var(--ce);stroke-width:1px;stroke:var(--cb);animation:none 29900ms linear infinite;width:12px;height:12px}@keyframes c0{61.19%{fill:var(--c3)}61.21%,100%{fill:var(--ce)}}.c.c0{fill:var(--c3);animation-name:c0}@keyframes c1{60.53%{fill:var(--c2)}60.55%,100%{fill:var(--ce)}}.c.c1{fill:var(--c2);animation-name:c1}@keyframes c2{53.17%{fill:var(--c2)}53.19%,100%{fill:var(--ce)}}.c.c2{fill:var(--c2);animation-name:c2}@keyframes c3{53.5%{fill:var(--c2)}53.52%,100%{fill:var(--ce)}}.c.c3{fill:var(--c2);animation-name:c3}@keyframes c4{67.21%{fill:var(--c3)}67.23%,100%{fill:var(--ce)}}.c.c4{fill:var(--c3);animation-name:c4}@keyframes c5{66.88%{fill:var(--c3)}66.9%,100%{fill:var(--ce)}}.c.c5{fill:var(--c3);animation-name:c5}@keyframes c6{7.01%{fill:var(--c1)}7.03%,100%{fill:var(--ce)}}.c.c6{fill:var(--c1);animation-name:c6}@keyframes c7{56.85%{fill:var(--c2)}56.87%,100%{fill:var(--ce)}}.c.c7{fill:var(--c2);animation-name:c7}@keyframes c8{52.83%{fill:var(--c2)}52.85%,100%{fill:var(--ce)}}.c.c8{fill:var(--c2);animation-name:c8}@keyframes c9{52.5%{fill:var(--c2)}52.52%,100%{fill:var(--ce)}}.c.c9{fill:var(--c2);animation-name:c9}@keyframes ca{8.02%{fill:var(--c1)}8.04%,100%{fill:var(--ce)}}.c.ca{fill:var(--c1);animation-name:ca}@keyframes cb{7.68%{fill:var(--c1)}7.7%,100%{fill:var(--ce)}}.c.cb{fill:var(--c1);animation-name:cb}@keyframes cc{7.35%{fill:var(--c1)}7.37%,100%{fill:var(--ce)}}.c.cc{fill:var(--c1);animation-name:cc}@keyframes cd{65.21%{fill:var(--c3)}65.23%,100%{fill:var(--ce)}}.c.cd{fill:var(--c3);animation-name:cd}@keyframes ce{56.18%{fill:var(--c2)}56.2%,100%{fill:var(--ce)}}.c.ce{fill:var(--c2);animation-name:ce}@keyframes cf{8.69%{fill:var(--c1)}8.71%,100%{fill:var(--ce)}}.c.cf{fill:var(--c1);animation-name:cf}@keyframes cg{8.35%{fill:var(--c1)}8.37%,100%{fill:var(--ce)}}.c.cg{fill:var(--c1);animation-name:cg}@keyframes ch{66.21%{fill:var(--c3)}66.23%,100%{fill:var(--ce)}}.c.ch{fill:var(--c3);animation-name:ch}@keyframes ci{55.17%{fill:var(--c2)}55.19%,100%{fill:var(--ce)}}.c.ci{fill:var(--c2);animation-name:ci}@keyframes cj{10.69%{fill:var(--c1)}10.71%,100%{fill:var(--ce)}}.c.cj{fill:var(--c1);animation-name:cj}@keyframes ck{16.38%{fill:var(--c1)}16.4%,100%{fill:var(--ce)}}.c.ck{fill:var(--c1);animation-name:ck}@keyframes cl{70.89%{fill:var(--c3)}70.91%,100%{fill:var(--ce)}}.c.cl{fill:var(--c3);animation-name:cl}@keyframes cm{13.7%{fill:var(--c1)}13.72%,100%{fill:var(--ce)}}.c.cm{fill:var(--c1);animation-name:cm}@keyframes cn{15.71%{fill:var(--c1)}15.73%,100%{fill:var(--ce)}}.c.cn{fill:var(--c1);animation-name:cn}@keyframes co{15.37%{fill:var(--c1)}15.39%,100%{fill:var(--ce)}}.c.co{fill:var(--c1);animation-name:co}@keyframes cp{15.04%{fill:var(--c1)}15.06%,100%{fill:var(--ce)}}.c.cp{fill:var(--c1);animation-name:cp}@keyframes cq{14.71%{fill:var(--c1)}14.73%,100%{fill:var(--ce)}}.c.cq{fill:var(--c1);animation-name:cq}@keyframes cr{74.91%{fill:var(--c3)}74.93%,100%{fill:var(--ce)}}.c.cr{fill:var(--c3);animation-name:cr}@keyframes cs{45.47%{fill:var(--c2)}45.49%,100%{fill:var(--ce)}}.c.cs{fill:var(--c2);animation-name:cs}@keyframes ct{21.73%{fill:var(--c1)}21.75%,100%{fill:var(--ce)}}.c.ct{fill:var(--c1);animation-name:ct}@keyframes cu{22.73%{fill:var(--c1)}22.75%,100%{fill:var(--ce)}}.c.cu{fill:var(--c1);animation-name:cu}@keyframes cv{33.77%{fill:var(--c1)}33.79%,100%{fill:var(--ce)}}.c.cv{fill:var(--c1);animation-name:cv}@keyframes cw{42.13%{fill:var(--c2)}42.15%,100%{fill:var(--ce)}}.c.cw{fill:var(--c2);animation-name:cw}@keyframes cx{23.07%{fill:var(--c1)}23.09%,100%{fill:var(--ce)}}.c.cx{fill:var(--c1);animation-name:cx}@keyframes cy{80.93%{fill:var(--c4)}80.95%,100%{fill:var(--ce)}}.c.cy{fill:var(--c4);animation-name:cy}@keyframes cz{81.26%{fill:var(--c4)}81.28%,100%{fill:var(--ce)}}.c.cz{fill:var(--c4);animation-name:cz}@keyframes c10{81.6%{fill:var(--c4)}81.62%,100%{fill:var(--ce)}}.c.c10{fill:var(--c4);animation-name:c10}@keyframes c11{41.46%{fill:var(--c2)}41.48%,100%{fill:var(--ce)}}.c.c11{fill:var(--c2);animation-name:c11}@keyframes c12{31.76%{fill:var(--c1)}31.78%,100%{fill:var(--ce)}}.c.c12{fill:var(--c1);animation-name:c12}@keyframes c13{23.4%{fill:var(--c1)}23.42%,100%{fill:var(--ce)}}.c.c13{fill:var(--c1);animation-name:c13}@keyframes c14{23.74%{fill:var(--c1)}23.76%,100%{fill:var(--ce)}}.c.c14{fill:var(--c1);animation-name:c14}@keyframes c15{27.75%{fill:var(--c1)}27.77%,100%{fill:var(--ce)}}.c.c15{fill:var(--c1);animation-name:c15}@keyframes c16{82.93%{fill:var(--c4)}82.95%,100%{fill:var(--ce)}}.c.c16{fill:var(--c4);animation-name:c16}@keyframes c17{26.75%{fill:var(--c1)}26.77%,100%{fill:var(--ce)}}.c.c17{fill:var(--c1);animation-name:c17}@keyframes c18{24.4%{fill:var(--c1)}24.42%,100%{fill:var(--ce)}}.c.c18{fill:var(--c1);animation-name:c18}@keyframes c19{27.41%{fill:var(--c1)}27.43%,100%{fill:var(--ce)}}.c.c19{fill:var(--c1);animation-name:c19}@keyframes c1a{28.42%{fill:var(--c1)}28.44%,100%{fill:var(--ce)}}.c.c1a{fill:var(--c1);animation-name:c1a}@keyframes c1b{28.75%{fill:var(--c1)}28.77%,100%{fill:var(--ce)}}.c.c1b{fill:var(--c1);animation-name:c1b}@keyframes c1c{79.25%{fill:var(--c3)}79.27%,100%{fill:var(--ce)}}.c.c1c{fill:var(--c3);animation-name:c1c}@keyframes c1d{24.74%{fill:var(--c1)}24.76%,100%{fill:var(--ce)}}.c.c1d{fill:var(--c1);animation-name:c1d}@keyframes c1e{30.42%{fill:var(--c1)}30.44%,100%{fill:var(--ce)}}.c.c1e{fill:var(--c1);animation-name:c1e}@keyframes c1f{25.41%{fill:var(--c1)}25.43%,100%{fill:var(--ce)}}.c.c1f{fill:var(--c1);animation-name:c1f}@keyframes c1g{29.42%{fill:var(--c1)}29.44%,100%{fill:var(--ce)}}.c.c1g{fill:var(--c1);animation-name:c1g}@keyframes c1h{37.78%{fill:var(--c1)}37.8%,100%{fill:var(--ce)}}.c.c1h{fill:var(--c1);animation-name:c1h}.u{transform-origin:0 0;transform:scale(0,1);animation:none linear 29900ms infinite}@keyframes u0{7.01%{transform:scale(0.000,1)}7.03%,7.35%{transform:scale(0.032,1)}7.37%,7.68%{transform:scale(0.065,1)}7.7%,8.02%{transform:scale(0.097,1)}8.04%,8.35%{transform:scale(0.129,1)}8.37%,8.69%{transform:scale(0.161,1)}8.71%,10.69%{transform:scale(0.194,1)}10.71%,13.7%{transform:scale(0.226,1)}13.72%,14.71%{transform:scale(0.258,1)}14.73%,15.04%{transform:scale(0.290,1)}15.06%,15.37%{transform:scale(0.323,1)}15.39%,15.71%{transform:scale(0.355,1)}15.73%,16.38%{transform:scale(0.387,1)}16.4%,21.73%{transform:scale(0.419,1)}21.75%,22.73%{transform:scale(0.452,1)}22.75%,23.07%{transform:scale(0.484,1)}23.09%,23.4%{transform:scale(0.516,1)}23.42%,23.74%{transform:scale(0.548,1)}23.76%,24.4%{transform:scale(0.581,1)}24.42%,24.74%{transform:scale(0.613,1)}24.76%,25.41%{transform:scale(0.645,1)}25.43%,26.75%{transform:scale(0.677,1)}26.77%,27.41%{transform:scale(0.710,1)}27.43%,27.75%{transform:scale(0.742,1)}27.77%,28.42%{transform:scale(0.774,1)}28.44%,28.75%{transform:scale(0.806,1)}28.77%,29.42%{transform:scale(0.839,1)}29.44%,30.42%{transform:scale(0.871,1)}30.44%,31.76%{transform:scale(0.903,1)}31.78%,33.77%{transform:scale(0.935,1)}33.79%,37.78%{transform:scale(0.968,1)}37.8%,100%{transform:scale(1.000,1)}}.u.u0{fill:var(--c1);animation-name:u0;transform-origin:0.0px 0}@keyframes u1{41.46%{transform:scale(0.000,1)}41.48%,42.13%{transform:scale(0.091,1)}42.15%,45.47%{transform:scale(0.182,1)}45.49%,52.5%{transform:scale(0.273,1)}52.52%,52.83%{transform:scale(0.364,1)}52.85%,53.17%{transform:scale(0.455,1)}53.19%,53.5%{transform:scale(0.545,1)}53.52%,55.17%{transform:scale(0.636,1)}55.19%,56.18%{transform:scale(0.727,1)}56.2%,56.85%{transform:scale(0.818,1)}56.87%,60.53%{transform:scale(0.909,1)}60.55%,100%{transform:scale(1.000,1)}}.u.u1{fill:var(--c2);animation-name:u1;transform-origin:486.8px 0}@keyframes u2{61.19%{transform:scale(0.000,1)}61.21%,65.21%{transform:scale(0.125,1)}65.23%,66.21%{transform:scale(0.250,1)}66.23%,66.88%{transform:scale(0.375,1)}66.9%,67.21%{transform:scale(0.500,1)}67.23%,70.89%{transform:scale(0.625,1)}70.91%,74.91%{transform:scale(0.750,1)}74.93%,79.25%{transform:scale(0.875,1)}79.27%,100%{transform:scale(1.000,1)}}.u.u2{fill:var(--c3);animation-name:u2;transform-origin:659.6px 0}@keyframes u3{80.93%{transform:scale(0.000,1)}80.95%,81.26%{transform:scale(0.250,1)}81.28%,81.6%{transform:scale(0.500,1)}81.62%,82.93%{transform:scale(0.750,1)}82.95%,100%{transform:scale(1.000,1)}}.u.u3{fill:var(--c4);animation-name:u3;transform-origin:785.2px 0}.s{shape-rendering:geometricPrecision;fill:var(--cs);animation:none linear 29900ms infinite}@keyframes s0{0%,99.67%{transform:translate(0px,-16px)}0.33%{transform:translate(0px,0px)}5.35%{transform:translate(240px,0px)}6.69%{transform:translate(240px,64px)}7.36%,54.85%{transform:translate(272px,64px)}8.03%{transform:translate(272px,32px)}8.36%{transform:translate(288px,32px)}8.7%{transform:translate(288px,16px)}9.03%{transform:translate(304px,16px)}10.37%{transform:translate(304px,80px)}10.7%,65.55%{transform:translate(288px,80px)}11.04%,55.85%{transform:translate(288px,96px)}14.05%{transform:translate(432px,96px)}15.72%{transform:translate(432px,16px)}16.39%{transform:translate(400px,16px)}16.72%{transform:translate(400px,0px)}19.06%{transform:translate(512px,0px)}19.4%{transform:translate(512px,-16px)}21.4%{transform:translate(608px,-16px)}21.74%{transform:translate(608px,0px)}23.41%{transform:translate(688px,0px)}23.75%{transform:translate(688px,16px)}25.08%{transform:translate(752px,16px)}25.75%{transform:translate(752px,-16px)}26.42%{transform:translate(720px,-16px)}27.42%{transform:translate(720px,32px)}27.76%{transform:translate(704px,32px)}28.09%,82.27%{transform:translate(704px,48px)}28.43%{transform:translate(720px,48px)}28.76%{transform:translate(720px,64px)}29.43%{transform:translate(752px,64px)}29.77%{transform:translate(752px,80px)}30.1%{transform:translate(736px,80px)}30.43%{transform:translate(736px,96px)}31.77%{transform:translate(672px,96px)}32.11%{transform:translate(672px,112px)}32.78%{transform:translate(640px,112px)}33.44%{transform:translate(640px,80px)}33.78%,41.81%{transform:translate(656px,80px)}34.11%{transform:translate(656px,64px)}37.12%{transform:translate(800px,64px)}37.79%{transform:translate(800px,32px)}40.13%{transform:translate(688px,32px)}40.8%{transform:translate(688px,64px)}41.14%{transform:translate(672px,64px)}41.47%{transform:translate(672px,80px)}42.14%{transform:translate(656px,96px)}42.47%{transform:translate(640px,96px)}44.48%{transform:translate(640px,0px)}46.49%{transform:translate(544px,0px)}46.82%{transform:translate(544px,16px)}52.51%,53.85%{transform:translate(272px,16px)}52.84%{transform:translate(272px,0px)}53.18%{transform:translate(256px,0px)}53.51%{transform:translate(256px,16px)}55.18%{transform:translate(288px,64px)}56.52%{transform:translate(256px,96px)}57.19%{transform:translate(256px,64px)}60.87%{transform:translate(80px,64px)}61.2%,95.99%{transform:translate(80px,80px)}66.22%{transform:translate(288px,48px)}66.89%{transform:translate(256px,48px)}67.22%{transform:translate(256px,32px)}70.23%{transform:translate(400px,32px)}70.9%{transform:translate(400px,64px)}73.58%{transform:translate(528px,64px)}74.92%{transform:translate(528px,0px)}79.26%{transform:translate(736px,0px)}79.6%{transform:translate(736px,16px)}80.94%{transform:translate(672px,16px)}81.61%{transform:translate(672px,48px)}82.94%{transform:translate(704px,80px)}96.99%{transform:translate(80px,32px)}97.66%{transform:translate(48px,32px)}98.66%{transform:translate(48px,-16px)}}.s.s0{transform:translate(0px,-16px);animation-name:s0}@keyframes s1{0%,99.67%{transform:translate(16px,-16px)}0.33%{transform:translate(0px,-16px)}0.67%{transform:translate(0px,0px)}5.69%{transform:translate(240px,0px)}7.02%{transform:translate(240px,64px)}7.69%,55.18%{transform:translate(272px,64px)}8.36%{transform:translate(272px,32px)}8.7%{transform:translate(288px,32px)}9.03%{transform:translate(288px,16px)}9.36%{transform:translate(304px,16px)}10.7%{transform:translate(304px,80px)}11.04%,65.89%{transform:translate(288px,80px)}11.37%,56.19%{transform:translate(288px,96px)}14.38%{transform:translate(432px,96px)}16.05%{transform:translate(432px,16px)}16.72%{transform:translate(400px,16px)}17.06%{transform:translate(400px,0px)}19.4%{transform:translate(512px,0px)}19.73%{transform:translate(512px,-16px)}21.74%{transform:translate(608px,-16px)}22.07%{transform:translate(608px,0px)}23.75%{transform:translate(688px,0px)}24.08%{transform:translate(688px,16px)}25.42%{transform:translate(752px,16px)}26.09%{transform:translate(752px,-16px)}26.76%{transform:translate(720px,-16px)}27.76%{transform:translate(720px,32px)}28.09%{transform:translate(704px,32px)}28.43%,82.61%{transform:translate(704px,48px)}28.76%{transform:translate(720px,48px)}29.1%{transform:translate(720px,64px)}29.77%{transform:translate(752px,64px)}30.1%{transform:translate(752px,80px)}30.43%{transform:translate(736px,80px)}30.77%{transform:translate(736px,96px)}32.11%{transform:translate(672px,96px)}32.44%{transform:translate(672px,112px)}33.11%{transform:translate(640px,112px)}33.78%{transform:translate(640px,80px)}34.11%,42.14%{transform:translate(656px,80px)}34.45%{transform:translate(656px,64px)}37.46%{transform:translate(800px,64px)}38.13%{transform:translate(800px,32px)}40.47%{transform:translate(688px,32px)}41.14%{transform:translate(688px,64px)}41.47%{transform:translate(672px,64px)}41.81%{transform:translate(672px,80px)}42.47%{transform:translate(656px,96px)}42.81%{transform:translate(640px,96px)}44.82%{transform:translate(640px,0px)}46.82%{transform:translate(544px,0px)}47.16%{transform:translate(544px,16px)}52.84%,54.18%{transform:translate(272px,16px)}53.18%{transform:translate(272px,0px)}53.51%{transform:translate(256px,0px)}53.85%{transform:translate(256px,16px)}55.52%{transform:translate(288px,64px)}56.86%{transform:translate(256px,96px)}57.53%{transform:translate(256px,64px)}61.2%{transform:translate(80px,64px)}61.54%,96.32%{transform:translate(80px,80px)}66.56%{transform:translate(288px,48px)}67.22%{transform:translate(256px,48px)}67.56%{transform:translate(256px,32px)}70.57%{transform:translate(400px,32px)}71.24%{transform:translate(400px,64px)}73.91%{transform:translate(528px,64px)}75.25%{transform:translate(528px,0px)}79.6%{transform:translate(736px,0px)}79.93%{transform:translate(736px,16px)}81.27%{transform:translate(672px,16px)}81.94%{transform:translate(672px,48px)}83.28%{transform:translate(704px,80px)}97.32%{transform:translate(80px,32px)}97.99%{transform:translate(48px,32px)}99%{transform:translate(48px,-16px)}}.s.s1{transform:translate(16px,-16px);animation-name:s1}@keyframes s2{0%,99.67%{transform:translate(32px,-16px)}0.67%{transform:translate(0px,-16px)}1%{transform:translate(0px,0px)}6.02%{transform:translate(240px,0px)}7.36%{transform:translate(240px,64px)}8.03%,55.52%{transform:translate(272px,64px)}8.7%{transform:translate(272px,32px)}9.03%{transform:translate(288px,32px)}9.36%{transform:translate(288px,16px)}9.7%{transform:translate(304px,16px)}11.04%{transform:translate(304px,80px)}11.37%,66.22%{transform:translate(288px,80px)}11.71%,56.52%{transform:translate(288px,96px)}14.72%{transform:translate(432px,96px)}16.39%{transform:translate(432px,16px)}17.06%{transform:translate(400px,16px)}17.39%{transform:translate(400px,0px)}19.73%{transform:translate(512px,0px)}20.07%{transform:translate(512px,-16px)}22.07%{transform:translate(608px,-16px)}22.41%{transform:translate(608px,0px)}24.08%{transform:translate(688px,0px)}24.41%{transform:translate(688px,16px)}25.75%{transform:translate(752px,16px)}26.42%{transform:translate(752px,-16px)}27.09%{transform:translate(720px,-16px)}28.09%{transform:translate(720px,32px)}28.43%{transform:translate(704px,32px)}28.76%,82.94%{transform:translate(704px,48px)}29.1%{transform:translate(720px,48px)}29.43%{transform:translate(720px,64px)}30.1%{transform:translate(752px,64px)}30.43%{transform:translate(752px,80px)}30.77%{transform:translate(736px,80px)}31.1%{transform:translate(736px,96px)}32.44%{transform:translate(672px,96px)}32.78%{transform:translate(672px,112px)}33.44%{transform:translate(640px,112px)}34.11%{transform:translate(640px,80px)}34.45%,42.47%{transform:translate(656px,80px)}34.78%{transform:translate(656px,64px)}37.79%{transform:translate(800px,64px)}38.46%{transform:translate(800px,32px)}40.8%{transform:translate(688px,32px)}41.47%{transform:translate(688px,64px)}41.81%{transform:translate(672px,64px)}42.14%{transform:translate(672px,80px)}42.81%{transform:translate(656px,96px)}43.14%{transform:translate(640px,96px)}45.15%{transform:translate(640px,0px)}47.16%{transform:translate(544px,0px)}47.49%{transform:translate(544px,16px)}53.18%,54.52%{transform:translate(272px,16px)}53.51%{transform:translate(272px,0px)}53.85%{transform:translate(256px,0px)}54.18%{transform:translate(256px,16px)}55.85%{transform:translate(288px,64px)}57.19%{transform:translate(256px,96px)}57.86%{transform:translate(256px,64px)}61.54%{transform:translate(80px,64px)}61.87%,96.66%{transform:translate(80px,80px)}66.89%{transform:translate(288px,48px)}67.56%{transform:translate(256px,48px)}67.89%{transform:translate(256px,32px)}70.9%{transform:translate(400px,32px)}71.57%{transform:translate(400px,64px)}74.25%{transform:translate(528px,64px)}75.59%{transform:translate(528px,0px)}79.93%{transform:translate(736px,0px)}80.27%{transform:translate(736px,16px)}81.61%{transform:translate(672px,16px)}82.27%{transform:translate(672px,48px)}83.61%{transform:translate(704px,80px)}97.66%{transform:translate(80px,32px)}98.33%{transform:translate(48px,32px)}99.33%{transform:translate(48px,-16px)}}.s.s2{transform:translate(32px,-16px);animation-name:s2}@keyframes s3{0%,99.67%{transform:translate(48px,-16px)}1%{transform:translate(0px,-16px)}1.34%{transform:translate(0px,0px)}6.35%{transform:translate(240px,0px)}7.69%{transform:translate(240px,64px)}8.36%,55.85%{transform:translate(272px,64px)}9.03%{transform:translate(272px,32px)}9.36%{transform:translate(288px,32px)}9.7%{transform:translate(288px,16px)}10.03%{transform:translate(304px,16px)}11.37%{transform:translate(304px,80px)}11.71%,66.56%{transform:translate(288px,80px)}12.04%,56.86%{transform:translate(288px,96px)}15.05%{transform:translate(432px,96px)}16.72%{transform:translate(432px,16px)}17.39%{transform:translate(400px,16px)}17.73%{transform:translate(400px,0px)}20.07%{transform:translate(512px,0px)}20.4%{transform:translate(512px,-16px)}22.41%{transform:translate(608px,-16px)}22.74%{transform:translate(608px,0px)}24.41%{transform:translate(688px,0px)}24.75%{transform:translate(688px,16px)}26.09%{transform:translate(752px,16px)}26.76%{transform:translate(752px,-16px)}27.42%{transform:translate(720px,-16px)}28.43%{transform:translate(720px,32px)}28.76%{transform:translate(704px,32px)}29.1%,83.28%{transform:translate(704px,48px)}29.43%{transform:translate(720px,48px)}29.77%{transform:translate(720px,64px)}30.43%{transform:translate(752px,64px)}30.77%{transform:translate(752px,80px)}31.1%{transform:translate(736px,80px)}31.44%{transform:translate(736px,96px)}32.78%{transform:translate(672px,96px)}33.11%{transform:translate(672px,112px)}33.78%{transform:translate(640px,112px)}34.45%{transform:translate(640px,80px)}34.78%,42.81%{transform:translate(656px,80px)}35.12%{transform:translate(656px,64px)}38.13%{transform:translate(800px,64px)}38.8%{transform:translate(800px,32px)}41.14%{transform:translate(688px,32px)}41.81%{transform:translate(688px,64px)}42.14%{transform:translate(672px,64px)}42.47%{transform:translate(672px,80px)}43.14%{transform:translate(656px,96px)}43.48%{transform:translate(640px,96px)}45.48%{transform:translate(640px,0px)}47.49%{transform:translate(544px,0px)}47.83%{transform:translate(544px,16px)}53.51%,54.85%{transform:translate(272px,16px)}53.85%{transform:translate(272px,0px)}54.18%{transform:translate(256px,0px)}54.52%{transform:translate(256px,16px)}56.19%{transform:translate(288px,64px)}57.53%{transform:translate(256px,96px)}58.19%{transform:translate(256px,64px)}61.87%{transform:translate(80px,64px)}62.21%,96.99%{transform:translate(80px,80px)}67.22%{transform:translate(288px,48px)}67.89%{transform:translate(256px,48px)}68.23%{transform:translate(256px,32px)}71.24%{transform:translate(400px,32px)}71.91%{transform:translate(400px,64px)}74.58%{transform:translate(528px,64px)}75.92%{transform:translate(528px,0px)}80.27%{transform:translate(736px,0px)}80.6%{transform:translate(736px,16px)}81.94%{transform:translate(672px,16px)}82.61%{transform:translate(672px,48px)}83.95%{transform:translate(704px,80px)}97.99%{transform:translate(80px,32px)}98.66%{transform:translate(48px,32px)}}.s.s3{transform:translate(48px,-16px);animation-name:s3}</style><rect class="c" x="2" y="2" rx="2" ry="2"/><rect class="c" x="2" y="18" rx="2" ry="2"/><rect class="c" x="2" y="34" rx="2" ry="2"/><rect class="c" x="2" y="50" rx="2" ry="2"/><rect class="c" x="2" y="66" rx="2" ry="2"/><rect class="c" x="2" y="82" rx="2" ry="2"/><rect class="c" x="2" y="98" rx="2" ry="2"/><rect class="c" x="18" y="2" rx="2" ry="2"/><rect class="c" x="18" y="18" rx="2" ry="2"/><rect class="c" x="18" y="34" rx="2" ry="2"/><rect class="c" x="18" y="50" rx="2" ry="2"/><rect class="c" x="18" y="66" rx="2" ry="2"/><rect class="c" x="18" y="82" rx="2" ry="2"/><rect class="c" x="18" y="98" rx="2" ry="2"/><rect class="c" x="34" y="2" rx="2" ry="2"/><rect class="c" x="34" y="18" rx="2" ry="2"/><rect class="c" x="34" y="34" rx="2" ry="2"/><rect class="c" x="34" y="50" rx="2" ry="2"/><rect class="c" x="34" y="66" rx="2" ry="2"/><rect class="c" x="34" y="82" rx="2" ry="2"/><rect class="c" x="34" y="98" rx="2" ry="2"/><rect class="c" x="50" y="2" rx="2" ry="2"/><rect class="c" x="50" y="18" rx="2" ry="2"/><rect class="c" x="50" y="34" rx="2" ry="2"/><rect class="c" x="50" y="50" rx="2" ry="2"/><rect class="c" x="50" y="66" rx="2" ry="2"/><rect class="c" x="50" y="82" rx="2" ry="2"/><rect class="c" x="50" y="98" rx="2" ry="2"/><rect class="c" x="66" y="2" rx="2" ry="2"/><rect class="c" x="66" y="18" rx="2" ry="2"/><rect class="c" x="66" y="34" rx="2" ry="2"/><rect class="c" x="66" y="50" rx="2" ry="2"/><rect class="c" x="66" y="66" rx="2" ry="2"/><rect class="c" x="66" y="82" rx="2" ry="2"/><rect class="c" x="66" y="98" rx="2" ry="2"/><rect class="c" x="82" y="2" rx="2" ry="2"/><rect class="c" x="82" y="18" rx="2" ry="2"/><rect class="c" x="82" y="34" rx="2" ry="2"/><rect class="c" x="82" y="50" rx="2" ry="2"/><rect class="c" x="82" y="66" rx="2" ry="2"/><rect class="c c0" x="82" y="82" rx="2" ry="2"/><rect class="c" x="82" y="98" rx="2" ry="2"/><rect class="c" x="98" y="2" rx="2" ry="2"/><rect class="c" x="98" y="18" rx="2" ry="2"/><rect class="c" x="98" y="34" rx="2" ry="2"/><rect class="c" x="98" y="50" rx="2" ry="2"/><rect class="c c1" x="98" y="66" rx="2" ry="2"/><rect class="c" x="98" y="82" rx="2" ry="2"/><rect class="c" x="98" y="98" rx="2" ry="2"/><rect class="c" x="114" y="2" rx="2" ry="2"/><rect class="c" x="114" y="18" rx="2" ry="2"/><rect class="c" x="114" y="34" rx="2" ry="2"/><rect class="c" x="114" y="50" rx="2" ry="2"/><rect class="c" x="114" y="66" rx="2" ry="2"/><rect class="c" x="114" y="82" rx="2" ry="2"/><rect class="c" x="114" y="98" rx="2" ry="2"/><rect class="c" x="130" y="2" rx="2" ry="2"/><rect class="c" x="130" y="18" rx="2" ry="2"/><rect class="c" x="130" y="34" rx="2" ry="2"/><rect class="c" x="130" y="50" rx="2" ry="2"/><rect class="c" x="130" y="66" rx="2" ry="2"/><rect class="c" x="130" y="82" rx="2" ry="2"/><rect class="c" x="130" y="98" rx="2" ry="2"/><rect class="c" x="146" y="2" rx="2" ry="2"/><rect class="c" x="146" y="18" rx="2" ry="2"/><rect class="c" x="146" y="34" rx="2" ry="2"/><rect class="c" x="146" y="50" rx="2" ry="2"/><rect class="c" x="146" y="66" rx="2" ry="2"/><rect class="c" x="146" y="82" rx="2" ry="2"/><rect class="c" x="146" y="98" rx="2" ry="2"/><rect class="c" x="162" y="2" rx="2" ry="2"/><rect class="c" x="162" y="18" rx="2" ry="2"/><rect class="c" x="162" y="34" rx="2" ry="2"/><rect class="c" x="162" y="50" rx="2" ry="2"/><rect class="c" x="162" y="66" rx="2" ry="2"/><rect class="c" x="162" y="82" rx="2" ry="2"/><rect class="c" x="162" y="98" rx="2" ry="2"/><rect class="c" x="178" y="2" rx="2" ry="2"/><rect class="c" x="178" y="18" rx="2" ry="2"/><rect class="c" x="178" y="34" rx="2" ry="2"/><rect class="c" x="178" y="50" rx="2" ry="2"/><rect class="c" x="178" y="66" rx="2" ry="2"/><rect class="c" x="178" y="82" rx="2" ry="2"/><rect class="c" x="178" y="98" rx="2" ry="2"/><rect class="c" x="194" y="2" rx="2" ry="2"/><rect class="c" x="194" y="18" rx="2" ry="2"/><rect class="c" x="194" y="34" rx="2" ry="2"/><rect class="c" x="194" y="50" rx="2" ry="2"/><rect class="c" x="194" y="66" rx="2" ry="2"/><rect class="c" x="194" y="82" rx="2" ry="2"/><rect class="c" x="194" y="98" rx="2" ry="2"/><rect class="c" x="210" y="2" rx="2" ry="2"/><rect class="c" x="210" y="18" rx="2" ry="2"/><rect class="c" x="210" y="34" rx="2" ry="2"/><rect class="c" x="210" y="50" rx="2" ry="2"/><rect class="c" x="210" y="66" rx="2" ry="2"/><rect class="c" x="210" y="82" rx="2" ry="2"/><rect class="c" x="210" y="98" rx="2" ry="2"/><rect class="c" x="226" y="2" rx="2" ry="2"/><rect class="c" x="226" y="18" rx="2" ry="2"/><rect class="c" x="226" y="34" rx="2" ry="2"/><rect class="c" x="226" y="50" rx="2" ry="2"/><rect class="c" x="226" y="66" rx="2" ry="2"/><rect class="c" x="226" y="82" rx="2" ry="2"/><rect class="c" x="226" y="98" rx="2" ry="2"/><rect class="c" x="242" y="2" rx="2" ry="2"/><rect class="c" x="242" y="18" rx="2" ry="2"/><rect class="c" x="242" y="34" rx="2" ry="2"/><rect class="c" x="242" y="50" rx="2" ry="2"/><rect class="c" x="242" y="66" rx="2" ry="2"/><rect class="c" x="242" y="82" rx="2" ry="2"/><rect class="c" x="242" y="98" rx="2" ry="2"/><rect class="c c2" x="258" y="2" rx="2" ry="2"/><rect class="c c3" x="258" y="18" rx="2" ry="2"/><rect class="c c4" x="258" y="34" rx="2" ry="2"/><rect class="c c5" x="258" y="50" rx="2" ry="2"/><rect class="c c6" x="258" y="66" rx="2" ry="2"/><rect class="c c7" x="258" y="82" rx="2" ry="2"/><rect class="c" x="258" y="98" rx="2" ry="2"/><rect class="c c8" x="274" y="2" rx="2" ry="2"/><rect class="c c9" x="274" y="18" rx="2" ry="2"/><rect class="c ca" x="274" y="34" rx="2" ry="2"/><rect class="c cb" x="274" y="50" rx="2" ry="2"/><rect class="c cc" x="274" y="66" rx="2" ry="2"/><rect class="c cd" x="274" y="82" rx="2" ry="2"/><rect class="c ce" x="274" y="98" rx="2" ry="2"/><rect class="c" x="290" y="2" rx="2" ry="2"/><rect class="c cf" x="290" y="18" rx="2" ry="2"/><rect class="c cg" x="290" y="34" rx="2" ry="2"/><rect class="c ch" x="290" y="50" rx="2" ry="2"/><rect class="c ci" x="290" y="66" rx="2" ry="2"/><rect class="c cj" x="290" y="82" rx="2" ry="2"/><rect class="c" x="290" y="98" rx="2" ry="2"/><rect class="c" x="306" y="2" rx="2" ry="2"/><rect class="c" x="306" y="18" rx="2" ry="2"/><rect class="c" x="306" y="34" rx="2" ry="2"/><rect class="c" x="306" y="50" rx="2" ry="2"/><rect class="c" x="306" y="66" rx="2" ry="2"/><rect class="c" x="306" y="82" rx="2" ry="2"/><rect class="c" x="306" y="98" rx="2" ry="2"/><rect class="c" x="322" y="2" rx="2" ry="2"/><rect class="c" x="322" y="18" rx="2" ry="2"/><rect class="c" x="322" y="34" rx="2" ry="2"/><rect class="c" x="322" y="50" rx="2" ry="2"/><rect class="c" x="322" y="66" rx="2" ry="2"/><rect class="c" x="322" y="82" rx="2" ry="2"/><rect class="c" x="322" y="98" rx="2" ry="2"/><rect class="c" x="338" y="2" rx="2" ry="2"/><rect class="c" x="338" y="18" rx="2" ry="2"/><rect class="c" x="338" y="34" rx="2" ry="2"/><rect class="c" x="338" y="50" rx="2" ry="2"/><rect class="c" x="338" y="66" rx="2" ry="2"/><rect class="c" x="338" y="82" rx="2" ry="2"/><rect class="c" x="338" y="98" rx="2" ry="2"/><rect class="c" x="354" y="2" rx="2" ry="2"/><rect class="c" x="354" y="18" rx="2" ry="2"/><rect class="c" x="354" y="34" rx="2" ry="2"/><rect class="c" x="354" y="50" rx="2" ry="2"/><rect class="c" x="354" y="66" rx="2" ry="2"/><rect class="c" x="354" y="82" rx="2" ry="2"/><rect class="c" x="354" y="98" rx="2" ry="2"/><rect class="c" x="370" y="2" rx="2" ry="2"/><rect class="c" x="370" y="18" rx="2" ry="2"/><rect class="c" x="370" y="34" rx="2" ry="2"/><rect class="c" x="370" y="50" rx="2" ry="2"/><rect class="c" x="370" y="66" rx="2" ry="2"/><rect class="c" x="370" y="82" rx="2" ry="2"/><rect class="c" x="370" y="98" rx="2" ry="2"/><rect class="c" x="386" y="2" rx="2" ry="2"/><rect class="c" x="386" y="18" rx="2" ry="2"/><rect class="c" x="386" y="34" rx="2" ry="2"/><rect class="c" x="386" y="50" rx="2" ry="2"/><rect class="c" x="386" y="66" rx="2" ry="2"/><rect class="c" x="386" y="82" rx="2" ry="2"/><rect class="c" x="386" y="98" rx="2" ry="2"/><rect class="c" x="402" y="2" rx="2" ry="2"/><rect class="c ck" x="402" y="18" rx="2" ry="2"/><rect class="c" x="402" y="34" rx="2" ry="2"/><rect class="c" x="402" y="50" rx="2" ry="2"/><rect class="c cl" x="402" y="66" rx="2" ry="2"/><rect class="c" x="402" y="82" rx="2" ry="2"/><rect class="c" x="402" y="98" rx="2" ry="2"/><rect class="c" x="418" y="2" rx="2" ry="2"/><rect class="c" x="418" y="18" rx="2" ry="2"/><rect class="c" x="418" y="34" rx="2" ry="2"/><rect class="c" x="418" y="50" rx="2" ry="2"/><rect class="c" x="418" y="66" rx="2" ry="2"/><rect class="c" x="418" y="82" rx="2" ry="2"/><rect class="c cm" x="418" y="98" rx="2" ry="2"/><rect class="c" x="434" y="2" rx="2" ry="2"/><rect class="c cn" x="434" y="18" rx="2" ry="2"/><rect class="c co" x="434" y="34" rx="2" ry="2"/><rect class="c cp" x="434" y="50" rx="2" ry="2"/><rect class="c cq" x="434" y="66" rx="2" ry="2"/><rect class="c" x="434" y="82" rx="2" ry="2"/><rect class="c" x="434" y="98" rx="2" ry="2"/><rect class="c" x="450" y="2" rx="2" ry="2"/><rect class="c" x="450" y="18" rx="2" ry="2"/><rect class="c" x="450" y="34" rx="2" ry="2"/><rect class="c" x="450" y="50" rx="2" ry="2"/><rect class="c" x="450" y="66" rx="2" ry="2"/><rect class="c" x="450" y="82" rx="2" ry="2"/><rect class="c" x="450" y="98" rx="2" ry="2"/><rect class="c" x="466" y="2" rx="2" ry="2"/><rect class="c" x="466" y="18" rx="2" ry="2"/><rect class="c" x="466" y="34" rx="2" ry="2"/><rect class="c" x="466" y="50" rx="2" ry="2"/><rect class="c" x="466" y="66" rx="2" ry="2"/><rect class="c" x="466" y="82" rx="2" ry="2"/><rect class="c" x="466" y="98" rx="2" ry="2"/><rect class="c" x="482" y="2" rx="2" ry="2"/><rect class="c" x="482" y="18" rx="2" ry="2"/><rect class="c" x="482" y="34" rx="2" ry="2"/><rect class="c" x="482" y="50" rx="2" ry="2"/><rect class="c" x="482" y="66" rx="2" ry="2"/><rect class="c" x="482" y="82" rx="2" ry="2"/><rect class="c" x="482" y="98" rx="2" ry="2"/><rect class="c" x="498" y="2" rx="2" ry="2"/><rect class="c" x="498" y="18" rx="2" ry="2"/><rect class="c" x="498" y="34" rx="2" ry="2"/><rect class="c" x="498" y="50" rx="2" ry="2"/><rect class="c" x="498" y="66" rx="2" ry="2"/><rect class="c" x="498" y="82" rx="2" ry="2"/><rect class="c" x="498" y="98" rx="2" ry="2"/><rect class="c" x="514" y="2" rx="2" ry="2"/><rect class="c" x="514" y="18" rx="2" ry="2"/><rect class="c" x="514" y="34" rx="2" ry="2"/><rect class="c" x="514" y="50" rx="2" ry="2"/><rect class="c" x="514" y="66" rx="2" ry="2"/><rect class="c" x="514" y="82" rx="2" ry="2"/><rect class="c" x="514" y="98" rx="2" ry="2"/><rect class="c cr" x="530" y="2" rx="2" ry="2"/><rect class="c" x="530" y="18" rx="2" ry="2"/><rect class="c" x="530" y="34" rx="2" ry="2"/><rect class="c" x="530" y="50" rx="2" ry="2"/><rect class="c" x="530" y="66" rx="2" ry="2"/><rect class="c" x="530" y="82" rx="2" ry="2"/><rect class="c" x="530" y="98" rx="2" ry="2"/><rect class="c" x="546" y="2" rx="2" ry="2"/><rect class="c" x="546" y="18" rx="2" ry="2"/><rect class="c" x="546" y="34" rx="2" ry="2"/><rect class="c" x="546" y="50" rx="2" ry="2"/><rect class="c" x="546" y="66" rx="2" ry="2"/><rect class="c" x="546" y="82" rx="2" ry="2"/><rect class="c" x="546" y="98" rx="2" ry="2"/><rect class="c" x="562" y="2" rx="2" ry="2"/><rect class="c" x="562" y="18" rx="2" ry="2"/><rect class="c" x="562" y="34" rx="2" ry="2"/><rect class="c" x="562" y="50" rx="2" ry="2"/><rect class="c" x="562" y="66" rx="2" ry="2"/><rect class="c" x="562" y="82" rx="2" ry="2"/><rect class="c" x="562" y="98" rx="2" ry="2"/><rect class="c" x="578" y="2" rx="2" ry="2"/><rect class="c" x="578" y="18" rx="2" ry="2"/><rect class="c" x="578" y="34" rx="2" ry="2"/><rect class="c" x="578" y="50" rx="2" ry="2"/><rect class="c" x="578" y="66" rx="2" ry="2"/><rect class="c" x="578" y="82" rx="2" ry="2"/><rect class="c" x="578" y="98" rx="2" ry="2"/><rect class="c cs" x="594" y="2" rx="2" ry="2"/><rect class="c" x="594" y="18" rx="2" ry="2"/><rect class="c" x="594" y="34" rx="2" ry="2"/><rect class="c" x="594" y="50" rx="2" ry="2"/><rect class="c" x="594" y="66" rx="2" ry="2"/><rect class="c" x="594" y="82" rx="2" ry="2"/><rect class="c" x="594" y="98" rx="2" ry="2"/><rect class="c ct" x="610" y="2" rx="2" ry="2"/><rect class="c" x="610" y="18" rx="2" ry="2"/><rect class="c" x="610" y="34" rx="2" ry="2"/><rect class="c" x="610" y="50" rx="2" ry="2"/><rect class="c" x="610" y="66" rx="2" ry="2"/><rect class="c" x="610" y="82" rx="2" ry="2"/><rect class="c" x="610" y="98" rx="2" ry="2"/><rect class="c" x="626" y="2" rx="2" ry="2"/><rect class="c" x="626" y="18" rx="2" ry="2"/><rect class="c" x="626" y="34" rx="2" ry="2"/><rect class="c" x="626" y="50" rx="2" ry="2"/><rect class="c" x="626" y="66" rx="2" ry="2"/><rect class="c" x="626" y="82" rx="2" ry="2"/><rect class="c" x="626" y="98" rx="2" ry="2"/><rect class="c" x="642" y="2" rx="2" ry="2"/><rect class="c" x="642" y="18" rx="2" ry="2"/><rect class="c" x="642" y="34" rx="2" ry="2"/><rect class="c" x="642" y="50" rx="2" ry="2"/><rect class="c" x="642" y="66" rx="2" ry="2"/><rect class="c" x="642" y="82" rx="2" ry="2"/><rect class="c" x="642" y="98" rx="2" ry="2"/><rect class="c cu" x="658" y="2" rx="2" ry="2"/><rect class="c" x="658" y="18" rx="2" ry="2"/><rect class="c" x="658" y="34" rx="2" ry="2"/><rect class="c" x="658" y="50" rx="2" ry="2"/><rect class="c" x="658" y="66" rx="2" ry="2"/><rect class="c cv" x="658" y="82" rx="2" ry="2"/><rect class="c cw" x="658" y="98" rx="2" ry="2"/><rect class="c cx" x="674" y="2" rx="2" ry="2"/><rect class="c cy" x="674" y="18" rx="2" ry="2"/><rect class="c cz" x="674" y="34" rx="2" ry="2"/><rect class="c c10" x="674" y="50" rx="2" ry="2"/><rect class="c" x="674" y="66" rx="2" ry="2"/><rect class="c c11" x="674" y="82" rx="2" ry="2"/><rect class="c c12" x="674" y="98" rx="2" ry="2"/><rect class="c c13" x="690" y="2" rx="2" ry="2"/><rect class="c c14" x="690" y="18" rx="2" ry="2"/><rect class="c" x="690" y="34" rx="2" ry="2"/><rect class="c" x="690" y="50" rx="2" ry="2"/><rect class="c" x="690" y="66" rx="2" ry="2"/><rect class="c" x="690" y="82" rx="2" ry="2"/><rect class="c" x="690" y="98" rx="2" ry="2"/><rect class="c" x="706" y="2" rx="2" ry="2"/><rect class="c" x="706" y="18" rx="2" ry="2"/><rect class="c c15" x="706" y="34" rx="2" ry="2"/><rect class="c" x="706" y="50" rx="2" ry="2"/><rect class="c" x="706" y="66" rx="2" ry="2"/><rect class="c c16" x="706" y="82" rx="2" ry="2"/><rect class="c" x="706" y="98" rx="2" ry="2"/><rect class="c c17" x="722" y="2" rx="2" ry="2"/><rect class="c c18" x="722" y="18" rx="2" ry="2"/><rect class="c c19" x="722" y="34" rx="2" ry="2"/><rect class="c c1a" x="722" y="50" rx="2" ry="2"/><rect class="c c1b" x="722" y="66" rx="2" ry="2"/><rect class="c" x="722" y="82" rx="2" ry="2"/><rect class="c" x="722" y="98" rx="2" ry="2"/><rect class="c c1c" x="738" y="2" rx="2" ry="2"/><rect class="c c1d" x="738" y="18" rx="2" ry="2"/><rect class="c" x="738" y="34" rx="2" ry="2"/><rect class="c" x="738" y="50" rx="2" ry="2"/><rect class="c" x="738" y="66" rx="2" ry="2"/><rect class="c" x="738" y="82" rx="2" ry="2"/><rect class="c c1e" x="738" y="98" rx="2" ry="2"/><rect class="c c1f" x="754" y="2" rx="2" ry="2"/><rect class="c" x="754" y="18" rx="2" ry="2"/><rect class="c" x="754" y="34" rx="2" ry="2"/><rect class="c" x="754" y="50" rx="2" ry="2"/><rect class="c c1g" x="754" y="66" rx="2" ry="2"/><rect class="c" x="754" y="82" rx="2" ry="2"/><rect class="c" x="754" y="98" rx="2" ry="2"/><rect class="c" x="770" y="2" rx="2" ry="2"/><rect class="c" x="770" y="18" rx="2" ry="2"/><rect class="c" x="770" y="34" rx="2" ry="2"/><rect class="c" x="770" y="50" rx="2" ry="2"/><rect class="c" x="770" y="66" rx="2" ry="2"/><rect class="c" x="770" y="82" rx="2" ry="2"/><rect class="c" x="770" y="98" rx="2" ry="2"/><rect class="c" x="786" y="2" rx="2" ry="2"/><rect class="c" x="786" y="18" rx="2" ry="2"/><rect class="c" x="786" y="34" rx="2" ry="2"/><rect class="c" x="786" y="50" rx="2" ry="2"/><rect class="c" x="786" y="66" rx="2" ry="2"/><rect class="c" x="786" y="82" rx="2" ry="2"/><rect class="c" x="786" y="98" rx="2" ry="2"/><rect class="c" x="802" y="2" rx="2" ry="2"/><rect class="c" x="802" y="18" rx="2" ry="2"/><rect class="c c1h" x="802" y="34" rx="2" ry="2"/><rect class="c" x="802" y="50" rx="2" ry="2"/><rect class="c" x="802" y="66" rx="2" ry="2"/><rect class="c" x="802" y="82" rx="2" ry="2"/><rect class="c" x="802" y="98" rx="2" ry="2"/><rect class="c" x="818" y="2" rx="2" ry="2"/><rect class="c" x="818" y="18" rx="2" ry="2"/><rect class="c" x="818" y="34" rx="2" ry="2"/><rect class="c" x="818" y="50" rx="2" ry="2"/><rect class="c" x="818" y="66" rx="2" ry="2"/><rect class="c" x="818" y="82" rx="2" ry="2"/><rect class="c" x="818" y="98" rx="2" ry="2"/><rect class="c" x="834" y="2" rx="2" ry="2"/><rect class="u u0" height="12" width="487.4" x="0.0" y="144"/><rect class="u u1" height="12" width="173.3" x="486.8" y="144"/><rect class="u u2" height="12" width="126.2" x="659.6" y="144"/><rect class="u u3" height="12" width="63.4" x="785.2" y="144"/><rect class="s s0" x="0.8" y="0.8" width="14.4" height="14.4" rx="4.5" ry="4.5"/><rect class="s s1" x="1.8" y="1.8" width="12.3" height="12.3" rx="4.1" ry="4.1"/><rect class="s s2" x="2.6" y="2.6" width="10.8" height="10.8" rx="3.6" ry="3.6"/><rect class="s s3" x="3.0" y="3.0" width="9.9" height="9.9" rx="3.3" ry="3.3"/></svg>