<svg viewBox="-16 -32 880 192" width="880" height="192" xmlns="http://www.w3.org/2000/svg"><desc>Generated with https://github.com/Platane/snk</desc><style>:root{--cb:#1b1f230a;--cs:#7845ab;--ce:#ebedf0;--c0:#ebedf0;--c1:#9be9a8;--c2:#40c463;--c3:#30a14e;--c4:#216e39}.c{shape-rendering:geometricPrecision;fill:var(--ce);stroke-width:1px;stroke:var(--cb);animation:none 28500ms linear infinite;width:12px;height:12px}@keyframes c0{54.73%{fill:var(--c2)}54.75%,100%{fill:var(--ce)}}.c.c0{fill:var(--c2);animation-name:c0}@keyframes c1{54.38%{fill:var(--c2)}54.4%,100%{fill:var(--ce)}}.c.c1{fill:var(--c2);animation-name:c1}@keyframes c2{91.92%{fill:var(--c4)}91.94%,100%{fill:var(--ce)}}.c.c2{fill:var(--c4);animation-name:c2}@keyframes c3{57.53%{fill:var(--c3)}57.55%,100%{fill:var(--ce)}}.c.c3{fill:var(--c3);animation-name:c3}@keyframes c4{85.6%{fill:var(--c4)}85.62%,100%{fill:var(--ce)}}.c.c4{fill:var(--c4);animation-name:c4}@keyframes c5{66.31%{fill:var(--c3)}66.33%,100%{fill:var(--ce)}}.c.c5{fill:var(--c3);animation-name:c5}@keyframes c6{84.9%{fill:var(--c4)}84.92%,100%{fill:var(--ce)}}.c.c6{fill:var(--c4);animation-name:c6}@keyframes c7{84.55%{fill:var(--c4)}84.57%,100%{fill:var(--ce)}}.c.c7{fill:var(--c4);animation-name:c7}@keyframes c8{37.88%{fill:var(--c2)}37.9%,100%{fill:var(--ce)}}.c.c8{fill:var(--c2);animation-name:c8}@keyframes c9{61.39%{fill:var(--c3)}61.41%,100%{fill:var(--ce)}}.c.c9{fill:var(--c3);animation-name:c9}@keyframes ca{64.9%{fill:var(--c3)}64.92%,100%{fill:var(--ce)}}.c.ca{fill:var(--c3);animation-name:ca}@keyframes cb{64.55%{fill:var(--c3)}64.57%,100%{fill:var(--ce)}}.c.cb{fill:var(--c3);animation-name:cb}@keyframes cc{38.94%{fill:var(--c2)}38.96%,100%{fill:var(--ce)}}.c.cc{fill:var(--c2);animation-name:cc}@keyframes cd{38.59%{fill:var(--c1)}38.61%,100%{fill:var(--ce)}}.c.cd{fill:var(--c1);animation-name:cd}@keyframes ce{38.24%{fill:var(--c2)}38.26%,100%{fill:var(--ce)}}.c.ce{fill:var(--c2);animation-name:ce}@keyframes cf{87.71%{fill:var(--c4)}87.73%,100%{fill:var(--ce)}}.c.cf{fill:var(--c4);animation-name:cf}@keyframes cg{62.1%{fill:var(--c3)}62.12%,100%{fill:var(--ce)}}.c.cg{fill:var(--c3);animation-name:cg}@keyframes ch{11.57%{fill:var(--c1)}11.59%,100%{fill:var(--ce)}}.c.ch{fill:var(--c1);animation-name:ch}@keyframes ci{39.29%{fill:var(--c2)}39.31%,100%{fill:var(--ce)}}.c.ci{fill:var(--c2);animation-name:ci}@keyframes cj{83.85%{fill:var(--c4)}83.87%,100%{fill:var(--ce)}}.c.cj{fill:var(--c4);animation-name:cj}@keyframes ck{63.15%{fill:var(--c3)}63.17%,100%{fill:var(--ce)}}.c.ck{fill:var(--c3);animation-name:ck}@keyframes cl{13.67%{fill:var(--c1)}13.69%,100%{fill:var(--ce)}}.c.cl{fill:var(--c1);animation-name:cl}@keyframes cm{19.64%{fill:var(--c1)}19.66%,100%{fill:var(--ce)}}.c.cm{fill:var(--c1);animation-name:cm}@keyframes cn{81.04%{fill:var(--c4)}81.06%,100%{fill:var(--ce)}}.c.cn{fill:var(--c4);animation-name:cn}@keyframes co{43.5%{fill:var(--c2)}43.52%,100%{fill:var(--ce)}}.c.co{fill:var(--c2);animation-name:co}@keyframes cp{18.94%{fill:var(--c1)}18.96%,100%{fill:var(--ce)}}.c.cp{fill:var(--c1);animation-name:cp}@keyframes cq{18.59%{fill:var(--c1)}18.61%,100%{fill:var(--ce)}}.c.cq{fill:var(--c1);animation-name:cq}@keyframes cr{18.24%{fill:var(--c1)}18.26%,100%{fill:var(--ce)}}.c.cr{fill:var(--c1);animation-name:cr}@keyframes cs{17.88%{fill:var(--c1)}17.9%,100%{fill:var(--ce)}}.c.cs{fill:var(--c1);animation-name:cs}@keyframes ct{76.83%{fill:var(--c4)}76.85%,100%{fill:var(--ce)}}.c.ct{fill:var(--c4);animation-name:ct}@keyframes cu{75.43%{fill:var(--c3)}75.45%,100%{fill:var(--ce)}}.c.cu{fill:var(--c3);animation-name:cu}@keyframes cv{25.25%{fill:var(--c1)}25.27%,100%{fill:var(--ce)}}.c.cv{fill:var(--c1);animation-name:cv}@keyframes cw{26.31%{fill:var(--c1)}26.33%,100%{fill:var(--ce)}}.c.cw{fill:var(--c1);animation-name:cw}.u{transform-origin:0 0;transform:scale(0,1);animation:none linear 28500ms infinite}@keyframes u0{11.57%{transform:scale(0.000,1)}11.59%,13.67%{transform:scale(0.111,1)}13.69%,17.88%{transform:scale(0.222,1)}17.9%,18.24%{transform:scale(0.333,1)}18.26%,18.59%{transform:scale(0.444,1)}18.61%,18.94%{transform:scale(0.556,1)}18.96%,19.64%{transform:scale(0.667,1)}19.66%,25.25%{transform:scale(0.778,1)}25.27%,26.31%{transform:scale(0.889,1)}26.33%,100%{transform:scale(1.000,1)}}.u.u0{fill:var(--c1);animation-name:u0;transform-origin:0.0px 0}@keyframes u1{37.88%{transform:scale(0.000,1)}37.9%,38.24%{transform:scale(0.500,1)}38.26%,100%{transform:scale(1.000,1)}}.u.u1{fill:var(--c2);animation-name:u1;transform-origin:231.3px 0}@keyframes u2{38.59%{transform:scale(0.000,1)}38.61%,100%{transform:scale(1.000,1)}}.u.u2{fill:var(--c1);animation-name:u2;transform-origin:282.7px 0}@keyframes u3{38.94%{transform:scale(0.000,1)}38.96%,39.29%{transform:scale(0.200,1)}39.31%,43.5%{transform:scale(0.400,1)}43.52%,54.38%{transform:scale(0.600,1)}54.4%,54.73%{transform:scale(0.800,1)}54.75%,100%{transform:scale(1.000,1)}}.u.u3{fill:var(--c2);animation-name:u3;transform-origin:308.4px 0}@keyframes u4{57.53%{transform:scale(0.000,1)}57.55%,61.39%{transform:scale(0.125,1)}61.41%,62.1%{transform:scale(0.250,1)}62.12%,63.15%{transform:scale(0.375,1)}63.17%,64.55%{transform:scale(0.500,1)}64.57%,64.9%{transform:scale(0.625,1)}64.92%,66.31%{transform:scale(0.750,1)}66.33%,75.43%{transform:scale(0.875,1)}75.45%,100%{transform:scale(1.000,1)}}.u.u4{fill:var(--c3);animation-name:u4;transform-origin:436.8px 0}@keyframes u5{76.83%{transform:scale(0.000,1)}76.85%,81.04%{transform:scale(0.125,1)}81.06%,83.85%{transform:scale(0.250,1)}83.87%,84.55%{transform:scale(0.375,1)}84.57%,84.9%{transform:scale(0.500,1)}84.92%,85.6%{transform:scale(0.625,1)}85.62%,87.71%{transform:scale(0.750,1)}87.73%,91.92%{transform:scale(0.875,1)}91.94%,100%{transform:scale(1.000,1)}}.u.u5{fill:var(--c4);animation-name:u5;transform-origin:642.4px 0}.s{shape-rendering:geometricPrecision;fill:var(--cs);animation:none linear 28500ms infinite}@keyframes s0{0%,99.65%{transform:translate(0px,-16px)}0.35%{transform:translate(0px,-32px)}10.53%{transform:translate(464px,-32px)}11.58%,65.61%{transform:translate(464px,16px)}11.93%{transform:translate(480px,16px)}13.33%{transform:translate(480px,80px)}13.68%{transform:translate(464px,80px)}14.04%,46.32%,62.46%{transform:translate(464px,96px)}16.49%{transform:translate(576px,96px)}16.84%{transform:translate(576px,80px)}17.54%{transform:translate(608px,80px)}18.95%{transform:translate(608px,16px)}19.65%{transform:translate(576px,16px)}20%,79.65%{transform:translate(576px,0px)}22.46%{transform:translate(688px,0px)}22.81%{transform:translate(688px,-16px)}24.91%{transform:translate(784px,-16px)}25.26%{transform:translate(784px,0px)}26.32%{transform:translate(832px,0px)}26.67%{transform:translate(832px,-16px)}35.79%,67.37%{transform:translate(416px,-16px)}37.54%{transform:translate(416px,64px)}38.25%,63.51%{transform:translate(448px,64px)}38.95%{transform:translate(448px,32px)}42.11%{transform:translate(592px,32px)}43.51%{transform:translate(592px,96px)}46.67%{transform:translate(464px,112px)}47.37%{transform:translate(432px,112px)}47.72%,61.75%{transform:translate(432px,96px)}51.93%{transform:translate(240px,96px)}52.63%{transform:translate(240px,64px)}54.39%{transform:translate(160px,64px)}54.74%{transform:translate(160px,48px)}57.19%{transform:translate(272px,48px)}57.54%{transform:translate(272px,64px)}61.05%{transform:translate(432px,64px)}63.16%{transform:translate(464px,64px)}64.91%,85.96%{transform:translate(448px,0px)}65.26%{transform:translate(464px,0px)}66.67%{transform:translate(416px,16px)}75.09%{transform:translate(768px,-16px)}75.44%{transform:translate(768px,0px)}81.05%{transform:translate(576px,64px)}81.4%{transform:translate(560px,64px)}81.75%{transform:translate(560px,48px)}84.56%{transform:translate(432px,48px)}85.61%{transform:translate(432px,0px)}87.72%{transform:translate(448px,80px)}94.04%{transform:translate(160px,80px)}95.09%{transform:translate(160px,32px)}95.44%{transform:translate(144px,32px)}95.79%{transform:translate(144px,16px)}96.14%{transform:translate(128px,16px)}96.49%{transform:translate(128px,0px)}97.54%{transform:translate(80px,0px)}97.89%{transform:translate(80px,-16px)}}.s.s0{transform:translate(0px,-16px);animation-name:s0}@keyframes s1{0%,99.65%{transform:translate(16px,-16px)}0.35%{transform:translate(0px,-16px)}0.7%{transform:translate(0px,-32px)}10.88%{transform:translate(464px,-32px)}11.93%,65.96%{transform:translate(464px,16px)}12.28%{transform:translate(480px,16px)}13.68%{transform:translate(480px,80px)}14.04%{transform:translate(464px,80px)}14.39%,46.67%,62.81%{transform:translate(464px,96px)}16.84%{transform:translate(576px,96px)}17.19%{transform:translate(576px,80px)}17.89%{transform:translate(608px,80px)}19.3%{transform:translate(608px,16px)}20%{transform:translate(576px,16px)}20.35%,80%{transform:translate(576px,0px)}22.81%{transform:translate(688px,0px)}23.16%{transform:translate(688px,-16px)}25.26%{transform:translate(784px,-16px)}25.61%{transform:translate(784px,0px)}26.67%{transform:translate(832px,0px)}27.02%{transform:translate(832px,-16px)}36.14%,67.72%{transform:translate(416px,-16px)}37.89%{transform:translate(416px,64px)}38.6%,63.86%{transform:translate(448px,64px)}39.3%{transform:translate(448px,32px)}42.46%{transform:translate(592px,32px)}43.86%{transform:translate(592px,96px)}47.02%{transform:translate(464px,112px)}47.72%{transform:translate(432px,112px)}48.07%,62.11%{transform:translate(432px,96px)}52.28%{transform:translate(240px,96px)}52.98%{transform:translate(240px,64px)}54.74%{transform:translate(160px,64px)}55.09%{transform:translate(160px,48px)}57.54%{transform:translate(272px,48px)}57.89%{transform:translate(272px,64px)}61.4%{transform:translate(432px,64px)}63.51%{transform:translate(464px,64px)}65.26%,86.32%{transform:translate(448px,0px)}65.61%{transform:translate(464px,0px)}67.02%{transform:translate(416px,16px)}75.44%{transform:translate(768px,-16px)}75.79%{transform:translate(768px,0px)}81.4%{transform:translate(576px,64px)}81.75%{transform:translate(560px,64px)}82.11%{transform:translate(560px,48px)}84.91%{transform:translate(432px,48px)}85.96%{transform:translate(432px,0px)}88.07%{transform:translate(448px,80px)}94.39%{transform:translate(160px,80px)}95.44%{transform:translate(160px,32px)}95.79%{transform:translate(144px,32px)}96.14%{transform:translate(144px,16px)}96.49%{transform:translate(128px,16px)}96.84%{transform:translate(128px,0px)}97.89%{transform:translate(80px,0px)}98.25%{transform:translate(80px,-16px)}}.s.s1{transform:translate(16px,-16px);animation-name:s1}@keyframes s2{0%,99.65%{transform:translate(32px,-16px)}0.7%{transform:translate(0px,-16px)}1.05%{transform:translate(0px,-32px)}11.23%{transform:translate(464px,-32px)}12.28%,66.32%{transform:translate(464px,16px)}12.63%{transform:translate(480px,16px)}14.04%{transform:translate(480px,80px)}14.39%{transform:translate(464px,80px)}14.74%,47.02%,63.16%{transform:translate(464px,96px)}17.19%{transform:translate(576px,96px)}17.54%{transform:translate(576px,80px)}18.25%{transform:translate(608px,80px)}19.65%{transform:translate(608px,16px)}20.35%{transform:translate(576px,16px)}20.7%,80.35%{transform:translate(576px,0px)}23.16%{transform:translate(688px,0px)}23.51%{transform:translate(688px,-16px)}25.61%{transform:translate(784px,-16px)}25.96%{transform:translate(784px,0px)}27.02%{transform:translate(832px,0px)}27.37%{transform:translate(832px,-16px)}36.49%,68.07%{transform:translate(416px,-16px)}38.25%{transform:translate(416px,64px)}38.95%,64.21%{transform:translate(448px,64px)}39.65%{transform:translate(448px,32px)}42.81%{transform:translate(592px,32px)}44.21%{transform:translate(592px,96px)}47.37%{transform:translate(464px,112px)}48.07%{transform:translate(432px,112px)}48.42%,62.46%{transform:translate(432px,96px)}52.63%{transform:translate(240px,96px)}53.33%{transform:translate(240px,64px)}55.09%{transform:translate(160px,64px)}55.44%{transform:translate(160px,48px)}57.89%{transform:translate(272px,48px)}58.25%{transform:translate(272px,64px)}61.75%{transform:translate(432px,64px)}63.86%{transform:translate(464px,64px)}65.61%,86.67%{transform:translate(448px,0px)}65.96%{transform:translate(464px,0px)}67.37%{transform:translate(416px,16px)}75.79%{transform:translate(768px,-16px)}76.14%{transform:translate(768px,0px)}81.75%{transform:translate(576px,64px)}82.11%{transform:translate(560px,64px)}82.46%{transform:translate(560px,48px)}85.26%{transform:translate(432px,48px)}86.32%{transform:translate(432px,0px)}88.42%{transform:translate(448px,80px)}94.74%{transform:translate(160px,80px)}95.79%{transform:translate(160px,32px)}96.14%{transform:translate(144px,32px)}96.49%{transform:translate(144px,16px)}96.84%{transform:translate(128px,16px)}97.19%{transform:translate(128px,0px)}98.25%{transform:translate(80px,0px)}98.6%{transform:translate(80px,-16px)}}.s.s2{transform:translate(32px,-16px);animation-name:s2}@keyframes s3{0%,99.65%{transform:translate(48px,-16px)}1.05%{transform:translate(0px,-16px)}1.4%{transform:translate(0px,-32px)}11.58%{transform:translate(464px,-32px)}12.63%,66.67%{transform:translate(464px,16px)}12.98%{transform:translate(480px,16px)}14.39%{transform:translate(480px,80px)}14.74%{transform:translate(464px,80px)}15.09%,47.37%,63.51%{transform:translate(464px,96px)}17.54%{transform:translate(576px,96px)}17.89%{transform:translate(576px,80px)}18.6%{transform:translate(608px,80px)}20%{transform:translate(608px,16px)}20.7%{transform:translate(576px,16px)}21.05%,80.7%{transform:translate(576px,0px)}23.51%{transform:translate(688px,0px)}23.86%{transform:translate(688px,-16px)}25.96%{transform:translate(784px,-16px)}26.32%{transform:translate(784px,0px)}27.37%{transform:translate(832px,0px)}27.72%{transform:translate(832px,-16px)}36.84%,68.42%{transform:translate(416px,-16px)}38.6%{transform:translate(416px,64px)}39.3%,64.56%{transform:translate(448px,64px)}40%{transform:translate(448px,32px)}43.16%{transform:translate(592px,32px)}44.56%{transform:translate(592px,96px)}47.72%{transform:translate(464px,112px)}48.42%{transform:translate(432px,112px)}48.77%,62.81%{transform:translate(432px,96px)}52.98%{transform:translate(240px,96px)}53.68%{transform:translate(240px,64px)}55.44%{transform:translate(160px,64px)}55.79%{transform:translate(160px,48px)}58.25%{transform:translate(272px,48px)}58.6%{transform:translate(272px,64px)}62.11%{transform:translate(432px,64px)}64.21%{transform:translate(464px,64px)}65.96%,87.02%{transform:translate(448px,0px)}66.32%{transform:translate(464px,0px)}67.72%{transform:translate(416px,16px)}76.14%{transform:translate(768px,-16px)}76.49%{transform:translate(768px,0px)}82.11%{transform:translate(576px,64px)}82.46%{transform:translate(560px,64px)}82.81%{transform:translate(560px,48px)}85.61%{transform:translate(432px,48px)}86.67%{transform:translate(432px,0px)}88.77%{transform:translate(448px,80px)}95.09%{transform:translate(160px,80px)}96.14%{transform:translate(160px,32px)}96.49%{transform:translate(144px,32px)}96.84%{transform:translate(144px,16px)}97.19%{transform:translate(128px,16px)}97.54%{transform:translate(128px,0px)}98.6%{transform:translate(80px,0px)}98.95%{transform:translate(80px,-16px)}}.s.s3{transform:translate(48px,-16px);animation-name:s3}</style><rect class="c" x="2" y="2" rx="2" ry="2"/><rect class="c" x="2" y="18" rx="2" ry="2"/><rect class="c" x="2" y="34" rx="2" ry="2"/><rect class="c" x="2" y="50" rx="2" ry="2"/><rect class="c" x="2" y="66" rx="2" ry="2"/><rect class="c" x="2" y="82" rx="2" ry="2"/><rect class="c" x="2" y="98" rx="2" ry="2"/><rect class="c" x="18" y="2" rx="2" ry="2"/><rect class="c" x="18" y="18" rx="2" ry="2"/><rect class="c" x="18" y="34" rx="2" ry="2"/><rect class="c" x="18" y="50" rx="2" ry="2"/><rect class="c" x="18" y="66" rx="2" ry="2"/><rect class="c" x="18" y="82" rx="2" ry="2"/><rect class="c" x="18" y="98" rx="2" ry="2"/><rect class="c" x="34" y="2" rx="2" ry="2"/><rect class="c" x="34" y="18" rx="2" ry="2"/><rect class="c" x="34" y="34" rx="2" ry="2"/><rect class="c" x="34" y="50" rx="2" ry="2"/><rect class="c" x="34" y="66" rx="2" ry="2"/><rect class="c" x="34" y="82" rx="2" ry="2"/><rect class="c" x="34" y="98" rx="2" ry="2"/><rect class="c" x="50" y="2" rx="2" ry="2"/><rect class="c" x="50" y="18" rx="2" ry="2"/><rect class="c" x="50" y="34" rx="2" ry="2"/><rect class="c" x="50" y="50" rx="2" ry="2"/><rect class="c" x="50" y="66" rx="2" ry="2"/><rect class="c" x="50" y="82" rx="2" ry="2"/><rect class="c" x="50" y="98" rx="2" ry="2"/><rect class="c" x="66" y="2" rx="2" ry="2"/><rect class="c" x="66" y="18" rx="2" ry="2"/><rect class="c" x="66" y="34" rx="2" ry="2"/><rect class="c" x="66" y="50" rx="2" ry="2"/><rect class="c" x="66" y="66" rx="2" ry="2"/><rect class="c" x="66" y="82" rx="2" ry="2"/><rect class="c" x="66" y="98" rx="2" ry="2"/><rect class="c" x="82" y="2" rx="2" ry="2"/><rect class="c" x="82" y="18" rx="2" ry="2"/><rect class="c" x="82" y="34" rx="2" ry="2"/><rect class="c" x="82" y="50" rx="2" ry="2"/><rect class="c" x="82" y="66" rx="2" ry="2"/><rect class="c" x="82" y="82" rx="2" ry="2"/><rect class="c" x="82" y="98" rx="2" ry="2"/><rect class="c" x="98" y="2" rx="2" ry="2"/><rect class="c" x="98" y="18" rx="2" ry="2"/><rect class="c" x="98" y="34" rx="2" ry="2"/><rect class="c" x="98" y="50" rx="2" ry="2"/><rect class="c" x="98" y="66" rx="2" ry="2"/><rect class="c" x="98" y="82" rx="2" ry="2"/><rect class="c" x="98" y="98" rx="2" ry="2"/><rect class="c" x="114" y="2" rx="2" ry="2"/><rect class="c" x="114" y="18" rx="2" ry="2"/><rect class="c" x="114" y="34" rx="2" ry="2"/><rect class="c" x="114" y="50" rx="2" ry="2"/><rect class="c" x="114" y="66" rx="2" ry="2"/><rect class="c" x="114" y="82" rx="2" ry="2"/><rect class="c" x="114" y="98" rx="2" ry="2"/><rect class="c" x="130" y="2" rx="2" ry="2"/><rect class="c" x="130" y="18" rx="2" ry="2"/><rect class="c" x="130" y="34" rx="2" ry="2"/><rect class="c" x="130" y="50" rx="2" ry="2"/><rect class="c" x="130" y="66" rx="2" ry="2"/><rect class="c" x="130" y="82" rx="2" ry="2"/><rect class="c" x="130" y="98" rx="2" ry="2"/><rect class="c" x="146" y="2" rx="2" ry="2"/><rect class="c" x="146" y="18" rx="2" ry="2"/><rect class="c" x="146" y="34" rx="2" ry="2"/><rect class="c" x="146" y="50" rx="2" ry="2"/><rect class="c" x="146" y="66" rx="2" ry="2"/><rect class="c" x="146" y="82" rx="2" ry="2"/><rect class="c" x="146" y="98" rx="2" ry="2"/><rect class="c" x="162" y="2" rx="2" ry="2"/><rect class="c" x="162" y="18" rx="2" ry="2"/><rect class="c" x="162" y="34" rx="2" ry="2"/><rect class="c c0" x="162" y="50" rx="2" ry="2"/><rect class="c c1" x="162" y="66" rx="2" ry="2"/><rect class="c" x="162" y="82" rx="2" ry="2"/><rect class="c" x="162" y="98" rx="2" ry="2"/><rect class="c" x="178" y="2" rx="2" ry="2"/><rect class="c" x="178" y="18" rx="2" ry="2"/><rect class="c" x="178" y="34" rx="2" ry="2"/><rect class="c" x="178" y="50" rx="2" ry="2"/><rect class="c" x="178" y="66" rx="2" ry="2"/><rect class="c" x="178" y="82" rx="2" ry="2"/><rect class="c" x="178" y="98" rx="2" ry="2"/><rect class="c" x="194" y="2" rx="2" ry="2"/><rect class="c" x="194" y="18" rx="2" ry="2"/><rect class="c" x="194" y="34" rx="2" ry="2"/><rect class="c" x="194" y="50" rx="2" ry="2"/><rect class="c" x="194" y="66" rx="2" ry="2"/><rect class="c" x="194" y="82" rx="2" ry="2"/><rect class="c" x="194" y="98" rx="2" ry="2"/><rect class="c" x="210" y="2" rx="2" ry="2"/><rect class="c" x="210" y="18" rx="2" ry="2"/><rect class="c" x="210" y="34" rx="2" ry="2"/><rect class="c" x="210" y="50" rx="2" ry="2"/><rect class="c" x="210" y="66" rx="2" ry="2"/><rect class="c" x="210" y="82" rx="2" ry="2"/><rect class="c" x="210" y="98" rx="2" ry="2"/><rect class="c" x="226" y="2" rx="2" ry="2"/><rect class="c" x="226" y="18" rx="2" ry="2"/><rect class="c" x="226" y="34" rx="2" ry="2"/><rect class="c" x="226" y="50" rx="2" ry="2"/><rect class="c" x="226" y="66" rx="2" ry="2"/><rect class="c" x="226" y="82" rx="2" ry="2"/><rect class="c" x="226" y="98" rx="2" ry="2"/><rect class="c" x="242" y="2" rx="2" ry="2"/><rect class="c" x="242" y="18" rx="2" ry="2"/><rect class="c" x="242" y="34" rx="2" ry="2"/><rect class="c" x="242" y="50" rx="2" ry="2"/><rect class="c" x="242" y="66" rx="2" ry="2"/><rect class="c" x="242" y="82" rx="2" ry="2"/><rect class="c" x="242" y="98" rx="2" ry="2"/><rect class="c" x="258" y="2" rx="2" ry="2"/><rect class="c" x="258" y="18" rx="2" ry="2"/><rect class="c" x="258" y="34" rx="2" ry="2"/><rect class="c" x="258" y="50" rx="2" ry="2"/><rect class="c" x="258" y="66" rx="2" ry="2"/><rect class="c c2" x="258" y="82" rx="2" ry="2"/><rect class="c" x="258" y="98" rx="2" ry="2"/><rect class="c" x="274" y="2" rx="2" ry="2"/><rect class="c" x="274" y="18" rx="2" ry="2"/><rect class="c" x="274" y="34" rx="2" ry="2"/><rect class="c" x="274" y="50" rx="2" ry="2"/><rect class="c c3" x="274" y="66" rx="2" ry="2"/><rect class="c" x="274" y="82" rx="2" ry="2"/><rect class="c" x="274" y="98" rx="2" ry="2"/><rect class="c" x="290" y="2" rx="2" ry="2"/><rect class="c" x="290" y="18" rx="2" ry="2"/><rect class="c" x="290" y="34" rx="2" ry="2"/><rect class="c" x="290" y="50" rx="2" ry="2"/><rect class="c" x="290" y="66" rx="2" ry="2"/><rect class="c" x="290" y="82" rx="2" ry="2"/><rect class="c" x="290" y="98" rx="2" ry="2"/><rect class="c" x="306" y="2" rx="2" ry="2"/><rect class="c" x="306" y="18" rx="2" ry="2"/><rect class="c" x="306" y="34" rx="2" ry="2"/><rect class="c" x="306" y="50" rx="2" ry="2"/><rect class="c" x="306" y="66" rx="2" ry="2"/><rect class="c" x="306" y="82" rx="2" ry="2"/><rect class="c" x="306" y="98" rx="2" ry="2"/><rect class="c" x="322" y="2" rx="2" ry="2"/><rect class="c" x="322" y="18" rx="2" ry="2"/><rect class="c" x="322" y="34" rx="2" ry="2"/><rect class="c" x="322" y="50" rx="2" ry="2"/><rect class="c" x="322" y="66" rx="2" ry="2"/><rect class="c" x="322" y="82" rx="2" ry="2"/><rect class="c" x="322" y="98" rx="2" ry="2"/><rect class="c" x="338" y="2" rx="2" ry="2"/><rect class="c" x="338" y="18" rx="2" ry="2"/><rect class="c" x="338" y="34" rx="2" ry="2"/><rect class="c" x="338" y="50" rx="2" ry="2"/><rect class="c" x="338" y="66" rx="2" ry="2"/><rect class="c" x="338" y="82" rx="2" ry="2"/><rect class="c" x="338" y="98" rx="2" ry="2"/><rect class="c" x="354" y="2" rx="2" ry="2"/><rect class="c" x="354" y="18" rx="2" ry="2"/><rect class="c" x="354" y="34" rx="2" ry="2"/><rect class="c" x="354" y="50" rx="2" ry="2"/><rect class="c" x="354" y="66" rx="2" ry="2"/><rect class="c" x="354" y="82" rx="2" ry="2"/><rect class="c" x="354" y="98" rx="2" ry="2"/><rect class="c" x="370" y="2" rx="2" ry="2"/><rect class="c" x="370" y="18" rx="2" ry="2"/><rect class="c" x="370" y="34" rx="2" ry="2"/><rect class="c" x="370" y="50" rx="2" ry="2"/><rect class="c" x="370" y="66" rx="2" ry="2"/><rect class="c" x="370" y="82" rx="2" ry="2"/><rect class="c" x="370" y="98" rx="2" ry="2"/><rect class="c" x="386" y="2" rx="2" ry="2"/><rect class="c" x="386" y="18" rx="2" ry="2"/><rect class="c" x="386" y="34" rx="2" ry="2"/><rect class="c" x="386" y="50" rx="2" ry="2"/><rect class="c" x="386" y="66" rx="2" ry="2"/><rect class="c" x="386" y="82" rx="2" ry="2"/><rect class="c" x="386" y="98" rx="2" ry="2"/><rect class="c" x="402" y="2" rx="2" ry="2"/><rect class="c" x="402" y="18" rx="2" ry="2"/><rect class="c" x="402" y="34" rx="2" ry="2"/><rect class="c" x="402" y="50" rx="2" ry="2"/><rect class="c" x="402" y="66" rx="2" ry="2"/><rect class="c" x="402" y="82" rx="2" ry="2"/><rect class="c" x="402" y="98" rx="2" ry="2"/><rect class="c" x="418" y="2" rx="2" ry="2"/><rect class="c" x="418" y="18" rx="2" ry="2"/><rect class="c" x="418" y="34" rx="2" ry="2"/><rect class="c" x="418" y="50" rx="2" ry="2"/><rect class="c" x="418" y="66" rx="2" ry="2"/><rect class="c" x="418" y="82" rx="2" ry="2"/><rect class="c" x="418" y="98" rx="2" ry="2"/><rect class="c c4" x="434" y="2" rx="2" ry="2"/><rect class="c c5" x="434" y="18" rx="2" ry="2"/><rect class="c c6" x="434" y="34" rx="2" ry="2"/><rect class="c c7" x="434" y="50" rx="2" ry="2"/><rect class="c c8" x="434" y="66" rx="2" ry="2"/><rect class="c c9" x="434" y="82" rx="2" ry="2"/><rect class="c" x="434" y="98" rx="2" ry="2"/><rect class="c ca" x="450" y="2" rx="2" ry="2"/><rect class="c cb" x="450" y="18" rx="2" ry="2"/><rect class="c cc" x="450" y="34" rx="2" ry="2"/><rect class="c cd" x="450" y="50" rx="2" ry="2"/><rect class="c ce" x="450" y="66" rx="2" ry="2"/><rect class="c cf" x="450" y="82" rx="2" ry="2"/><rect class="c cg" x="450" y="98" rx="2" ry="2"/><rect class="c" x="466" y="2" rx="2" ry="2"/><rect class="c ch" x="466" y="18" rx="2" ry="2"/><rect class="c ci" x="466" y="34" rx="2" ry="2"/><rect class="c cj" x="466" y="50" rx="2" ry="2"/><rect class="c ck" x="466" y="66" rx="2" ry="2"/><rect class="c cl" x="466" y="82" rx="2" ry="2"/><rect class="c" x="466" y="98" rx="2" ry="2"/><rect class="c" x="482" y="2" rx="2" ry="2"/><rect class="c" x="482" y="18" rx="2" ry="2"/><rect class="c" x="482" y="34" rx="2" ry="2"/><rect class="c" x="482" y="50" rx="2" ry="2"/><rect class="c" x="482" y="66" rx="2" ry="2"/><rect class="c" x="482" y="82" rx="2" ry="2"/><rect class="c" x="482" y="98" rx="2" ry="2"/><rect class="c" x="498" y="2" rx="2" ry="2"/><rect class="c" x="498" y="18" rx="2" ry="2"/><rect class="c" x="498" y="34" rx="2" ry="2"/><rect class="c" x="498" y="50" rx="2" ry="2"/><rect class="c" x="498" y="66" rx="2" ry="2"/><rect class="c" x="498" y="82" rx="2" ry="2"/><rect class="c" x="498" y="98" rx="2" ry="2"/><rect class="c" x="514" y="2" rx="2" ry="2"/><rect class="c" x="514" y="18" rx="2" ry="2"/><rect class="c" x="514" y="34" rx="2" ry="2"/><rect class="c" x="514" y="50" rx="2" ry="2"/><rect class="c" x="514" y="66" rx="2" ry="2"/><rect class="c" x="514" y="82" rx="2" ry="2"/><rect class="c" x="514" y="98" rx="2" ry="2"/><rect class="c" x="530" y="2" rx="2" ry="2"/><rect class="c" x="530" y="18" rx="2" ry="2"/><rect class="c" x="530" y="34" rx="2" ry="2"/><rect class="c" x="530" y="50" rx="2" ry="2"/><rect class="c" x="530" y="66" rx="2" ry="2"/><rect class="c" x="530" y="82" rx="2" ry="2"/><rect class="c" x="530" y="98" rx="2" ry="2"/><rect class="c" x="546" y="2" rx="2" ry="2"/><rect class="c" x="546" y="18" rx="2" ry="2"/><rect class="c" x="546" y="34" rx="2" ry="2"/><rect class="c" x="546" y="50" rx="2" ry="2"/><rect class="c" x="546" y="66" rx="2" ry="2"/><rect class="c" x="546" y="82" rx="2" ry="2"/><rect class="c" x="546" y="98" rx="2" ry="2"/><rect class="c" x="562" y="2" rx="2" ry="2"/><rect class="c" x="562" y="18" rx="2" ry="2"/><rect class="c" x="562" y="34" rx="2" ry="2"/><rect class="c" x="562" y="50" rx="2" ry="2"/><rect class="c" x="562" y="66" rx="2" ry="2"/><rect class="c" x="562" y="82" rx="2" ry="2"/><rect class="c" x="562" y="98" rx="2" ry="2"/><rect class="c" x="578" y="2" rx="2" ry="2"/><rect class="c cm" x="578" y="18" rx="2" ry="2"/><rect class="c" x="578" y="34" rx="2" ry="2"/><rect class="c" x="578" y="50" rx="2" ry="2"/><rect class="c cn" x="578" y="66" rx="2" ry="2"/><rect class="c" x="578" y="82" rx="2" ry="2"/><rect class="c" x="578" y="98" rx="2" ry="2"/><rect class="c" x="594" y="2" rx="2" ry="2"/><rect class="c" x="594" y="18" rx="2" ry="2"/><rect class="c" x="594" y="34" rx="2" ry="2"/><rect class="c" x="594" y="50" rx="2" ry="2"/><rect class="c" x="594" y="66" rx="2" ry="2"/><rect class="c" x="594" y="82" rx="2" ry="2"/><rect class="c co" x="594" y="98" rx="2" ry="2"/><rect class="c" x="610" y="2" rx="2" ry="2"/><rect class="c cp" x="610" y="18" rx="2" ry="2"/><rect class="c cq" x="610" y="34" rx="2" ry="2"/><rect class="c cr" x="610" y="50" rx="2" ry="2"/><rect class="c cs" x="610" y="66" rx="2" ry="2"/><rect class="c" x="610" y="82" rx="2" ry="2"/><rect class="c" x="610" y="98" rx="2" ry="2"/><rect class="c" x="626" y="2" rx="2" ry="2"/><rect class="c" x="626" y="18" rx="2" ry="2"/><rect class="c" x="626" y="34" rx="2" ry="2"/><rect class="c" x="626" y="50" rx="2" ry="2"/><rect class="c" x="626" y="66" rx="2" ry="2"/><rect class="c" x="626" y="82" rx="2" ry="2"/><rect class="c" x="626" y="98" rx="2" ry="2"/><rect class="c" x="642" y="2" rx="2" ry="2"/><rect class="c" x="642" y="18" rx="2" ry="2"/><rect class="c" x="642" y="34" rx="2" ry="2"/><rect class="c" x="642" y="50" rx="2" ry="2"/><rect class="c" x="642" y="66" rx="2" ry="2"/><rect class="c" x="642" y="82" rx="2" ry="2"/><rect class="c" x="642" y="98" rx="2" ry="2"/><rect class="c" x="658" y="2" rx="2" ry="2"/><rect class="c" x="658" y="18" rx="2" ry="2"/><rect class="c" x="658" y="34" rx="2" ry="2"/><rect class="c" x="658" y="50" rx="2" ry="2"/><rect class="c" x="658" y="66" rx="2" ry="2"/><rect class="c" x="658" y="82" rx="2" ry="2"/><rect class="c" x="658" y="98" rx="2" ry="2"/><rect class="c" x="674" y="2" rx="2" ry="2"/><rect class="c" x="674" y="18" rx="2" ry="2"/><rect class="c" x="674" y="34" rx="2" ry="2"/><rect class="c" x="674" y="50" rx="2" ry="2"/><rect class="c" x="674" y="66" rx="2" ry="2"/><rect class="c" x="674" y="82" rx="2" ry="2"/><rect class="c" x="674" y="98" rx="2" ry="2"/><rect class="c" x="690" y="2" rx="2" ry="2"/><rect class="c" x="690" y="18" rx="2" ry="2"/><rect class="c" x="690" y="34" rx="2" ry="2"/><rect class="c" x="690" y="50" rx="2" ry="2"/><rect class="c" x="690" y="66" rx="2" ry="2"/><rect class="c" x="690" y="82" rx="2" ry="2"/><rect class="c" x="690" y="98" rx="2" ry="2"/><rect class="c ct" x="706" y="2" rx="2" ry="2"/><rect class="c" x="706" y="18" rx="2" ry="2"/><rect class="c" x="706" y="34" rx="2" ry="2"/><rect class="c" x="706" y="50" rx="2" ry="2"/><rect class="c" x="706" y="66" rx="2" ry="2"/><rect class="c" x="706" y="82" rx="2" ry="2"/><rect class="c" x="706" y="98" rx="2" ry="2"/><rect class="c" x="722" y="2" rx="2" ry="2"/><rect class="c" x="722" y="18" rx="2" ry="2"/><rect class="c" x="722" y="34" rx="2" ry="2"/><rect class="c" x="722" y="50" rx="2" ry="2"/><rect class="c" x="722" y="66" rx="2" ry="2"/><rect class="c" x="722" y="82" rx="2" ry="2"/><rect class="c" x="722" y="98" rx="2" ry="2"/><rect class="c" x="738" y="2" rx="2" ry="2"/><rect class="c" x="738" y="18" rx="2" ry="2"/><rect class="c" x="738" y="34" rx="2" ry="2"/><rect class="c" x="738" y="50" rx="2" ry="2"/><rect class="c" x="738" y="66" rx="2" ry="2"/><rect class="c" x="738" y="82" rx="2" ry="2"/><rect class="c" x="738" y="98" rx="2" ry="2"/><rect class="c" x="754" y="2" rx="2" ry="2"/><rect class="c" x="754" y="18" rx="2" ry="2"/><rect class="c" x="754" y="34" rx="2" ry="2"/><rect class="c" x="754" y="50" rx="2" ry="2"/><rect class="c" x="754" y="66" rx="2" ry="2"/><rect class="c" x="754" y="82" rx="2" ry="2"/><rect class="c" x="754" y="98" rx="2" ry="2"/><rect class="c cu" x="770" y="2" rx="2" ry="2"/><rect class="c" x="770" y="18" rx="2" ry="2"/><rect class="c" x="770" y="34" rx="2" ry="2"/><rect class="c" x="770" y="50" rx="2" ry="2"/><rect class="c" x="770" y="66" rx="2" ry="2"/><rect class="c" x="770" y="82" rx="2" ry="2"/><rect class="c" x="770" y="98" rx="2" ry="2"/><rect class="c cv" x="786" y="2" rx="2" ry="2"/><rect class="c" x="786" y="18" rx="2" ry="2"/><rect class="c" x="786" y="34" rx="2" ry="2"/><rect class="c" x="786" y="50" rx="2" ry="2"/><rect class="c" x="786" y="66" rx="2" ry="2"/><rect class="c" x="786" y="82" rx="2" ry="2"/><rect class="c" x="786" y="98" rx="2" ry="2"/><rect class="c" x="802" y="2" rx="2" ry="2"/><rect class="c" x="802" y="18" rx="2" ry="2"/><rect class="c" x="802" y="34" rx="2" ry="2"/><rect class="c" x="802" y="50" rx="2" ry="2"/><rect class="c" x="802" y="66" rx="2" ry="2"/><rect class="c" x="802" y="82" rx="2" ry="2"/><rect class="c" x="802" y="98" rx="2" ry="2"/><rect class="c" x="818" y="2" rx="2" ry="2"/><rect class="c" x="818" y="18" rx="2" ry="2"/><rect class="c" x="818" y="34" rx="2" ry="2"/><rect class="c" x="818" y="50" rx="2" ry="2"/><rect class="c" x="818" y="66" rx="2" ry="2"/><rect class="c" x="818" y="82" rx="2" ry="2"/><rect class="c" x="818" y="98" rx="2" ry="2"/><rect class="c cw" x="834" y="2" rx="2" ry="2"/><rect class="c" x="834" y="18" rx="2" ry="2"/><rect class="c" x="834" y="34" rx="2" ry="2"/><rect class="c" x="834" y="50" rx="2" ry="2"/><rect class="c" x="834" y="66" rx="2" ry="2"/><rect class="c" x="834" y="82" rx="2" ry="2"/><rect class="u u0" height="12" width="231.9" x="0.0" y="144"/><rect class="u u1" height="12" width="52.0" x="231.3" y="144"/><rect class="u u2" height="12" width="26.3" x="282.7" y="144"/><rect class="u u3" height="12" width="129.1" x="308.4" y="144"/><rect class="u u4" height="12" width="206.2" x="436.8" y="144"/><rect class="u u5" height="12" width="206.2" x="642.4" y="144"/><rect class="s s0" x="0.8" y="0.8" width="14.4" height="14.4" rx="4.5" ry="4.5"/><rect class="s s1" x="1.8" y="1.8" width="12.3" height="12.3" rx="4.1" ry="4.1"/><rect class="s s2" x="2.6" y="2.6" width="10.8" height="10.8" rx="3.6" ry="3.6"/><rect class="s s3" x="3.0" y="3.0" width="9.9" height="9.9" rx="3.3" ry="3.3"/></svg>