<svg viewBox="-16 -32 880 192" width="880" height="192" xmlns="http://www.w3.org/2000/svg"><desc>Generated with https://github.com/Platane/snk</desc><style>:root{--cb:#1b1f230a;--cs:#7845ab;--ce:#ebedf0;--c0:#ebedf0;--c1:#9be9a8;--c2:#40c463;--c3:#30a14e;--c4:#216e39}.c{shape-rendering:geometricPrecision;fill:var(--ce);stroke-width:1px;stroke:var(--cb);animation:none 18900ms linear infinite;width:12px;height:12px}@keyframes c0{1.05%{fill:var(--c1)}1.07%,100%{fill:var(--ce)}}.c.c0{fill:var(--c1);animation-name:c0}@keyframes c1{3.16%{fill:var(--c1)}3.18%,100%{fill:var(--ce)}}.c.c1{fill:var(--c1);animation-name:c1}@keyframes c2{4.22%{fill:var(--c1)}4.24%,100%{fill:var(--ce)}}.c.c2{fill:var(--c1);animation-name:c2}@keyframes c3{2.11%{fill:var(--c1)}2.13%,100%{fill:var(--ce)}}.c.c3{fill:var(--c1);animation-name:c3}@keyframes c4{12.16%{fill:var(--c1)}12.18%,100%{fill:var(--ce)}}.c.c4{fill:var(--c1);animation-name:c4}@keyframes c5{76.18%{fill:var(--c2)}76.2%,100%{fill:var(--ce)}}.c.c5{fill:var(--c2);animation-name:c5}@keyframes c6{75.12%{fill:var(--c2)}75.14%,100%{fill:var(--ce)}}.c.c6{fill:var(--c2);animation-name:c6}@keyframes c7{85.18%{fill:var(--c3)}85.2%,100%{fill:var(--ce)}}.c.c7{fill:var(--c3);animation-name:c7}@keyframes c8{88.88%{fill:var(--c4)}88.9%,100%{fill:var(--ce)}}.c.c8{fill:var(--c4);animation-name:c8}@keyframes c9{14.28%{fill:var(--c1)}14.3%,100%{fill:var(--ce)}}.c.c9{fill:var(--c1);animation-name:c9}@keyframes ca{13.75%{fill:var(--c1)}13.77%,100%{fill:var(--ce)}}.c.ca{fill:var(--c1);animation-name:ca}@keyframes cb{20.62%{fill:var(--c1)}20.64%,100%{fill:var(--ce)}}.c.cb{fill:var(--c1);animation-name:cb}@keyframes cc{21.15%{fill:var(--c1)}21.17%,100%{fill:var(--ce)}}.c.cc{fill:var(--c1);animation-name:cc}@keyframes cd{88.35%{fill:var(--c4)}88.37%,100%{fill:var(--ce)}}.c.cd{fill:var(--c4);animation-name:cd}@keyframes ce{14.8%{fill:var(--c1)}14.82%,100%{fill:var(--ce)}}.c.ce{fill:var(--c1);animation-name:ce}@keyframes cf{87.29%{fill:var(--c4)}87.31%,100%{fill:var(--ce)}}.c.cf{fill:var(--c4);animation-name:cf}@keyframes cg{20.1%{fill:var(--c1)}20.12%,100%{fill:var(--ce)}}.c.cg{fill:var(--c1);animation-name:cg}@keyframes ch{73.53%{fill:var(--c2)}73.55%,100%{fill:var(--ce)}}.c.ch{fill:var(--c2);animation-name:ch}@keyframes ci{16.92%{fill:var(--c1)}16.94%,100%{fill:var(--ce)}}.c.ci{fill:var(--c1);animation-name:ci}@keyframes cj{17.45%{fill:var(--c1)}17.47%,100%{fill:var(--ce)}}.c.cj{fill:var(--c1);animation-name:cj}@keyframes ck{19.04%{fill:var(--c1)}19.06%,100%{fill:var(--ce)}}.c.ck{fill:var(--c1);animation-name:ck}@keyframes cl{27.5%{fill:var(--c1)}27.52%,100%{fill:var(--ce)}}.c.cl{fill:var(--c1);animation-name:cl}@keyframes cm{80.94%{fill:var(--c2)}80.96%,100%{fill:var(--ce)}}.c.cm{fill:var(--c2);animation-name:cm}@keyframes cn{15.86%{fill:var(--c1)}15.88%,100%{fill:var(--ce)}}.c.cn{fill:var(--c1);animation-name:cn}@keyframes co{16.39%{fill:var(--c1)}16.41%,100%{fill:var(--ce)}}.c.co{fill:var(--c1);animation-name:co}@keyframes cp{17.98%{fill:var(--c1)}18%,100%{fill:var(--ce)}}.c.cp{fill:var(--c1);animation-name:cp}@keyframes cq{18.51%{fill:var(--c1)}18.53%,100%{fill:var(--ce)}}.c.cq{fill:var(--c1);animation-name:cq}@keyframes cr{23.8%{fill:var(--c1)}23.82%,100%{fill:var(--ce)}}.c.cr{fill:var(--c1);animation-name:cr}@keyframes cs{36.5%{fill:var(--c1)}36.52%,100%{fill:var(--ce)}}.c.cs{fill:var(--c1);animation-name:cs}@keyframes ct{37.03%{fill:var(--c1)}37.05%,100%{fill:var(--ce)}}.c.ct{fill:var(--c1);animation-name:ct}@keyframes cu{41.79%{fill:var(--c1)}41.81%,100%{fill:var(--ce)}}.c.cu{fill:var(--c1);animation-name:cu}@keyframes cv{40.73%{fill:var(--c1)}40.75%,100%{fill:var(--ce)}}.c.cv{fill:var(--c1);animation-name:cv}@keyframes cw{52.37%{fill:var(--c1)}52.39%,100%{fill:var(--ce)}}.c.cw{fill:var(--c1);animation-name:cw}@keyframes cx{52.9%{fill:var(--c1)}52.92%,100%{fill:var(--ce)}}.c.cx{fill:var(--c1);animation-name:cx}@keyframes cy{53.43%{fill:var(--c1)}53.45%,100%{fill:var(--ce)}}.c.cy{fill:var(--c1);animation-name:cy}@keyframes cz{53.96%{fill:var(--c1)}53.98%,100%{fill:var(--ce)}}.c.cz{fill:var(--c1);animation-name:cz}@keyframes c10{48.14%{fill:var(--c1)}48.16%,100%{fill:var(--ce)}}.c.c10{fill:var(--c1);animation-name:c10}@keyframes c11{55.02%{fill:var(--c1)}55.04%,100%{fill:var(--ce)}}.c.c11{fill:var(--c1);animation-name:c11}@keyframes c12{51.84%{fill:var(--c1)}51.86%,100%{fill:var(--ce)}}.c.c12{fill:var(--c1);animation-name:c12}@keyframes c13{51.31%{fill:var(--c1)}51.33%,100%{fill:var(--ce)}}.c.c13{fill:var(--c1);animation-name:c13}@keyframes c14{49.73%{fill:var(--c1)}49.75%,100%{fill:var(--ce)}}.c.c14{fill:var(--c1);animation-name:c14}@keyframes c15{49.2%{fill:var(--c1)}49.22%,100%{fill:var(--ce)}}.c.c15{fill:var(--c1);animation-name:c15}@keyframes c16{48.67%{fill:var(--c1)}48.69%,100%{fill:var(--ce)}}.c.c16{fill:var(--c1);animation-name:c16}@keyframes c17{55.55%{fill:var(--c1)}55.57%,100%{fill:var(--ce)}}.c.c17{fill:var(--c1);animation-name:c17}@keyframes c18{56.07%{fill:var(--c1)}56.09%,100%{fill:var(--ce)}}.c.c18{fill:var(--c1);animation-name:c18}@keyframes c19{50.78%{fill:var(--c1)}50.8%,100%{fill:var(--ce)}}.c.c19{fill:var(--c1);animation-name:c19}@keyframes c1a{50.25%{fill:var(--c1)}50.27%,100%{fill:var(--ce)}}.c.c1a{fill:var(--c1);animation-name:c1a}.u{transform-origin:0 0;transform:scale(0,1);animation:none linear 18900ms infinite}@keyframes u0{1.05%{transform:scale(0.000,1)}1.07%,2.11%{transform:scale(0.026,1)}2.13%,3.16%{transform:scale(0.051,1)}3.18%,4.22%{transform:scale(0.077,1)}4.24%,12.16%{transform:scale(0.103,1)}12.18%,13.75%{transform:scale(0.128,1)}13.77%,14.28%{transform:scale(0.154,1)}14.3%,14.8%{transform:scale(0.179,1)}14.82%,15.86%{transform:scale(0.205,1)}15.88%,16.39%{transform:scale(0.231,1)}16.41%,16.92%{transform:scale(0.256,1)}16.94%,17.45%{transform:scale(0.282,1)}17.47%,17.98%{transform:scale(0.308,1)}18%,18.51%{transform:scale(0.333,1)}18.53%,19.04%{transform:scale(0.359,1)}19.06%,20.1%{transform:scale(0.385,1)}20.12%,20.62%{transform:scale(0.410,1)}20.64%,21.15%{transform:scale(0.436,1)}21.17%,23.8%{transform:scale(0.462,1)}23.82%,27.5%{transform:scale(0.487,1)}27.52%,36.5%{transform:scale(0.513,1)}36.52%,37.03%{transform:scale(0.538,1)}37.05%,40.73%{transform:scale(0.564,1)}40.75%,41.79%{transform:scale(0.590,1)}41.81%,48.14%{transform:scale(0.615,1)}48.16%,48.67%{transform:scale(0.641,1)}48.69%,49.2%{transform:scale(0.667,1)}49.22%,49.73%{transform:scale(0.692,1)}49.75%,50.25%{transform:scale(0.718,1)}50.27%,50.78%{transform:scale(0.744,1)}50.8%,51.31%{transform:scale(0.769,1)}51.33%,51.84%{transform:scale(0.795,1)}51.86%,52.37%{transform:scale(0.821,1)}52.39%,52.9%{transform:scale(0.846,1)}52.92%,53.43%{transform:scale(0.872,1)}53.45%,53.96%{transform:scale(0.897,1)}53.98%,55.02%{transform:scale(0.923,1)}55.04%,55.55%{transform:scale(0.949,1)}55.57%,56.07%{transform:scale(0.974,1)}56.09%,100%{transform:scale(1.000,1)}}.u.u0{fill:var(--c1);animation-name:u0;transform-origin:0.0px 0}@keyframes u1{73.53%{transform:scale(0.000,1)}73.55%,75.12%{transform:scale(0.250,1)}75.14%,76.18%{transform:scale(0.500,1)}76.2%,80.94%{transform:scale(0.750,1)}80.96%,100%{transform:scale(1.000,1)}}.u.u1{fill:var(--c2);animation-name:u1;transform-origin:703.7px 0}@keyframes u2{85.18%{transform:scale(0.000,1)}85.2%,100%{transform:scale(1.000,1)}}.u.u2{fill:var(--c3);animation-name:u2;transform-origin:775.8px 0}@keyframes u3{87.29%{transform:scale(0.000,1)}87.31%,88.35%{transform:scale(0.333,1)}88.37%,88.88%{transform:scale(0.667,1)}88.9%,100%{transform:scale(1.000,1)}}.u.u3{fill:var(--c4);animation-name:u3;transform-origin:793.9px 0}.s{shape-rendering:geometricPrecision;fill:var(--cs);animation:none linear 18900ms infinite}@keyframes s0{0%,99.47%{transform:translate(0px,-16px)}1.06%{transform:translate(0px,16px)}2.12%{transform:translate(32px,16px)}2.65%{transform:translate(32px,32px)}3.17%{transform:translate(16px,32px)}4.23%{transform:translate(16px,64px)}11.11%{transform:translate(224px,64px)}11.64%{transform:translate(224px,48px)}13.76%,78.31%{transform:translate(288px,48px)}14.29%,78.84%{transform:translate(288px,32px)}15.87%,80.42%{transform:translate(336px,32px)}16.4%{transform:translate(336px,48px)}16.93%{transform:translate(320px,48px)}17.46%,19.58%{transform:translate(320px,64px)}17.99%{transform:translate(336px,64px)}18.52%{transform:translate(336px,80px)}19.05%{transform:translate(320px,80px)}20.63%{transform:translate(288px,64px)}21.69%{transform:translate(288px,96px)}23.81%{transform:translate(352px,96px)}26.98%{transform:translate(352px,0px)}27.51%{transform:translate(336px,0px)}28.04%{transform:translate(336px,-16px)}34.39%{transform:translate(528px,-16px)}37.04%{transform:translate(528px,64px)}40.74%{transform:translate(640px,64px)}41.27%{transform:translate(640px,80px)}41.8%{transform:translate(624px,80px)}42.33%{transform:translate(624px,64px)}48.68%{transform:translate(816px,64px)}49.74%{transform:translate(816px,32px)}50.26%{transform:translate(832px,32px)}50.79%{transform:translate(832px,16px)}51.32%{transform:translate(816px,16px)}51.85%{transform:translate(816px,0px)}52.38%{transform:translate(800px,0px)}55.03%,57.14%{transform:translate(800px,80px)}55.56%{transform:translate(816px,80px)}56.08%{transform:translate(816px,96px)}56.61%{transform:translate(800px,96px)}73.54%,86.24%{transform:translate(304px,80px)}74.07%{transform:translate(304px,64px)}76.19%{transform:translate(240px,64px)}76.72%{transform:translate(240px,48px)}80.95%{transform:translate(336px,16px)}81.48%{transform:translate(320px,16px)}82.01%{transform:translate(320px,32px)}83.6%{transform:translate(272px,32px)}85.19%{transform:translate(272px,80px)}88.36%{transform:translate(304px,16px)}95.24%{transform:translate(96px,16px)}95.77%{transform:translate(96px,0px)}97.35%{transform:translate(48px,0px)}97.88%{transform:translate(48px,-16px)}}.s.s0{transform:translate(0px,-16px);animation-name:s0}@keyframes s1{0%,99.47%{transform:translate(16px,-16px)}0.53%{transform:translate(0px,-16px)}1.59%{transform:translate(0px,16px)}2.65%{transform:translate(32px,16px)}3.17%{transform:translate(32px,32px)}3.7%{transform:translate(16px,32px)}4.76%{transform:translate(16px,64px)}11.64%{transform:translate(224px,64px)}12.17%{transform:translate(224px,48px)}14.29%,78.84%{transform:translate(288px,48px)}14.81%,79.37%{transform:translate(288px,32px)}16.4%,80.95%{transform:translate(336px,32px)}16.93%{transform:translate(336px,48px)}17.46%{transform:translate(320px,48px)}17.99%,20.11%{transform:translate(320px,64px)}18.52%{transform:translate(336px,64px)}19.05%{transform:translate(336px,80px)}19.58%{transform:translate(320px,80px)}21.16%{transform:translate(288px,64px)}22.22%{transform:translate(288px,96px)}24.34%{transform:translate(352px,96px)}27.51%{transform:translate(352px,0px)}28.04%{transform:translate(336px,0px)}28.57%{transform:translate(336px,-16px)}34.92%{transform:translate(528px,-16px)}37.57%{transform:translate(528px,64px)}41.27%{transform:translate(640px,64px)}41.8%{transform:translate(640px,80px)}42.33%{transform:translate(624px,80px)}42.86%{transform:translate(624px,64px)}49.21%{transform:translate(816px,64px)}50.26%{transform:translate(816px,32px)}50.79%{transform:translate(832px,32px)}51.32%{transform:translate(832px,16px)}51.85%{transform:translate(816px,16px)}52.38%{transform:translate(816px,0px)}52.91%{transform:translate(800px,0px)}55.56%,57.67%{transform:translate(800px,80px)}56.08%{transform:translate(816px,80px)}56.61%{transform:translate(816px,96px)}57.14%{transform:translate(800px,96px)}74.07%,86.77%{transform:translate(304px,80px)}74.6%{transform:translate(304px,64px)}76.72%{transform:translate(240px,64px)}77.25%{transform:translate(240px,48px)}81.48%{transform:translate(336px,16px)}82.01%{transform:translate(320px,16px)}82.54%{transform:translate(320px,32px)}84.13%{transform:translate(272px,32px)}85.71%{transform:translate(272px,80px)}88.89%{transform:translate(304px,16px)}95.77%{transform:translate(96px,16px)}96.3%{transform:translate(96px,0px)}97.88%{transform:translate(48px,0px)}98.41%{transform:translate(48px,-16px)}}.s.s1{transform:translate(16px,-16px);animation-name:s1}@keyframes s2{0%,99.47%{transform:translate(32px,-16px)}1.06%{transform:translate(0px,-16px)}2.12%{transform:translate(0px,16px)}3.17%{transform:translate(32px,16px)}3.7%{transform:translate(32px,32px)}4.23%{transform:translate(16px,32px)}5.29%{transform:translate(16px,64px)}12.17%{transform:translate(224px,64px)}12.7%{transform:translate(224px,48px)}14.81%,79.37%{transform:translate(288px,48px)}15.34%,79.89%{transform:translate(288px,32px)}16.93%,81.48%{transform:translate(336px,32px)}17.46%{transform:translate(336px,48px)}17.99%{transform:translate(320px,48px)}18.52%,20.63%{transform:translate(320px,64px)}19.05%{transform:translate(336px,64px)}19.58%{transform:translate(336px,80px)}20.11%{transform:translate(320px,80px)}21.69%{transform:translate(288px,64px)}22.75%{transform:translate(288px,96px)}24.87%{transform:translate(352px,96px)}28.04%{transform:translate(352px,0px)}28.57%{transform:translate(336px,0px)}29.1%{transform:translate(336px,-16px)}35.45%{transform:translate(528px,-16px)}38.1%{transform:translate(528px,64px)}41.8%{transform:translate(640px,64px)}42.33%{transform:translate(640px,80px)}42.86%{transform:translate(624px,80px)}43.39%{transform:translate(624px,64px)}49.74%{transform:translate(816px,64px)}50.79%{transform:translate(816px,32px)}51.32%{transform:translate(832px,32px)}51.85%{transform:translate(832px,16px)}52.38%{transform:translate(816px,16px)}52.91%{transform:translate(816px,0px)}53.44%{transform:translate(800px,0px)}56.08%,58.2%{transform:translate(800px,80px)}56.61%{transform:translate(816px,80px)}57.14%{transform:translate(816px,96px)}57.67%{transform:translate(800px,96px)}74.6%,87.3%{transform:translate(304px,80px)}75.13%{transform:translate(304px,64px)}77.25%{transform:translate(240px,64px)}77.78%{transform:translate(240px,48px)}82.01%{transform:translate(336px,16px)}82.54%{transform:translate(320px,16px)}83.07%{transform:translate(320px,32px)}84.66%{transform:translate(272px,32px)}86.24%{transform:translate(272px,80px)}89.42%{transform:translate(304px,16px)}96.3%{transform:translate(96px,16px)}96.83%{transform:translate(96px,0px)}98.41%{transform:translate(48px,0px)}98.94%{transform:translate(48px,-16px)}}.s.s2{transform:translate(32px,-16px);animation-name:s2}@keyframes s3{0%,99.47%{transform:translate(48px,-16px)}1.59%{transform:translate(0px,-16px)}2.65%{transform:translate(0px,16px)}3.7%{transform:translate(32px,16px)}4.23%{transform:translate(32px,32px)}4.76%{transform:translate(16px,32px)}5.82%{transform:translate(16px,64px)}12.7%{transform:translate(224px,64px)}13.23%{transform:translate(224px,48px)}15.34%,79.89%{transform:translate(288px,48px)}15.87%,80.42%{transform:translate(288px,32px)}17.46%,82.01%{transform:translate(336px,32px)}17.99%{transform:translate(336px,48px)}18.52%{transform:translate(320px,48px)}19.05%,21.16%{transform:translate(320px,64px)}19.58%{transform:translate(336px,64px)}20.11%{transform:translate(336px,80px)}20.63%{transform:translate(320px,80px)}22.22%{transform:translate(288px,64px)}23.28%{transform:translate(288px,96px)}25.4%{transform:translate(352px,96px)}28.57%{transform:translate(352px,0px)}29.1%{transform:translate(336px,0px)}29.63%{transform:translate(336px,-16px)}35.98%{transform:translate(528px,-16px)}38.62%{transform:translate(528px,64px)}42.33%{transform:translate(640px,64px)}42.86%{transform:translate(640px,80px)}43.39%{transform:translate(624px,80px)}43.92%{transform:translate(624px,64px)}50.26%{transform:translate(816px,64px)}51.32%{transform:translate(816px,32px)}51.85%{transform:translate(832px,32px)}52.38%{transform:translate(832px,16px)}52.91%{transform:translate(816px,16px)}53.44%{transform:translate(816px,0px)}53.97%{transform:translate(800px,0px)}56.61%,58.73%{transform:translate(800px,80px)}57.14%{transform:translate(816px,80px)}57.67%{transform:translate(816px,96px)}58.2%{transform:translate(800px,96px)}75.13%,87.83%{transform:translate(304px,80px)}75.66%{transform:translate(304px,64px)}77.78%{transform:translate(240px,64px)}78.31%{transform:translate(240px,48px)}82.54%{transform:translate(336px,16px)}83.07%{transform:translate(320px,16px)}83.6%{transform:translate(320px,32px)}85.19%{transform:translate(272px,32px)}86.77%{transform:translate(272px,80px)}89.95%{transform:translate(304px,16px)}96.83%{transform:translate(96px,16px)}97.35%{transform:translate(96px,0px)}98.94%{transform:translate(48px,0px)}}.s.s3{transform:translate(48px,-16px);animation-name:s3}</style><rect class="c" x="2" y="2" rx="2" ry="2"/><rect class="c c0" x="2" y="18" rx="2" ry="2"/><rect class="c" x="2" y="34" rx="2" ry="2"/><rect class="c" x="2" y="50" rx="2" ry="2"/><rect class="c" x="2" y="66" rx="2" ry="2"/><rect class="c" x="2" y="82" rx="2" ry="2"/><rect class="c" x="2" y="98" rx="2" ry="2"/><rect class="c" x="18" y="2" rx="2" ry="2"/><rect class="c" x="18" y="18" rx="2" ry="2"/><rect class="c c1" x="18" y="34" rx="2" ry="2"/><rect class="c" x="18" y="50" rx="2" ry="2"/><rect class="c c2" x="18" y="66" rx="2" ry="2"/><rect class="c" x="18" y="82" rx="2" ry="2"/><rect class="c" x="18" y="98" rx="2" ry="2"/><rect class="c" x="34" y="2" rx="2" ry="2"/><rect class="c c3" x="34" y="18" rx="2" ry="2"/><rect class="c" x="34" y="34" rx="2" ry="2"/><rect class="c" x="34" y="50" rx="2" ry="2"/><rect class="c" x="34" y="66" rx="2" ry="2"/><rect class="c" x="34" y="82" rx="2" ry="2"/><rect class="c" x="34" y="98" rx="2" ry="2"/><rect class="c" x="50" y="2" rx="2" ry="2"/><rect class="c" x="50" y="18" rx="2" ry="2"/><rect class="c" x="50" y="34" rx="2" ry="2"/><rect class="c" x="50" y="50" rx="2" ry="2"/><rect class="c" x="50" y="66" rx="2" ry="2"/><rect class="c" x="50" y="82" rx="2" ry="2"/><rect class="c" x="50" y="98" rx="2" ry="2"/><rect class="c" x="66" y="2" rx="2" ry="2"/><rect class="c" x="66" y="18" rx="2" ry="2"/><rect class="c" x="66" y="34" rx="2" ry="2"/><rect class="c" x="66" y="50" rx="2" ry="2"/><rect class="c" x="66" y="66" rx="2" ry="2"/><rect class="c" x="66" y="82" rx="2" ry="2"/><rect class="c" x="66" y="98" rx="2" ry="2"/><rect class="c" x="82" y="2" rx="2" ry="2"/><rect class="c" x="82" y="18" rx="2" ry="2"/><rect class="c" x="82" y="34" rx="2" ry="2"/><rect class="c" x="82" y="50" rx="2" ry="2"/><rect class="c" x="82" y="66" rx="2" ry="2"/><rect class="c" x="82" y="82" rx="2" ry="2"/><rect class="c" x="82" y="98" rx="2" ry="2"/><rect class="c" x="98" y="2" rx="2" ry="2"/><rect class="c" x="98" y="18" rx="2" ry="2"/><rect class="c" x="98" y="34" rx="2" ry="2"/><rect class="c" x="98" y="50" rx="2" ry="2"/><rect class="c" x="98" y="66" rx="2" ry="2"/><rect class="c" x="98" y="82" rx="2" ry="2"/><rect class="c" x="98" y="98" rx="2" ry="2"/><rect class="c" x="114" y="2" rx="2" ry="2"/><rect class="c" x="114" y="18" rx="2" ry="2"/><rect class="c" x="114" y="34" rx="2" ry="2"/><rect class="c" x="114" y="50" rx="2" ry="2"/><rect class="c" x="114" y="66" rx="2" ry="2"/><rect class="c" x="114" y="82" rx="2" ry="2"/><rect class="c" x="114" y="98" rx="2" ry="2"/><rect class="c" x="130" y="2" rx="2" ry="2"/><rect class="c" x="130" y="18" rx="2" ry="2"/><rect class="c" x="130" y="34" rx="2" ry="2"/><rect class="c" x="130" y="50" rx="2" ry="2"/><rect class="c" x="130" y="66" rx="2" ry="2"/><rect class="c" x="130" y="82" rx="2" ry="2"/><rect class="c" x="130" y="98" rx="2" ry="2"/><rect class="c" x="146" y="2" rx="2" ry="2"/><rect class="c" x="146" y="18" rx="2" ry="2"/><rect class="c" x="146" y="34" rx="2" ry="2"/><rect class="c" x="146" y="50" rx="2" ry="2"/><rect class="c" x="146" y="66" rx="2" ry="2"/><rect class="c" x="146" y="82" rx="2" ry="2"/><rect class="c" x="146" y="98" rx="2" ry="2"/><rect class="c" x="162" y="2" rx="2" ry="2"/><rect class="c" x="162" y="18" rx="2" ry="2"/><rect class="c" x="162" y="34" rx="2" ry="2"/><rect class="c" x="162" y="50" rx="2" ry="2"/><rect class="c" x="162" y="66" rx="2" ry="2"/><rect class="c" x="162" y="82" rx="2" ry="2"/><rect class="c" x="162" y="98" rx="2" ry="2"/><rect class="c" x="178" y="2" rx="2" ry="2"/><rect class="c" x="178" y="18" rx="2" ry="2"/><rect class="c" x="178" y="34" rx="2" ry="2"/><rect class="c" x="178" y="50" rx="2" ry="2"/><rect class="c" x="178" y="66" rx="2" ry="2"/><rect class="c" x="178" y="82" rx="2" ry="2"/><rect class="c" x="178" y="98" rx="2" ry="2"/><rect class="c" x="194" y="2" rx="2" ry="2"/><rect class="c" x="194" y="18" rx="2" ry="2"/><rect class="c" x="194" y="34" rx="2" ry="2"/><rect class="c" x="194" y="50" rx="2" ry="2"/><rect class="c" x="194" y="66" rx="2" ry="2"/><rect class="c" x="194" y="82" rx="2" ry="2"/><rect class="c" x="194" y="98" rx="2" ry="2"/><rect class="c" x="210" y="2" rx="2" ry="2"/><rect class="c" x="210" y="18" rx="2" ry="2"/><rect class="c" x="210" y="34" rx="2" ry="2"/><rect class="c" x="210" y="50" rx="2" ry="2"/><rect class="c" x="210" y="66" rx="2" ry="2"/><rect class="c" x="210" y="82" rx="2" ry="2"/><rect class="c" x="210" y="98" rx="2" ry="2"/><rect class="c" x="226" y="2" rx="2" ry="2"/><rect class="c" x="226" y="18" rx="2" ry="2"/><rect class="c" x="226" y="34" rx="2" ry="2"/><rect class="c" x="226" y="50" rx="2" ry="2"/><rect class="c" x="226" y="66" rx="2" ry="2"/><rect class="c" x="226" y="82" rx="2" ry="2"/><rect class="c" x="226" y="98" rx="2" ry="2"/><rect class="c" x="242" y="2" rx="2" ry="2"/><rect class="c" x="242" y="18" rx="2" ry="2"/><rect class="c" x="242" y="34" rx="2" ry="2"/><rect class="c c4" x="242" y="50" rx="2" ry="2"/><rect class="c c5" x="242" y="66" rx="2" ry="2"/><rect class="c" x="242" y="82" rx="2" ry="2"/><rect class="c" x="242" y="98" rx="2" ry="2"/><rect class="c" x="258" y="2" rx="2" ry="2"/><rect class="c" x="258" y="18" rx="2" ry="2"/><rect class="c" x="258" y="34" rx="2" ry="2"/><rect class="c" x="258" y="50" rx="2" ry="2"/><rect class="c" x="258" y="66" rx="2" ry="2"/><rect class="c" x="258" y="82" rx="2" ry="2"/><rect class="c" x="258" y="98" rx="2" ry="2"/><rect class="c" x="274" y="2" rx="2" ry="2"/><rect class="c" x="274" y="18" rx="2" ry="2"/><rect class="c" x="274" y="34" rx="2" ry="2"/><rect class="c" x="274" y="50" rx="2" ry="2"/><rect class="c c6" x="274" y="66" rx="2" ry="2"/><rect class="c c7" x="274" y="82" rx="2" ry="2"/><rect class="c" x="274" y="98" rx="2" ry="2"/><rect class="c" x="290" y="2" rx="2" ry="2"/><rect class="c c8" x="290" y="18" rx="2" ry="2"/><rect class="c c9" x="290" y="34" rx="2" ry="2"/><rect class="c ca" x="290" y="50" rx="2" ry="2"/><rect class="c cb" x="290" y="66" rx="2" ry="2"/><rect class="c cc" x="290" y="82" rx="2" ry="2"/><rect class="c" x="290" y="98" rx="2" ry="2"/><rect class="c" x="306" y="2" rx="2" ry="2"/><rect class="c cd" x="306" y="18" rx="2" ry="2"/><rect class="c ce" x="306" y="34" rx="2" ry="2"/><rect class="c cf" x="306" y="50" rx="2" ry="2"/><rect class="c cg" x="306" y="66" rx="2" ry="2"/><rect class="c ch" x="306" y="82" rx="2" ry="2"/><rect class="c" x="306" y="98" rx="2" ry="2"/><rect class="c" x="322" y="2" rx="2" ry="2"/><rect class="c" x="322" y="18" rx="2" ry="2"/><rect class="c" x="322" y="34" rx="2" ry="2"/><rect class="c ci" x="322" y="50" rx="2" ry="2"/><rect class="c cj" x="322" y="66" rx="2" ry="2"/><rect class="c ck" x="322" y="82" rx="2" ry="2"/><rect class="c" x="322" y="98" rx="2" ry="2"/><rect class="c cl" x="338" y="2" rx="2" ry="2"/><rect class="c cm" x="338" y="18" rx="2" ry="2"/><rect class="c cn" x="338" y="34" rx="2" ry="2"/><rect class="c co" x="338" y="50" rx="2" ry="2"/><rect class="c cp" x="338" y="66" rx="2" ry="2"/><rect class="c cq" x="338" y="82" rx="2" ry="2"/><rect class="c" x="338" y="98" rx="2" ry="2"/><rect class="c" x="354" y="2" rx="2" ry="2"/><rect class="c" x="354" y="18" rx="2" ry="2"/><rect class="c" x="354" y="34" rx="2" ry="2"/><rect class="c" x="354" y="50" rx="2" ry="2"/><rect class="c" x="354" y="66" rx="2" ry="2"/><rect class="c" x="354" y="82" rx="2" ry="2"/><rect class="c cr" x="354" y="98" rx="2" ry="2"/><rect class="c" x="370" y="2" rx="2" ry="2"/><rect class="c" x="370" y="18" rx="2" ry="2"/><rect class="c" x="370" y="34" rx="2" ry="2"/><rect class="c" x="370" y="50" rx="2" ry="2"/><rect class="c" x="370" y="66" rx="2" ry="2"/><rect class="c" x="370" y="82" rx="2" ry="2"/><rect class="c" x="370" y="98" rx="2" ry="2"/><rect class="c" x="386" y="2" rx="2" ry="2"/><rect class="c" x="386" y="18" rx="2" ry="2"/><rect class="c" x="386" y="34" rx="2" ry="2"/><rect class="c" x="386" y="50" rx="2" ry="2"/><rect class="c" x="386" y="66" rx="2" ry="2"/><rect class="c" x="386" y="82" rx="2" ry="2"/><rect class="c" x="386" y="98" rx="2" ry="2"/><rect class="c" x="402" y="2" rx="2" ry="2"/><rect class="c" x="402" y="18" rx="2" ry="2"/><rect class="c" x="402" y="34" rx="2" ry="2"/><rect class="c" x="402" y="50" rx="2" ry="2"/><rect class="c" x="402" y="66" rx="2" ry="2"/><rect class="c" x="402" y="82" rx="2" ry="2"/><rect class="c" x="402" y="98" rx="2" ry="2"/><rect class="c" x="418" y="2" rx="2" ry="2"/><rect class="c" x="418" y="18" rx="2" ry="2"/><rect class="c" x="418" y="34" rx="2" ry="2"/><rect class="c" x="418" y="50" rx="2" ry="2"/><rect class="c" x="418" y="66" rx="2" ry="2"/><rect class="c" x="418" y="82" rx="2" ry="2"/><rect class="c" x="418" y="98" rx="2" ry="2"/><rect class="c" x="434" y="2" rx="2" ry="2"/><rect class="c" x="434" y="18" rx="2" ry="2"/><rect class="c" x="434" y="34" rx="2" ry="2"/><rect class="c" x="434" y="50" rx="2" ry="2"/><rect class="c" x="434" y="66" rx="2" ry="2"/><rect class="c" x="434" y="82" rx="2" ry="2"/><rect class="c" x="434" y="98" rx="2" ry="2"/><rect class="c" x="450" y="2" rx="2" ry="2"/><rect class="c" x="450" y="18" rx="2" ry="2"/><rect class="c" x="450" y="34" rx="2" ry="2"/><rect class="c" x="450" y="50" rx="2" ry="2"/><rect class="c" x="450" y="66" rx="2" ry="2"/><rect class="c" x="450" y="82" rx="2" ry="2"/><rect class="c" x="450" y="98" rx="2" ry="2"/><rect class="c" x="466" y="2" rx="2" ry="2"/><rect class="c" x="466" y="18" rx="2" ry="2"/><rect class="c" x="466" y="34" rx="2" ry="2"/><rect class="c" x="466" y="50" rx="2" ry="2"/><rect class="c" x="466" y="66" rx="2" ry="2"/><rect class="c" x="466" y="82" rx="2" ry="2"/><rect class="c" x="466" y="98" rx="2" ry="2"/><rect class="c" x="482" y="2" rx="2" ry="2"/><rect class="c" x="482" y="18" rx="2" ry="2"/><rect class="c" x="482" y="34" rx="2" ry="2"/><rect class="c" x="482" y="50" rx="2" ry="2"/><rect class="c" x="482" y="66" rx="2" ry="2"/><rect class="c" x="482" y="82" rx="2" ry="2"/><rect class="c" x="482" y="98" rx="2" ry="2"/><rect class="c" x="498" y="2" rx="2" ry="2"/><rect class="c" x="498" y="18" rx="2" ry="2"/><rect class="c" x="498" y="34" rx="2" ry="2"/><rect class="c" x="498" y="50" rx="2" ry="2"/><rect class="c" x="498" y="66" rx="2" ry="2"/><rect class="c" x="498" y="82" rx="2" ry="2"/><rect class="c" x="498" y="98" rx="2" ry="2"/><rect class="c" x="514" y="2" rx="2" ry="2"/><rect class="c" x="514" y="18" rx="2" ry="2"/><rect class="c" x="514" y="34" rx="2" ry="2"/><rect class="c" x="514" y="50" rx="2" ry="2"/><rect class="c" x="514" y="66" rx="2" ry="2"/><rect class="c" x="514" y="82" rx="2" ry="2"/><rect class="c" x="514" y="98" rx="2" ry="2"/><rect class="c" x="530" y="2" rx="2" ry="2"/><rect class="c" x="530" y="18" rx="2" ry="2"/><rect class="c" x="530" y="34" rx="2" ry="2"/><rect class="c cs" x="530" y="50" rx="2" ry="2"/><rect class="c ct" x="530" y="66" rx="2" ry="2"/><rect class="c" x="530" y="82" rx="2" ry="2"/><rect class="c" x="530" y="98" rx="2" ry="2"/><rect class="c" x="546" y="2" rx="2" ry="2"/><rect class="c" x="546" y="18" rx="2" ry="2"/><rect class="c" x="546" y="34" rx="2" ry="2"/><rect class="c" x="546" y="50" rx="2" ry="2"/><rect class="c" x="546" y="66" rx="2" ry="2"/><rect class="c" x="546" y="82" rx="2" ry="2"/><rect class="c" x="546" y="98" rx="2" ry="2"/><rect class="c" x="562" y="2" rx="2" ry="2"/><rect class="c" x="562" y="18" rx="2" ry="2"/><rect class="c" x="562" y="34" rx="2" ry="2"/><rect class="c" x="562" y="50" rx="2" ry="2"/><rect class="c" x="562" y="66" rx="2" ry="2"/><rect class="c" x="562" y="82" rx="2" ry="2"/><rect class="c" x="562" y="98" rx="2" ry="2"/><rect class="c" x="578" y="2" rx="2" ry="2"/><rect class="c" x="578" y="18" rx="2" ry="2"/><rect class="c" x="578" y="34" rx="2" ry="2"/><rect class="c" x="578" y="50" rx="2" ry="2"/><rect class="c" x="578" y="66" rx="2" ry="2"/><rect class="c" x="578" y="82" rx="2" ry="2"/><rect class="c" x="578" y="98" rx="2" ry="2"/><rect class="c" x="594" y="2" rx="2" ry="2"/><rect class="c" x="594" y="18" rx="2" ry="2"/><rect class="c" x="594" y="34" rx="2" ry="2"/><rect class="c" x="594" y="50" rx="2" ry="2"/><rect class="c" x="594" y="66" rx="2" ry="2"/><rect class="c" x="594" y="82" rx="2" ry="2"/><rect class="c" x="594" y="98" rx="2" ry="2"/><rect class="c" x="610" y="2" rx="2" ry="2"/><rect class="c" x="610" y="18" rx="2" ry="2"/><rect class="c" x="610" y="34" rx="2" ry="2"/><rect class="c" x="610" y="50" rx="2" ry="2"/><rect class="c" x="610" y="66" rx="2" ry="2"/><rect class="c" x="610" y="82" rx="2" ry="2"/><rect class="c" x="610" y="98" rx="2" ry="2"/><rect class="c" x="626" y="2" rx="2" ry="2"/><rect class="c" x="626" y="18" rx="2" ry="2"/><rect class="c" x="626" y="34" rx="2" ry="2"/><rect class="c" x="626" y="50" rx="2" ry="2"/><rect class="c" x="626" y="66" rx="2" ry="2"/><rect class="c cu" x="626" y="82" rx="2" ry="2"/><rect class="c" x="626" y="98" rx="2" ry="2"/><rect class="c" x="642" y="2" rx="2" ry="2"/><rect class="c" x="642" y="18" rx="2" ry="2"/><rect class="c" x="642" y="34" rx="2" ry="2"/><rect class="c" x="642" y="50" rx="2" ry="2"/><rect class="c cv" x="642" y="66" rx="2" ry="2"/><rect class="c" x="642" y="82" rx="2" ry="2"/><rect class="c" x="642" y="98" rx="2" ry="2"/><rect class="c" x="658" y="2" rx="2" ry="2"/><rect class="c" x="658" y="18" rx="2" ry="2"/><rect class="c" x="658" y="34" rx="2" ry="2"/><rect class="c" x="658" y="50" rx="2" ry="2"/><rect class="c" x="658" y="66" rx="2" ry="2"/><rect class="c" x="658" y="82" rx="2" ry="2"/><rect class="c" x="658" y="98" rx="2" ry="2"/><rect class="c" x="674" y="2" rx="2" ry="2"/><rect class="c" x="674" y="18" rx="2" ry="2"/><rect class="c" x="674" y="34" rx="2" ry="2"/><rect class="c" x="674" y="50" rx="2" ry="2"/><rect class="c" x="674" y="66" rx="2" ry="2"/><rect class="c" x="674" y="82" rx="2" ry="2"/><rect class="c" x="674" y="98" rx="2" ry="2"/><rect class="c" x="690" y="2" rx="2" ry="2"/><rect class="c" x="690" y="18" rx="2" ry="2"/><rect class="c" x="690" y="34" rx="2" ry="2"/><rect class="c" x="690" y="50" rx="2" ry="2"/><rect class="c" x="690" y="66" rx="2" ry="2"/><rect class="c" x="690" y="82" rx="2" ry="2"/><rect class="c" x="690" y="98" rx="2" ry="2"/><rect class="c" x="706" y="2" rx="2" ry="2"/><rect class="c" x="706" y="18" rx="2" ry="2"/><rect class="c" x="706" y="34" rx="2" ry="2"/><rect class="c" x="706" y="50" rx="2" ry="2"/><rect class="c" x="706" y="66" rx="2" ry="2"/><rect class="c" x="706" y="82" rx="2" ry="2"/><rect class="c" x="706" y="98" rx="2" ry="2"/><rect class="c" x="722" y="2" rx="2" ry="2"/><rect class="c" x="722" y="18" rx="2" ry="2"/><rect class="c" x="722" y="34" rx="2" ry="2"/><rect class="c" x="722" y="50" rx="2" ry="2"/><rect class="c" x="722" y="66" rx="2" ry="2"/><rect class="c" x="722" y="82" rx="2" ry="2"/><rect class="c" x="722" y="98" rx="2" ry="2"/><rect class="c" x="738" y="2" rx="2" ry="2"/><rect class="c" x="738" y="18" rx="2" ry="2"/><rect class="c" x="738" y="34" rx="2" ry="2"/><rect class="c" x="738" y="50" rx="2" ry="2"/><rect class="c" x="738" y="66" rx="2" ry="2"/><rect class="c" x="738" y="82" rx="2" ry="2"/><rect class="c" x="738" y="98" rx="2" ry="2"/><rect class="c" x="754" y="2" rx="2" ry="2"/><rect class="c" x="754" y="18" rx="2" ry="2"/><rect class="c" x="754" y="34" rx="2" ry="2"/><rect class="c" x="754" y="50" rx="2" ry="2"/><rect class="c" x="754" y="66" rx="2" ry="2"/><rect class="c" x="754" y="82" rx="2" ry="2"/><rect class="c" x="754" y="98" rx="2" ry="2"/><rect class="c" x="770" y="2" rx="2" ry="2"/><rect class="c" x="770" y="18" rx="2" ry="2"/><rect class="c" x="770" y="34" rx="2" ry="2"/><rect class="c" x="770" y="50" rx="2" ry="2"/><rect class="c" x="770" y="66" rx="2" ry="2"/><rect class="c" x="770" y="82" rx="2" ry="2"/><rect class="c" x="770" y="98" rx="2" ry="2"/><rect class="c" x="786" y="2" rx="2" ry="2"/><rect class="c" x="786" y="18" rx="2" ry="2"/><rect class="c" x="786" y="34" rx="2" ry="2"/><rect class="c" x="786" y="50" rx="2" ry="2"/><rect class="c" x="786" y="66" rx="2" ry="2"/><rect class="c" x="786" y="82" rx="2" ry="2"/><rect class="c" x="786" y="98" rx="2" ry="2"/><rect class="c cw" x="802" y="2" rx="2" ry="2"/><rect class="c cx" x="802" y="18" rx="2" ry="2"/><rect class="c cy" x="802" y="34" rx="2" ry="2"/><rect class="c cz" x="802" y="50" rx="2" ry="2"/><rect class="c c10" x="802" y="66" rx="2" ry="2"/><rect class="c c11" x="802" y="82" rx="2" ry="2"/><rect class="c" x="802" y="98" rx="2" ry="2"/><rect class="c c12" x="818" y="2" rx="2" ry="2"/><rect class="c c13" x="818" y="18" rx="2" ry="2"/><rect class="c c14" x="818" y="34" rx="2" ry="2"/><rect class="c c15" x="818" y="50" rx="2" ry="2"/><rect class="c c16" x="818" y="66" rx="2" ry="2"/><rect class="c c17" x="818" y="82" rx="2" ry="2"/><rect class="c c18" x="818" y="98" rx="2" ry="2"/><rect class="c" x="834" y="2" rx="2" ry="2"/><rect class="c c19" x="834" y="18" rx="2" ry="2"/><rect class="c c1a" x="834" y="34" rx="2" ry="2"/><rect class="c" x="834" y="50" rx="2" ry="2"/><rect class="u u0" height="12" width="704.3" x="0.0" y="144"/><rect class="u u1" height="12" width="72.8" x="703.7" y="144"/><rect class="u u2" height="12" width="18.6" x="775.8" y="144"/><rect class="u u3" height="12" width="54.7" x="793.9" y="144"/><rect class="s s0" x="0.8" y="0.8" width="14.4" height="14.4" rx="4.5" ry="4.5"/><rect class="s s1" x="1.8" y="1.8" width="12.3" height="12.3" rx="4.1" ry="4.1"/><rect class="s s2" x="2.6" y="2.6" width="10.8" height="10.8" rx="3.6" ry="3.6"/><rect class="s s3" x="3.0" y="3.0" width="9.9" height="9.9" rx="3.3" ry="3.3"/></svg>