<svg viewBox="-16 -32 880 192" width="880" height="192" xmlns="http://www.w3.org/2000/svg"><desc>Generated with https://github.com/Platane/snk</desc><style>:root{--cb:#1b1f230a;--cs:#7845ab;--ce:#ebedf0;--c0:#ebedf0;--c1:#9be9a8;--c2:#40c463;--c3:#30a14e;--c4:#216e39}.c{shape-rendering:geometricPrecision;fill:var(--ce);stroke-width:1px;stroke:var(--cb);animation:none 19100ms linear infinite;width:12px;height:12px}@keyframes c0{2.08%{fill:var(--c1)}2.1%,100%{fill:var(--ce)}}.c.c0{fill:var(--c1);animation-name:c0}@keyframes c1{84.28%{fill:var(--c2)}84.3%,100%{fill:var(--ce)}}.c.c1{fill:var(--c2);animation-name:c1}@keyframes c2{83.24%{fill:var(--c2)}83.26%,100%{fill:var(--ce)}}.c.c2{fill:var(--c2);animation-name:c2}@keyframes c3{93.18%{fill:var(--c3)}93.2%,100%{fill:var(--ce)}}.c.c3{fill:var(--c3);animation-name:c3}@keyframes c4{96.85%{fill:var(--c4)}96.87%,100%{fill:var(--ce)}}.c.c4{fill:var(--c4);animation-name:c4}@keyframes c5{4.18%{fill:var(--c1)}4.2%,100%{fill:var(--ce)}}.c.c5{fill:var(--c1);animation-name:c5}@keyframes c6{3.65%{fill:var(--c1)}3.67%,100%{fill:var(--ce)}}.c.c6{fill:var(--c1);animation-name:c6}@keyframes c7{10.46%{fill:var(--c1)}10.48%,100%{fill:var(--ce)}}.c.c7{fill:var(--c1);animation-name:c7}@keyframes c8{10.98%{fill:var(--c1)}11%,100%{fill:var(--ce)}}.c.c8{fill:var(--c1);animation-name:c8}@keyframes c9{96.33%{fill:var(--c4)}96.35%,100%{fill:var(--ce)}}.c.c9{fill:var(--c4);animation-name:c9}@keyframes ca{4.7%{fill:var(--c1)}4.72%,100%{fill:var(--ce)}}.c.ca{fill:var(--c1);animation-name:ca}@keyframes cb{95.28%{fill:var(--c4)}95.3%,100%{fill:var(--ce)}}.c.cb{fill:var(--c4);animation-name:cb}@keyframes cc{9.94%{fill:var(--c1)}9.96%,100%{fill:var(--ce)}}.c.cc{fill:var(--c1);animation-name:cc}@keyframes cd{81.67%{fill:var(--c2)}81.69%,100%{fill:var(--ce)}}.c.cd{fill:var(--c2);animation-name:cd}@keyframes ce{6.8%{fill:var(--c1)}6.82%,100%{fill:var(--ce)}}.c.ce{fill:var(--c1);animation-name:ce}@keyframes cf{7.32%{fill:var(--c1)}7.34%,100%{fill:var(--ce)}}.c.cf{fill:var(--c1);animation-name:cf}@keyframes cg{8.89%{fill:var(--c1)}8.91%,100%{fill:var(--ce)}}.c.cg{fill:var(--c1);animation-name:cg}@keyframes ch{17.27%{fill:var(--c1)}17.29%,100%{fill:var(--ce)}}.c.ch{fill:var(--c1);animation-name:ch}@keyframes ci{89%{fill:var(--c2)}89.02%,100%{fill:var(--ce)}}.c.ci{fill:var(--c2);animation-name:ci}@keyframes cj{5.75%{fill:var(--c1)}5.77%,100%{fill:var(--ce)}}.c.cj{fill:var(--c1);animation-name:cj}@keyframes ck{6.27%{fill:var(--c1)}6.29%,100%{fill:var(--ce)}}.c.ck{fill:var(--c1);animation-name:ck}@keyframes cl{7.84%{fill:var(--c1)}7.86%,100%{fill:var(--ce)}}.c.cl{fill:var(--c1);animation-name:cl}@keyframes cm{8.37%{fill:var(--c1)}8.39%,100%{fill:var(--ce)}}.c.cm{fill:var(--c1);animation-name:cm}@keyframes cn{13.6%{fill:var(--c1)}13.62%,100%{fill:var(--ce)}}.c.cn{fill:var(--c1);animation-name:cn}@keyframes co{26.17%{fill:var(--c1)}26.19%,100%{fill:var(--ce)}}.c.co{fill:var(--c1);animation-name:co}@keyframes cp{26.69%{fill:var(--c1)}26.71%,100%{fill:var(--ce)}}.c.cp{fill:var(--c1);animation-name:cp}@keyframes cq{31.4%{fill:var(--c1)}31.42%,100%{fill:var(--ce)}}.c.cq{fill:var(--c1);animation-name:cq}@keyframes cr{30.36%{fill:var(--c1)}30.38%,100%{fill:var(--ce)}}.c.cr{fill:var(--c1);animation-name:cr}@keyframes cs{41.87%{fill:var(--c1)}41.89%,100%{fill:var(--ce)}}.c.cs{fill:var(--c1);animation-name:cs}@keyframes ct{42.4%{fill:var(--c1)}42.42%,100%{fill:var(--ce)}}.c.ct{fill:var(--c1);animation-name:ct}@keyframes cu{42.92%{fill:var(--c1)}42.94%,100%{fill:var(--ce)}}.c.cu{fill:var(--c1);animation-name:cu}@keyframes cv{44.49%{fill:var(--c1)}44.51%,100%{fill:var(--ce)}}.c.cv{fill:var(--c1);animation-name:cv}@keyframes cw{37.69%{fill:var(--c1)}37.71%,100%{fill:var(--ce)}}.c.cw{fill:var(--c1);animation-name:cw}@keyframes cx{45.54%{fill:var(--c1)}45.56%,100%{fill:var(--ce)}}.c.cx{fill:var(--c1);animation-name:cx}@keyframes cy{41.35%{fill:var(--c1)}41.37%,100%{fill:var(--ce)}}.c.cy{fill:var(--c1);animation-name:cy}@keyframes cz{40.83%{fill:var(--c1)}40.85%,100%{fill:var(--ce)}}.c.cz{fill:var(--c1);animation-name:cz}@keyframes c10{43.45%{fill:var(--c1)}43.47%,100%{fill:var(--ce)}}.c.c10{fill:var(--c1);animation-name:c10}@keyframes c11{43.97%{fill:var(--c1)}43.99%,100%{fill:var(--ce)}}.c.c11{fill:var(--c1);animation-name:c11}@keyframes c12{38.21%{fill:var(--c1)}38.23%,100%{fill:var(--ce)}}.c.c12{fill:var(--c1);animation-name:c12}@keyframes c13{46.06%{fill:var(--c1)}46.08%,100%{fill:var(--ce)}}.c.c13{fill:var(--c1);animation-name:c13}@keyframes c14{47.63%{fill:var(--c1)}47.65%,100%{fill:var(--ce)}}.c.c14{fill:var(--c1);animation-name:c14}@keyframes c15{40.3%{fill:var(--c1)}40.32%,100%{fill:var(--ce)}}.c.c15{fill:var(--c1);animation-name:c15}@keyframes c16{39.78%{fill:var(--c1)}39.8%,100%{fill:var(--ce)}}.c.c16{fill:var(--c1);animation-name:c16}@keyframes c17{39.26%{fill:var(--c1)}39.28%,100%{fill:var(--ce)}}.c.c17{fill:var(--c1);animation-name:c17}@keyframes c18{38.73%{fill:var(--c1)}38.75%,100%{fill:var(--ce)}}.c.c18{fill:var(--c1);animation-name:c18}@keyframes c19{46.59%{fill:var(--c1)}46.61%,100%{fill:var(--ce)}}.c.c19{fill:var(--c1);animation-name:c19}@keyframes c1a{56.53%{fill:var(--c1)}56.55%,100%{fill:var(--ce)}}.c.c1a{fill:var(--c1);animation-name:c1a}@keyframes c1b{52.87%{fill:var(--c1)}52.89%,100%{fill:var(--ce)}}.c.c1b{fill:var(--c1);animation-name:c1b}@keyframes c1c{59.68%{fill:var(--c1)}59.7%,100%{fill:var(--ce)}}.c.c1c{fill:var(--c1);animation-name:c1c}@keyframes c1d{55.49%{fill:var(--c1)}55.51%,100%{fill:var(--ce)}}.c.c1d{fill:var(--c1);animation-name:c1d}@keyframes c1e{54.96%{fill:var(--c1)}54.98%,100%{fill:var(--ce)}}.c.c1e{fill:var(--c1);animation-name:c1e}@keyframes c1f{54.44%{fill:var(--c1)}54.46%,100%{fill:var(--ce)}}.c.c1f{fill:var(--c1);animation-name:c1f}@keyframes c1g{53.92%{fill:var(--c1)}53.94%,100%{fill:var(--ce)}}.c.c1g{fill:var(--c1);animation-name:c1g}.u{transform-origin:0 0;transform:scale(0,1);animation:none linear 19100ms infinite}@keyframes u0{2.08%{transform:scale(0.000,1)}2.1%,3.65%{transform:scale(0.022,1)}3.67%,4.18%{transform:scale(0.044,1)}4.2%,4.7%{transform:scale(0.067,1)}4.72%,5.75%{transform:scale(0.089,1)}5.77%,6.27%{transform:scale(0.111,1)}6.29%,6.8%{transform:scale(0.133,1)}6.82%,7.32%{transform:scale(0.156,1)}7.34%,7.84%{transform:scale(0.178,1)}7.86%,8.37%{transform:scale(0.200,1)}8.39%,8.89%{transform:scale(0.222,1)}8.91%,9.94%{transform:scale(0.244,1)}9.96%,10.46%{transform:scale(0.267,1)}10.48%,10.98%{transform:scale(0.289,1)}11%,13.6%{transform:scale(0.311,1)}13.62%,17.27%{transform:scale(0.333,1)}17.29%,26.17%{transform:scale(0.356,1)}26.19%,26.69%{transform:scale(0.378,1)}26.71%,30.36%{transform:scale(0.400,1)}30.38%,31.4%{transform:scale(0.422,1)}31.42%,37.69%{transform:scale(0.444,1)}37.71%,38.21%{transform:scale(0.467,1)}38.23%,38.73%{transform:scale(0.489,1)}38.75%,39.26%{transform:scale(0.511,1)}39.28%,39.78%{transform:scale(0.533,1)}39.8%,40.3%{transform:scale(0.556,1)}40.32%,40.83%{transform:scale(0.578,1)}40.85%,41.35%{transform:scale(0.600,1)}41.37%,41.87%{transform:scale(0.622,1)}41.89%,42.4%{transform:scale(0.644,1)}42.42%,42.92%{transform:scale(0.667,1)}42.94%,43.45%{transform:scale(0.689,1)}43.47%,43.97%{transform:scale(0.711,1)}43.99%,44.49%{transform:scale(0.733,1)}44.51%,45.54%{transform:scale(0.756,1)}45.56%,46.06%{transform:scale(0.778,1)}46.08%,46.59%{transform:scale(0.800,1)}46.61%,47.63%{transform:scale(0.822,1)}47.65%,52.87%{transform:scale(0.844,1)}52.89%,53.92%{transform:scale(0.867,1)}53.94%,54.44%{transform:scale(0.889,1)}54.46%,54.96%{transform:scale(0.911,1)}54.98%,55.49%{transform:scale(0.933,1)}55.51%,56.53%{transform:scale(0.956,1)}56.55%,59.68%{transform:scale(0.978,1)}59.7%,100%{transform:scale(1.000,1)}}.u.u0{fill:var(--c1);animation-name:u0;transform-origin:0.0px 0}@keyframes u1{81.67%{transform:scale(0.000,1)}81.69%,83.24%{transform:scale(0.250,1)}83.26%,84.28%{transform:scale(0.500,1)}84.3%,89%{transform:scale(0.750,1)}89.02%,100%{transform:scale(1.000,1)}}.u.u1{fill:var(--c2);animation-name:u1;transform-origin:720.0px 0}@keyframes u2{93.18%{transform:scale(0.000,1)}93.2%,100%{transform:scale(1.000,1)}}.u.u2{fill:var(--c3);animation-name:u2;transform-origin:784.0px 0}@keyframes u3{95.28%{transform:scale(0.000,1)}95.3%,96.33%{transform:scale(0.333,1)}96.35%,96.85%{transform:scale(0.667,1)}96.87%,100%{transform:scale(1.000,1)}}.u.u3{fill:var(--c4);animation-name:u3;transform-origin:800.0px 0}.s{shape-rendering:geometricPrecision;fill:var(--cs);animation:none linear 19100ms infinite}@keyframes s0{0%,99.48%{transform:translate(0px,-16px)}2.09%,84.82%{transform:translate(0px,48px)}3.66%,86.39%{transform:translate(48px,48px)}4.19%,86.91%{transform:translate(48px,32px)}5.76%,88.48%{transform:translate(96px,32px)}6.28%{transform:translate(96px,48px)}6.81%{transform:translate(80px,48px)}7.33%,9.42%{transform:translate(80px,64px)}7.85%{transform:translate(96px,64px)}8.38%{transform:translate(96px,80px)}8.9%{transform:translate(80px,80px)}10.47%{transform:translate(48px,64px)}11.52%{transform:translate(48px,96px)}13.61%{transform:translate(112px,96px)}16.75%{transform:translate(112px,0px)}17.28%{transform:translate(96px,0px)}17.8%{transform:translate(96px,-16px)}24.08%{transform:translate(288px,-16px)}26.7%{transform:translate(288px,64px)}30.37%{transform:translate(400px,64px)}30.89%{transform:translate(400px,80px)}31.41%{transform:translate(384px,80px)}31.94%{transform:translate(384px,64px)}38.74%{transform:translate(592px,64px)}40.31%{transform:translate(592px,16px)}40.84%{transform:translate(576px,16px)}41.36%{transform:translate(576px,0px)}41.88%{transform:translate(560px,0px)}42.93%{transform:translate(560px,32px)}43.46%{transform:translate(576px,32px)}43.98%{transform:translate(576px,48px)}44.5%{transform:translate(560px,48px)}45.55%{transform:translate(560px,80px)}46.6%{transform:translate(592px,80px)}47.12%{transform:translate(592px,96px)}47.64%{transform:translate(576px,96px)}48.17%{transform:translate(576px,80px)}52.36%,60.73%{transform:translate(704px,80px)}52.88%{transform:translate(704px,64px)}53.93%{transform:translate(736px,64px)}55.5%{transform:translate(736px,16px)}56.54%{transform:translate(704px,16px)}57.07%{transform:translate(704px,32px)}57.59%{transform:translate(720px,32px)}59.69%{transform:translate(720px,96px)}60.21%{transform:translate(704px,96px)}81.68%,94.24%{transform:translate(64px,80px)}82.2%{transform:translate(64px,64px)}84.29%{transform:translate(0px,64px)}89.01%{transform:translate(96px,16px)}89.53%{transform:translate(80px,16px)}90.05%{transform:translate(80px,32px)}91.62%{transform:translate(32px,32px)}93.19%{transform:translate(32px,80px)}96.34%{transform:translate(64px,16px)}96.86%{transform:translate(48px,16px)}97.91%{transform:translate(48px,-16px)}}.s.s0{transform:translate(0px,-16px);animation-name:s0}@keyframes s1{0%,99.48%{transform:translate(16px,-16px)}0.52%{transform:translate(0px,-16px)}2.62%,85.34%{transform:translate(0px,48px)}4.19%,86.91%{transform:translate(48px,48px)}4.71%,87.43%{transform:translate(48px,32px)}6.28%,89.01%{transform:translate(96px,32px)}6.81%{transform:translate(96px,48px)}7.33%{transform:translate(80px,48px)}7.85%,9.95%{transform:translate(80px,64px)}8.38%{transform:translate(96px,64px)}8.9%{transform:translate(96px,80px)}9.42%{transform:translate(80px,80px)}10.99%{transform:translate(48px,64px)}12.04%{transform:translate(48px,96px)}14.14%{transform:translate(112px,96px)}17.28%{transform:translate(112px,0px)}17.8%{transform:translate(96px,0px)}18.32%{transform:translate(96px,-16px)}24.61%{transform:translate(288px,-16px)}27.23%{transform:translate(288px,64px)}30.89%{transform:translate(400px,64px)}31.41%{transform:translate(400px,80px)}31.94%{transform:translate(384px,80px)}32.46%{transform:translate(384px,64px)}39.27%{transform:translate(592px,64px)}40.84%{transform:translate(592px,16px)}41.36%{transform:translate(576px,16px)}41.88%{transform:translate(576px,0px)}42.41%{transform:translate(560px,0px)}43.46%{transform:translate(560px,32px)}43.98%{transform:translate(576px,32px)}44.5%{transform:translate(576px,48px)}45.03%{transform:translate(560px,48px)}46.07%{transform:translate(560px,80px)}47.12%{transform:translate(592px,80px)}47.64%{transform:translate(592px,96px)}48.17%{transform:translate(576px,96px)}48.69%{transform:translate(576px,80px)}52.88%,61.26%{transform:translate(704px,80px)}53.4%{transform:translate(704px,64px)}54.45%{transform:translate(736px,64px)}56.02%{transform:translate(736px,16px)}57.07%{transform:translate(704px,16px)}57.59%{transform:translate(704px,32px)}58.12%{transform:translate(720px,32px)}60.21%{transform:translate(720px,96px)}60.73%{transform:translate(704px,96px)}82.2%,94.76%{transform:translate(64px,80px)}82.72%{transform:translate(64px,64px)}84.82%{transform:translate(0px,64px)}89.53%{transform:translate(96px,16px)}90.05%{transform:translate(80px,16px)}90.58%{transform:translate(80px,32px)}92.15%{transform:translate(32px,32px)}93.72%{transform:translate(32px,80px)}96.86%{transform:translate(64px,16px)}97.38%{transform:translate(48px,16px)}98.43%{transform:translate(48px,-16px)}}.s.s1{transform:translate(16px,-16px);animation-name:s1}@keyframes s2{0%,99.48%{transform:translate(32px,-16px)}1.05%{transform:translate(0px,-16px)}3.14%,85.86%{transform:translate(0px,48px)}4.71%,87.43%{transform:translate(48px,48px)}5.24%,87.96%{transform:translate(48px,32px)}6.81%,89.53%{transform:translate(96px,32px)}7.33%{transform:translate(96px,48px)}7.85%{transform:translate(80px,48px)}8.38%,10.47%{transform:translate(80px,64px)}8.9%{transform:translate(96px,64px)}9.42%{transform:translate(96px,80px)}9.95%{transform:translate(80px,80px)}11.52%{transform:translate(48px,64px)}12.57%{transform:translate(48px,96px)}14.66%{transform:translate(112px,96px)}17.8%{transform:translate(112px,0px)}18.32%{transform:translate(96px,0px)}18.85%{transform:translate(96px,-16px)}25.13%{transform:translate(288px,-16px)}27.75%{transform:translate(288px,64px)}31.41%{transform:translate(400px,64px)}31.94%{transform:translate(400px,80px)}32.46%{transform:translate(384px,80px)}32.98%{transform:translate(384px,64px)}39.79%{transform:translate(592px,64px)}41.36%{transform:translate(592px,16px)}41.88%{transform:translate(576px,16px)}42.41%{transform:translate(576px,0px)}42.93%{transform:translate(560px,0px)}43.98%{transform:translate(560px,32px)}44.5%{transform:translate(576px,32px)}45.03%{transform:translate(576px,48px)}45.55%{transform:translate(560px,48px)}46.6%{transform:translate(560px,80px)}47.64%{transform:translate(592px,80px)}48.17%{transform:translate(592px,96px)}48.69%{transform:translate(576px,96px)}49.21%{transform:translate(576px,80px)}53.4%,61.78%{transform:translate(704px,80px)}53.93%{transform:translate(704px,64px)}54.97%{transform:translate(736px,64px)}56.54%{transform:translate(736px,16px)}57.59%{transform:translate(704px,16px)}58.12%{transform:translate(704px,32px)}58.64%{transform:translate(720px,32px)}60.73%{transform:translate(720px,96px)}61.26%{transform:translate(704px,96px)}82.72%,95.29%{transform:translate(64px,80px)}83.25%{transform:translate(64px,64px)}85.34%{transform:translate(0px,64px)}90.05%{transform:translate(96px,16px)}90.58%{transform:translate(80px,16px)}91.1%{transform:translate(80px,32px)}92.67%{transform:translate(32px,32px)}94.24%{transform:translate(32px,80px)}97.38%{transform:translate(64px,16px)}97.91%{transform:translate(48px,16px)}98.95%{transform:translate(48px,-16px)}}.s.s2{transform:translate(32px,-16px);animation-name:s2}@keyframes s3{0%,99.48%{transform:translate(48px,-16px)}1.57%{transform:translate(0px,-16px)}3.66%,86.39%{transform:translate(0px,48px)}5.24%,87.96%{transform:translate(48px,48px)}5.76%,88.48%{transform:translate(48px,32px)}7.33%,90.05%{transform:translate(96px,32px)}7.85%{transform:translate(96px,48px)}8.38%{transform:translate(80px,48px)}8.9%,10.99%{transform:translate(80px,64px)}9.42%{transform:translate(96px,64px)}9.95%{transform:translate(96px,80px)}10.47%{transform:translate(80px,80px)}12.04%{transform:translate(48px,64px)}13.09%{transform:translate(48px,96px)}15.18%{transform:translate(112px,96px)}18.32%{transform:translate(112px,0px)}18.85%{transform:translate(96px,0px)}19.37%{transform:translate(96px,-16px)}25.65%{transform:translate(288px,-16px)}28.27%{transform:translate(288px,64px)}31.94%{transform:translate(400px,64px)}32.46%{transform:translate(400px,80px)}32.98%{transform:translate(384px,80px)}33.51%{transform:translate(384px,64px)}40.31%{transform:translate(592px,64px)}41.88%{transform:translate(592px,16px)}42.41%{transform:translate(576px,16px)}42.93%{transform:translate(576px,0px)}43.46%{transform:translate(560px,0px)}44.5%{transform:translate(560px,32px)}45.03%{transform:translate(576px,32px)}45.55%{transform:translate(576px,48px)}46.07%{transform:translate(560px,48px)}47.12%{transform:translate(560px,80px)}48.17%{transform:translate(592px,80px)}48.69%{transform:translate(592px,96px)}49.21%{transform:translate(576px,96px)}49.74%{transform:translate(576px,80px)}53.93%,62.3%{transform:translate(704px,80px)}54.45%{transform:translate(704px,64px)}55.5%{transform:translate(736px,64px)}57.07%{transform:translate(736px,16px)}58.12%{transform:translate(704px,16px)}58.64%{transform:translate(704px,32px)}59.16%{transform:translate(720px,32px)}61.26%{transform:translate(720px,96px)}61.78%{transform:translate(704px,96px)}83.25%,95.81%{transform:translate(64px,80px)}83.77%{transform:translate(64px,64px)}85.86%{transform:translate(0px,64px)}90.58%{transform:translate(96px,16px)}91.1%{transform:translate(80px,16px)}91.62%{transform:translate(80px,32px)}93.19%{transform:translate(32px,32px)}94.76%{transform:translate(32px,80px)}97.91%{transform:translate(64px,16px)}98.43%{transform:translate(48px,16px)}}.s.s3{transform:translate(48px,-16px);animation-name:s3}</style><rect class="c" x="2" y="2" rx="2" ry="2"/><rect class="c" x="2" y="18" rx="2" ry="2"/><rect class="c" x="2" y="34" rx="2" ry="2"/><rect class="c c0" x="2" y="50" rx="2" ry="2"/><rect class="c c1" x="2" y="66" rx="2" ry="2"/><rect class="c" x="2" y="82" rx="2" ry="2"/><rect class="c" x="2" y="98" rx="2" ry="2"/><rect class="c" x="18" y="2" rx="2" ry="2"/><rect class="c" x="18" y="18" rx="2" ry="2"/><rect class="c" x="18" y="34" rx="2" ry="2"/><rect class="c" x="18" y="50" rx="2" ry="2"/><rect class="c" x="18" y="66" rx="2" ry="2"/><rect class="c" x="18" y="82" rx="2" ry="2"/><rect class="c" x="18" y="98" rx="2" ry="2"/><rect class="c" x="34" y="2" rx="2" ry="2"/><rect class="c" x="34" y="18" rx="2" ry="2"/><rect class="c" x="34" y="34" rx="2" ry="2"/><rect class="c" x="34" y="50" rx="2" ry="2"/><rect class="c c2" x="34" y="66" rx="2" ry="2"/><rect class="c c3" x="34" y="82" rx="2" ry="2"/><rect class="c" x="34" y="98" rx="2" ry="2"/><rect class="c" x="50" y="2" rx="2" ry="2"/><rect class="c c4" x="50" y="18" rx="2" ry="2"/><rect class="c c5" x="50" y="34" rx="2" ry="2"/><rect class="c c6" x="50" y="50" rx="2" ry="2"/><rect class="c c7" x="50" y="66" rx="2" ry="2"/><rect class="c c8" x="50" y="82" rx="2" ry="2"/><rect class="c" x="50" y="98" rx="2" ry="2"/><rect class="c" x="66" y="2" rx="2" ry="2"/><rect class="c c9" x="66" y="18" rx="2" ry="2"/><rect class="c ca" x="66" y="34" rx="2" ry="2"/><rect class="c cb" x="66" y="50" rx="2" ry="2"/><rect class="c cc" x="66" y="66" rx="2" ry="2"/><rect class="c cd" x="66" y="82" rx="2" ry="2"/><rect class="c" x="66" y="98" rx="2" ry="2"/><rect class="c" x="82" y="2" rx="2" ry="2"/><rect class="c" x="82" y="18" rx="2" ry="2"/><rect class="c" x="82" y="34" rx="2" ry="2"/><rect class="c ce" x="82" y="50" rx="2" ry="2"/><rect class="c cf" x="82" y="66" rx="2" ry="2"/><rect class="c cg" x="82" y="82" rx="2" ry="2"/><rect class="c" x="82" y="98" rx="2" ry="2"/><rect class="c ch" x="98" y="2" rx="2" ry="2"/><rect class="c ci" x="98" y="18" rx="2" ry="2"/><rect class="c cj" x="98" y="34" rx="2" ry="2"/><rect class="c ck" x="98" y="50" rx="2" ry="2"/><rect class="c cl" x="98" y="66" rx="2" ry="2"/><rect class="c cm" x="98" y="82" rx="2" ry="2"/><rect class="c" x="98" y="98" rx="2" ry="2"/><rect class="c" x="114" y="2" rx="2" ry="2"/><rect class="c" x="114" y="18" rx="2" ry="2"/><rect class="c" x="114" y="34" rx="2" ry="2"/><rect class="c" x="114" y="50" rx="2" ry="2"/><rect class="c" x="114" y="66" rx="2" ry="2"/><rect class="c" x="114" y="82" rx="2" ry="2"/><rect class="c cn" x="114" y="98" rx="2" ry="2"/><rect class="c" x="130" y="2" rx="2" ry="2"/><rect class="c" x="130" y="18" rx="2" ry="2"/><rect class="c" x="130" y="34" rx="2" ry="2"/><rect class="c" x="130" y="50" rx="2" ry="2"/><rect class="c" x="130" y="66" rx="2" ry="2"/><rect class="c" x="130" y="82" rx="2" ry="2"/><rect class="c" x="130" y="98" rx="2" ry="2"/><rect class="c" x="146" y="2" rx="2" ry="2"/><rect class="c" x="146" y="18" rx="2" ry="2"/><rect class="c" x="146" y="34" rx="2" ry="2"/><rect class="c" x="146" y="50" rx="2" ry="2"/><rect class="c" x="146" y="66" rx="2" ry="2"/><rect class="c" x="146" y="82" rx="2" ry="2"/><rect class="c" x="146" y="98" rx="2" ry="2"/><rect class="c" x="162" y="2" rx="2" ry="2"/><rect class="c" x="162" y="18" rx="2" ry="2"/><rect class="c" x="162" y="34" rx="2" ry="2"/><rect class="c" x="162" y="50" rx="2" ry="2"/><rect class="c" x="162" y="66" rx="2" ry="2"/><rect class="c" x="162" y="82" rx="2" ry="2"/><rect class="c" x="162" y="98" rx="2" ry="2"/><rect class="c" x="178" y="2" rx="2" ry="2"/><rect class="c" x="178" y="18" rx="2" ry="2"/><rect class="c" x="178" y="34" rx="2" ry="2"/><rect class="c" x="178" y="50" rx="2" ry="2"/><rect class="c" x="178" y="66" rx="2" ry="2"/><rect class="c" x="178" y="82" rx="2" ry="2"/><rect class="c" x="178" y="98" rx="2" ry="2"/><rect class="c" x="194" y="2" rx="2" ry="2"/><rect class="c" x="194" y="18" rx="2" ry="2"/><rect class="c" x="194" y="34" rx="2" ry="2"/><rect class="c" x="194" y="50" rx="2" ry="2"/><rect class="c" x="194" y="66" rx="2" ry="2"/><rect class="c" x="194" y="82" rx="2" ry="2"/><rect class="c" x="194" y="98" rx="2" ry="2"/><rect class="c" x="210" y="2" rx="2" ry="2"/><rect class="c" x="210" y="18" rx="2" ry="2"/><rect class="c" x="210" y="34" rx="2" ry="2"/><rect class="c" x="210" y="50" rx="2" ry="2"/><rect class="c" x="210" y="66" rx="2" ry="2"/><rect class="c" x="210" y="82" rx="2" ry="2"/><rect class="c" x="210" y="98" rx="2" ry="2"/><rect class="c" x="226" y="2" rx="2" ry="2"/><rect class="c" x="226" y="18" rx="2" ry="2"/><rect class="c" x="226" y="34" rx="2" ry="2"/><rect class="c" x="226" y="50" rx="2" ry="2"/><rect class="c" x="226" y="66" rx="2" ry="2"/><rect class="c" x="226" y="82" rx="2" ry="2"/><rect class="c" x="226" y="98" rx="2" ry="2"/><rect class="c" x="242" y="2" rx="2" ry="2"/><rect class="c" x="242" y="18" rx="2" ry="2"/><rect class="c" x="242" y="34" rx="2" ry="2"/><rect class="c" x="242" y="50" rx="2" ry="2"/><rect class="c" x="242" y="66" rx="2" ry="2"/><rect class="c" x="242" y="82" rx="2" ry="2"/><rect class="c" x="242" y="98" rx="2" ry="2"/><rect class="c" x="258" y="2" rx="2" ry="2"/><rect class="c" x="258" y="18" rx="2" ry="2"/><rect class="c" x="258" y="34" rx="2" ry="2"/><rect class="c" x="258" y="50" rx="2" ry="2"/><rect class="c" x="258" y="66" rx="2" ry="2"/><rect class="c" x="258" y="82" rx="2" ry="2"/><rect class="c" x="258" y="98" rx="2" ry="2"/><rect class="c" x="274" y="2" rx="2" ry="2"/><rect class="c" x="274" y="18" rx="2" ry="2"/><rect class="c" x="274" y="34" rx="2" ry="2"/><rect class="c" x="274" y="50" rx="2" ry="2"/><rect class="c" x="274" y="66" rx="2" ry="2"/><rect class="c" x="274" y="82" rx="2" ry="2"/><rect class="c" x="274" y="98" rx="2" ry="2"/><rect class="c" x="290" y="2" rx="2" ry="2"/><rect class="c" x="290" y="18" rx="2" ry="2"/><rect class="c" x="290" y="34" rx="2" ry="2"/><rect class="c co" x="290" y="50" rx="2" ry="2"/><rect class="c cp" x="290" y="66" rx="2" ry="2"/><rect class="c" x="290" y="82" rx="2" ry="2"/><rect class="c" x="290" y="98" rx="2" ry="2"/><rect class="c" x="306" y="2" rx="2" ry="2"/><rect class="c" x="306" y="18" rx="2" ry="2"/><rect class="c" x="306" y="34" rx="2" ry="2"/><rect class="c" x="306" y="50" rx="2" ry="2"/><rect class="c" x="306" y="66" rx="2" ry="2"/><rect class="c" x="306" y="82" rx="2" ry="2"/><rect class="c" x="306" y="98" rx="2" ry="2"/><rect class="c" x="322" y="2" rx="2" ry="2"/><rect class="c" x="322" y="18" rx="2" ry="2"/><rect class="c" x="322" y="34" rx="2" ry="2"/><rect class="c" x="322" y="50" rx="2" ry="2"/><rect class="c" x="322" y="66" rx="2" ry="2"/><rect class="c" x="322" y="82" rx="2" ry="2"/><rect class="c" x="322" y="98" rx="2" ry="2"/><rect class="c" x="338" y="2" rx="2" ry="2"/><rect class="c" x="338" y="18" rx="2" ry="2"/><rect class="c" x="338" y="34" rx="2" ry="2"/><rect class="c" x="338" y="50" rx="2" ry="2"/><rect class="c" x="338" y="66" rx="2" ry="2"/><rect class="c" x="338" y="82" rx="2" ry="2"/><rect class="c" x="338" y="98" rx="2" ry="2"/><rect class="c" x="354" y="2" rx="2" ry="2"/><rect class="c" x="354" y="18" rx="2" ry="2"/><rect class="c" x="354" y="34" rx="2" ry="2"/><rect class="c" x="354" y="50" rx="2" ry="2"/><rect class="c" x="354" y="66" rx="2" ry="2"/><rect class="c" x="354" y="82" rx="2" ry="2"/><rect class="c" x="354" y="98" rx="2" ry="2"/><rect class="c" x="370" y="2" rx="2" ry="2"/><rect class="c" x="370" y="18" rx="2" ry="2"/><rect class="c" x="370" y="34" rx="2" ry="2"/><rect class="c" x="370" y="50" rx="2" ry="2"/><rect class="c" x="370" y="66" rx="2" ry="2"/><rect class="c" x="370" y="82" rx="2" ry="2"/><rect class="c" x="370" y="98" rx="2" ry="2"/><rect class="c" x="386" y="2" rx="2" ry="2"/><rect class="c" x="386" y="18" rx="2" ry="2"/><rect class="c" x="386" y="34" rx="2" ry="2"/><rect class="c" x="386" y="50" rx="2" ry="2"/><rect class="c" x="386" y="66" rx="2" ry="2"/><rect class="c cq" x="386" y="82" rx="2" ry="2"/><rect class="c" x="386" y="98" rx="2" ry="2"/><rect class="c" x="402" y="2" rx="2" ry="2"/><rect class="c" x="402" y="18" rx="2" ry="2"/><rect class="c" x="402" y="34" rx="2" ry="2"/><rect class="c" x="402" y="50" rx="2" ry="2"/><rect class="c cr" x="402" y="66" rx="2" ry="2"/><rect class="c" x="402" y="82" rx="2" ry="2"/><rect class="c" x="402" y="98" rx="2" ry="2"/><rect class="c" x="418" y="2" rx="2" ry="2"/><rect class="c" x="418" y="18" rx="2" ry="2"/><rect class="c" x="418" y="34" rx="2" ry="2"/><rect class="c" x="418" y="50" rx="2" ry="2"/><rect class="c" x="418" y="66" rx="2" ry="2"/><rect class="c" x="418" y="82" rx="2" ry="2"/><rect class="c" x="418" y="98" rx="2" ry="2"/><rect class="c" x="434" y="2" rx="2" ry="2"/><rect class="c" x="434" y="18" rx="2" ry="2"/><rect class="c" x="434" y="34" rx="2" ry="2"/><rect class="c" x="434" y="50" rx="2" ry="2"/><rect class="c" x="434" y="66" rx="2" ry="2"/><rect class="c" x="434" y="82" rx="2" ry="2"/><rect class="c" x="434" y="98" rx="2" ry="2"/><rect class="c" x="450" y="2" rx="2" ry="2"/><rect class="c" x="450" y="18" rx="2" ry="2"/><rect class="c" x="450" y="34" rx="2" ry="2"/><rect class="c" x="450" y="50" rx="2" ry="2"/><rect class="c" x="450" y="66" rx="2" ry="2"/><rect class="c" x="450" y="82" rx="2" ry="2"/><rect class="c" x="450" y="98" rx="2" ry="2"/><rect class="c" x="466" y="2" rx="2" ry="2"/><rect class="c" x="466" y="18" rx="2" ry="2"/><rect class="c" x="466" y="34" rx="2" ry="2"/><rect class="c" x="466" y="50" rx="2" ry="2"/><rect class="c" x="466" y="66" rx="2" ry="2"/><rect class="c" x="466" y="82" rx="2" ry="2"/><rect class="c" x="466" y="98" rx="2" ry="2"/><rect class="c" x="482" y="2" rx="2" ry="2"/><rect class="c" x="482" y="18" rx="2" ry="2"/><rect class="c" x="482" y="34" rx="2" ry="2"/><rect class="c" x="482" y="50" rx="2" ry="2"/><rect class="c" x="482" y="66" rx="2" ry="2"/><rect class="c" x="482" y="82" rx="2" ry="2"/><rect class="c" x="482" y="98" rx="2" ry="2"/><rect class="c" x="498" y="2" rx="2" ry="2"/><rect class="c" x="498" y="18" rx="2" ry="2"/><rect class="c" x="498" y="34" rx="2" ry="2"/><rect class="c" x="498" y="50" rx="2" ry="2"/><rect class="c" x="498" y="66" rx="2" ry="2"/><rect class="c" x="498" y="82" rx="2" ry="2"/><rect class="c" x="498" y="98" rx="2" ry="2"/><rect class="c" x="514" y="2" rx="2" ry="2"/><rect class="c" x="514" y="18" rx="2" ry="2"/><rect class="c" x="514" y="34" rx="2" ry="2"/><rect class="c" x="514" y="50" rx="2" ry="2"/><rect class="c" x="514" y="66" rx="2" ry="2"/><rect class="c" x="514" y="82" rx="2" ry="2"/><rect class="c" x="514" y="98" rx="2" ry="2"/><rect class="c" x="530" y="2" rx="2" ry="2"/><rect class="c" x="530" y="18" rx="2" ry="2"/><rect class="c" x="530" y="34" rx="2" ry="2"/><rect class="c" x="530" y="50" rx="2" ry="2"/><rect class="c" x="530" y="66" rx="2" ry="2"/><rect class="c" x="530" y="82" rx="2" ry="2"/><rect class="c" x="530" y="98" rx="2" ry="2"/><rect class="c" x="546" y="2" rx="2" ry="2"/><rect class="c" x="546" y="18" rx="2" ry="2"/><rect class="c" x="546" y="34" rx="2" ry="2"/><rect class="c" x="546" y="50" rx="2" ry="2"/><rect class="c" x="546" y="66" rx="2" ry="2"/><rect class="c" x="546" y="82" rx="2" ry="2"/><rect class="c" x="546" y="98" rx="2" ry="2"/><rect class="c cs" x="562" y="2" rx="2" ry="2"/><rect class="c ct" x="562" y="18" rx="2" ry="2"/><rect class="c cu" x="562" y="34" rx="2" ry="2"/><rect class="c cv" x="562" y="50" rx="2" ry="2"/><rect class="c cw" x="562" y="66" rx="2" ry="2"/><rect class="c cx" x="562" y="82" rx="2" ry="2"/><rect class="c" x="562" y="98" rx="2" ry="2"/><rect class="c cy" x="578" y="2" rx="2" ry="2"/><rect class="c cz" x="578" y="18" rx="2" ry="2"/><rect class="c c10" x="578" y="34" rx="2" ry="2"/><rect class="c c11" x="578" y="50" rx="2" ry="2"/><rect class="c c12" x="578" y="66" rx="2" ry="2"/><rect class="c c13" x="578" y="82" rx="2" ry="2"/><rect class="c c14" x="578" y="98" rx="2" ry="2"/><rect class="c" x="594" y="2" rx="2" ry="2"/><rect class="c c15" x="594" y="18" rx="2" ry="2"/><rect class="c c16" x="594" y="34" rx="2" ry="2"/><rect class="c c17" x="594" y="50" rx="2" ry="2"/><rect class="c c18" x="594" y="66" rx="2" ry="2"/><rect class="c c19" x="594" y="82" rx="2" ry="2"/><rect class="c" x="594" y="98" rx="2" ry="2"/><rect class="c" x="610" y="2" rx="2" ry="2"/><rect class="c" x="610" y="18" rx="2" ry="2"/><rect class="c" x="610" y="34" rx="2" ry="2"/><rect class="c" x="610" y="50" rx="2" ry="2"/><rect class="c" x="610" y="66" rx="2" ry="2"/><rect class="c" x="610" y="82" rx="2" ry="2"/><rect class="c" x="610" y="98" rx="2" ry="2"/><rect class="c" x="626" y="2" rx="2" ry="2"/><rect class="c" x="626" y="18" rx="2" ry="2"/><rect class="c" x="626" y="34" rx="2" ry="2"/><rect class="c" x="626" y="50" rx="2" ry="2"/><rect class="c" x="626" y="66" rx="2" ry="2"/><rect class="c" x="626" y="82" rx="2" ry="2"/><rect class="c" x="626" y="98" rx="2" ry="2"/><rect class="c" x="642" y="2" rx="2" ry="2"/><rect class="c" x="642" y="18" rx="2" ry="2"/><rect class="c" x="642" y="34" rx="2" ry="2"/><rect class="c" x="642" y="50" rx="2" ry="2"/><rect class="c" x="642" y="66" rx="2" ry="2"/><rect class="c" x="642" y="82" rx="2" ry="2"/><rect class="c" x="642" y="98" rx="2" ry="2"/><rect class="c" x="658" y="2" rx="2" ry="2"/><rect class="c" x="658" y="18" rx="2" ry="2"/><rect class="c" x="658" y="34" rx="2" ry="2"/><rect class="c" x="658" y="50" rx="2" ry="2"/><rect class="c" x="658" y="66" rx="2" ry="2"/><rect class="c" x="658" y="82" rx="2" ry="2"/><rect class="c" x="658" y="98" rx="2" ry="2"/><rect class="c" x="674" y="2" rx="2" ry="2"/><rect class="c" x="674" y="18" rx="2" ry="2"/><rect class="c" x="674" y="34" rx="2" ry="2"/><rect class="c" x="674" y="50" rx="2" ry="2"/><rect class="c" x="674" y="66" rx="2" ry="2"/><rect class="c" x="674" y="82" rx="2" ry="2"/><rect class="c" x="674" y="98" rx="2" ry="2"/><rect class="c" x="690" y="2" rx="2" ry="2"/><rect class="c" x="690" y="18" rx="2" ry="2"/><rect class="c" x="690" y="34" rx="2" ry="2"/><rect class="c" x="690" y="50" rx="2" ry="2"/><rect class="c" x="690" y="66" rx="2" ry="2"/><rect class="c" x="690" y="82" rx="2" ry="2"/><rect class="c" x="690" y="98" rx="2" ry="2"/><rect class="c" x="706" y="2" rx="2" ry="2"/><rect class="c c1a" x="706" y="18" rx="2" ry="2"/><rect class="c" x="706" y="34" rx="2" ry="2"/><rect class="c" x="706" y="50" rx="2" ry="2"/><rect class="c c1b" x="706" y="66" rx="2" ry="2"/><rect class="c" x="706" y="82" rx="2" ry="2"/><rect class="c" x="706" y="98" rx="2" ry="2"/><rect class="c" x="722" y="2" rx="2" ry="2"/><rect class="c" x="722" y="18" rx="2" ry="2"/><rect class="c" x="722" y="34" rx="2" ry="2"/><rect class="c" x="722" y="50" rx="2" ry="2"/><rect class="c" x="722" y="66" rx="2" ry="2"/><rect class="c" x="722" y="82" rx="2" ry="2"/><rect class="c c1c" x="722" y="98" rx="2" ry="2"/><rect class="c" x="738" y="2" rx="2" ry="2"/><rect class="c c1d" x="738" y="18" rx="2" ry="2"/><rect class="c c1e" x="738" y="34" rx="2" ry="2"/><rect class="c c1f" x="738" y="50" rx="2" ry="2"/><rect class="c c1g" x="738" y="66" rx="2" ry="2"/><rect class="c" x="738" y="82" rx="2" ry="2"/><rect class="c" x="738" y="98" rx="2" ry="2"/><rect class="c" x="754" y="2" rx="2" ry="2"/><rect class="c" x="754" y="18" rx="2" ry="2"/><rect class="c" x="754" y="34" rx="2" ry="2"/><rect class="c" x="754" y="50" rx="2" ry="2"/><rect class="c" x="754" y="66" rx="2" ry="2"/><rect class="c" x="754" y="82" rx="2" ry="2"/><rect class="c" x="754" y="98" rx="2" ry="2"/><rect class="c" x="770" y="2" rx="2" ry="2"/><rect class="c" x="770" y="18" rx="2" ry="2"/><rect class="c" x="770" y="34" rx="2" ry="2"/><rect class="c" x="770" y="50" rx="2" ry="2"/><rect class="c" x="770" y="66" rx="2" ry="2"/><rect class="c" x="770" y="82" rx="2" ry="2"/><rect class="c" x="770" y="98" rx="2" ry="2"/><rect class="c" x="786" y="2" rx="2" ry="2"/><rect class="c" x="786" y="18" rx="2" ry="2"/><rect class="c" x="786" y="34" rx="2" ry="2"/><rect class="c" x="786" y="50" rx="2" ry="2"/><rect class="c" x="786" y="66" rx="2" ry="2"/><rect class="c" x="786" y="82" rx="2" ry="2"/><rect class="c" x="786" y="98" rx="2" ry="2"/><rect class="c" x="802" y="2" rx="2" ry="2"/><rect class="c" x="802" y="18" rx="2" ry="2"/><rect class="c" x="802" y="34" rx="2" ry="2"/><rect class="c" x="802" y="50" rx="2" ry="2"/><rect class="c" x="802" y="66" rx="2" ry="2"/><rect class="c" x="802" y="82" rx="2" ry="2"/><rect class="c" x="802" y="98" rx="2" ry="2"/><rect class="c" x="818" y="2" rx="2" ry="2"/><rect class="c" x="818" y="18" rx="2" ry="2"/><rect class="c" x="818" y="34" rx="2" ry="2"/><rect class="c" x="818" y="50" rx="2" ry="2"/><rect class="c" x="818" y="66" rx="2" ry="2"/><rect class="c" x="818" y="82" rx="2" ry="2"/><rect class="c" x="818" y="98" rx="2" ry="2"/><rect class="c" x="834" y="2" rx="2" ry="2"/><rect class="u u0" height="12" width="720.6" x="0.0" y="144"/><rect class="u u1" height="12" width="64.6" x="720.0" y="144"/><rect class="u u2" height="12" width="16.6" x="784.0" y="144"/><rect class="u u3" height="12" width="48.6" x="800.0" y="144"/><rect class="s s0" x="0.8" y="0.8" width="14.4" height="14.4" rx="4.5" ry="4.5"/><rect class="s s1" x="1.8" y="1.8" width="12.3" height="12.3" rx="4.1" ry="4.1"/><rect class="s s2" x="2.6" y="2.6" width="10.8" height="10.8" rx="3.6" ry="3.6"/><rect class="s s3" x="3.0" y="3.0" width="9.9" height="9.9" rx="3.3" ry="3.3"/></svg>