<svg viewBox="-16 -32 880 192" width="880" height="192" xmlns="http://www.w3.org/2000/svg"><desc>Generated with https://github.com/Platane/snk</desc><style>:root{--cb:#1b1f230a;--cs:#7845ab;--ce:#ebedf0;--c0:#ebedf0;--c1:#9be9a8;--c2:#40c463;--c3:#30a14e;--c4:#216e39}.c{shape-rendering:geometricPrecision;fill:var(--ce);stroke-width:1px;stroke:var(--cb);animation:none 27100ms linear infinite;width:12px;height:12px}@keyframes c0{3.31%{fill:var(--c1)}3.33%,100%{fill:var(--ce)}}.c.c0{fill:var(--c1);animation-name:c0}@keyframes c1{3.68%{fill:var(--c1)}3.7%,100%{fill:var(--ce)}}.c.c1{fill:var(--c1);animation-name:c1}@keyframes c2{57.92%{fill:var(--c3)}57.94%,100%{fill:var(--ce)}}.c.c2{fill:var(--c3);animation-name:c2}@keyframes c3{57.19%{fill:var(--c2)}57.21%,100%{fill:var(--ce)}}.c.c3{fill:var(--c2);animation-name:c3}@keyframes c4{49.07%{fill:var(--c2)}49.09%,100%{fill:var(--ce)}}.c.c4{fill:var(--c2);animation-name:c4}@keyframes c5{49.44%{fill:var(--c2)}49.46%,100%{fill:var(--ce)}}.c.c5{fill:var(--c2);animation-name:c5}@keyframes c6{64.57%{fill:var(--c3)}64.59%,100%{fill:var(--ce)}}.c.c6{fill:var(--c3);animation-name:c6}@keyframes c7{64.2%{fill:var(--c3)}64.22%,100%{fill:var(--ce)}}.c.c7{fill:var(--c3);animation-name:c7}@keyframes c8{10.69%{fill:var(--c1)}10.71%,100%{fill:var(--ce)}}.c.c8{fill:var(--c1);animation-name:c8}@keyframes c9{53.13%{fill:var(--c2)}53.15%,100%{fill:var(--ce)}}.c.c9{fill:var(--c2);animation-name:c9}@keyframes ca{48.7%{fill:var(--c2)}48.72%,100%{fill:var(--ce)}}.c.ca{fill:var(--c2);animation-name:ca}@keyframes cb{48.33%{fill:var(--c2)}48.35%,100%{fill:var(--ce)}}.c.cb{fill:var(--c2);animation-name:cb}@keyframes cc{11.8%{fill:var(--c1)}11.82%,100%{fill:var(--ce)}}.c.cc{fill:var(--c1);animation-name:cc}@keyframes cd{11.43%{fill:var(--c1)}11.45%,100%{fill:var(--ce)}}.c.cd{fill:var(--c1);animation-name:cd}@keyframes ce{11.06%{fill:var(--c1)}11.08%,100%{fill:var(--ce)}}.c.ce{fill:var(--c1);animation-name:ce}@keyframes cf{62.35%{fill:var(--c3)}62.37%,100%{fill:var(--ce)}}.c.cf{fill:var(--c3);animation-name:cf}@keyframes cg{52.39%{fill:var(--c2)}52.41%,100%{fill:var(--ce)}}.c.cg{fill:var(--c2);animation-name:cg}@keyframes ch{12.54%{fill:var(--c1)}12.56%,100%{fill:var(--ce)}}.c.ch{fill:var(--c1);animation-name:ch}@keyframes ci{12.17%{fill:var(--c1)}12.19%,100%{fill:var(--ce)}}.c.ci{fill:var(--c1);animation-name:ci}@keyframes cj{63.46%{fill:var(--c3)}63.48%,100%{fill:var(--ce)}}.c.cj{fill:var(--c3);animation-name:cj}@keyframes ck{51.28%{fill:var(--c2)}51.3%,100%{fill:var(--ce)}}.c.ck{fill:var(--c2);animation-name:ck}@keyframes cl{14.75%{fill:var(--c1)}14.77%,100%{fill:var(--ce)}}.c.cl{fill:var(--c1);animation-name:cl}@keyframes cm{21.02%{fill:var(--c1)}21.04%,100%{fill:var(--ce)}}.c.cm{fill:var(--c1);animation-name:cm}@keyframes cn{68.62%{fill:var(--c3)}68.64%,100%{fill:var(--ce)}}.c.cn{fill:var(--c3);animation-name:cn}@keyframes co{18.07%{fill:var(--c1)}18.09%,100%{fill:var(--ce)}}.c.co{fill:var(--c1);animation-name:co}@keyframes cp{20.29%{fill:var(--c1)}20.31%,100%{fill:var(--ce)}}.c.cp{fill:var(--c1);animation-name:cp}@keyframes cq{19.92%{fill:var(--c1)}19.94%,100%{fill:var(--ce)}}.c.cq{fill:var(--c1);animation-name:cq}@keyframes cr{19.55%{fill:var(--c1)}19.57%,100%{fill:var(--ce)}}.c.cr{fill:var(--c1);animation-name:cr}@keyframes cs{19.18%{fill:var(--c1)}19.2%,100%{fill:var(--ce)}}.c.cs{fill:var(--c1);animation-name:cs}@keyframes ct{73.05%{fill:var(--c3)}73.07%,100%{fill:var(--ce)}}.c.ct{fill:var(--c3);animation-name:ct}@keyframes cu{40.58%{fill:var(--c2)}40.6%,100%{fill:var(--ce)}}.c.cu{fill:var(--c2);animation-name:cu}@keyframes cv{26.93%{fill:var(--c1)}26.95%,100%{fill:var(--ce)}}.c.cv{fill:var(--c1);animation-name:cv}@keyframes cw{28.03%{fill:var(--c1)}28.05%,100%{fill:var(--ce)}}.c.cw{fill:var(--c1);animation-name:cw}@keyframes cx{33.57%{fill:var(--c1)}33.59%,100%{fill:var(--ce)}}.c.cx{fill:var(--c1);animation-name:cx}@keyframes cy{36.89%{fill:var(--c2)}36.91%,100%{fill:var(--ce)}}.c.cy{fill:var(--c2);animation-name:cy}@keyframes cz{28.4%{fill:var(--c1)}28.42%,100%{fill:var(--ce)}}.c.cz{fill:var(--c1);animation-name:cz}@keyframes c10{76.74%{fill:var(--c4)}76.76%,100%{fill:var(--ce)}}.c.c10{fill:var(--c4);animation-name:c10}@keyframes c11{77.11%{fill:var(--c4)}77.13%,100%{fill:var(--ce)}}.c.c11{fill:var(--c4);animation-name:c11}@keyframes c12{77.48%{fill:var(--c4)}77.5%,100%{fill:var(--ce)}}.c.c12{fill:var(--c4);animation-name:c12}@keyframes c13{36.15%{fill:var(--c2)}36.17%,100%{fill:var(--ce)}}.c.c13{fill:var(--c2);animation-name:c13}@keyframes c14{35.78%{fill:var(--c1)}35.8%,100%{fill:var(--ce)}}.c.c14{fill:var(--c1);animation-name:c14}@keyframes c15{28.77%{fill:var(--c1)}28.79%,100%{fill:var(--ce)}}.c.c15{fill:var(--c1);animation-name:c15}@keyframes c16{29.14%{fill:var(--c1)}29.16%,100%{fill:var(--ce)}}.c.c16{fill:var(--c1);animation-name:c16}@keyframes c17{30.62%{fill:var(--c1)}30.64%,100%{fill:var(--ce)}}.c.c17{fill:var(--c1);animation-name:c17}@keyframes c18{78.96%{fill:var(--c4)}78.98%,100%{fill:var(--ce)}}.c.c18{fill:var(--c4);animation-name:c18}@keyframes c19{29.88%{fill:var(--c1)}29.9%,100%{fill:var(--ce)}}.c.c19{fill:var(--c1);animation-name:c19}@keyframes c1a{30.25%{fill:var(--c1)}30.27%,100%{fill:var(--ce)}}.c.c1a{fill:var(--c1);animation-name:c1a}@keyframes c1b{31.36%{fill:var(--c1)}31.38%,100%{fill:var(--ce)}}.c.c1b{fill:var(--c1);animation-name:c1b}@keyframes c1c{31.72%{fill:var(--c1)}31.74%,100%{fill:var(--ce)}}.c.c1c{fill:var(--c1);animation-name:c1c}.u{transform-origin:0 0;transform:scale(0,1);animation:none linear 27100ms infinite}@keyframes u0{3.31%{transform:scale(0.000,1)}3.33%,3.68%{transform:scale(0.037,1)}3.7%,10.69%{transform:scale(0.074,1)}10.71%,11.06%{transform:scale(0.111,1)}11.08%,11.43%{transform:scale(0.148,1)}11.45%,11.8%{transform:scale(0.185,1)}11.82%,12.17%{transform:scale(0.222,1)}12.19%,12.54%{transform:scale(0.259,1)}12.56%,14.75%{transform:scale(0.296,1)}14.77%,18.07%{transform:scale(0.333,1)}18.09%,19.18%{transform:scale(0.370,1)}19.2%,19.55%{transform:scale(0.407,1)}19.57%,19.92%{transform:scale(0.444,1)}19.94%,20.29%{transform:scale(0.481,1)}20.31%,21.02%{transform:scale(0.519,1)}21.04%,26.93%{transform:scale(0.556,1)}26.95%,28.03%{transform:scale(0.593,1)}28.05%,28.4%{transform:scale(0.630,1)}28.42%,28.77%{transform:scale(0.667,1)}28.79%,29.14%{transform:scale(0.704,1)}29.16%,29.88%{transform:scale(0.741,1)}29.9%,30.25%{transform:scale(0.778,1)}30.27%,30.62%{transform:scale(0.815,1)}30.64%,31.36%{transform:scale(0.852,1)}31.38%,31.72%{transform:scale(0.889,1)}31.74%,33.57%{transform:scale(0.926,1)}33.59%,35.78%{transform:scale(0.963,1)}35.8%,100%{transform:scale(1.000,1)}}.u.u0{fill:var(--c1);animation-name:u0;transform-origin:0.0px 0}@keyframes u1{36.15%{transform:scale(0.000,1)}36.17%,36.89%{transform:scale(0.091,1)}36.91%,40.58%{transform:scale(0.182,1)}40.6%,48.33%{transform:scale(0.273,1)}48.35%,48.7%{transform:scale(0.364,1)}48.72%,49.07%{transform:scale(0.455,1)}49.09%,49.44%{transform:scale(0.545,1)}49.46%,51.28%{transform:scale(0.636,1)}51.3%,52.39%{transform:scale(0.727,1)}52.41%,53.13%{transform:scale(0.818,1)}53.15%,57.19%{transform:scale(0.909,1)}57.21%,100%{transform:scale(1.000,1)}}.u.u1{fill:var(--c2);animation-name:u1;transform-origin:467.3px 0}@keyframes u2{57.92%{transform:scale(0.000,1)}57.94%,62.35%{transform:scale(0.143,1)}62.37%,63.46%{transform:scale(0.286,1)}63.48%,64.2%{transform:scale(0.429,1)}64.22%,64.57%{transform:scale(0.571,1)}64.59%,68.62%{transform:scale(0.714,1)}68.64%,73.05%{transform:scale(0.857,1)}73.07%,100%{transform:scale(1.000,1)}}.u.u2{fill:var(--c3);animation-name:u2;transform-origin:657.6px 0}@keyframes u3{76.74%{transform:scale(0.000,1)}76.76%,77.11%{transform:scale(0.250,1)}77.13%,77.48%{transform:scale(0.500,1)}77.5%,78.96%{transform:scale(0.750,1)}78.98%,100%{transform:scale(1.000,1)}}.u.u3{fill:var(--c4);animation-name:u3;transform-origin:778.8px 0}.s{shape-rendering:geometricPrecision;fill:var(--cs);animation:none linear 27100ms infinite}@keyframes s0{0%,99.63%{transform:translate(0px,-16px)}0.37%{transform:translate(0px,0px)}2.21%{transform:translate(80px,0px)}3.69%{transform:translate(80px,64px)}5.9%,57.56%{transform:translate(176px,64px)}6.27%{transform:translate(176px,48px)}9.96%{transform:translate(336px,48px)}10.33%{transform:translate(336px,64px)}11.07%,50.92%{transform:translate(368px,64px)}11.81%{transform:translate(368px,32px)}12.18%{transform:translate(384px,32px)}12.55%{transform:translate(384px,16px)}12.92%{transform:translate(400px,16px)}14.39%{transform:translate(400px,80px)}14.76%,62.73%{transform:translate(384px,80px)}15.13%,52.03%{transform:translate(384px,96px)}18.45%{transform:translate(528px,96px)}20.3%{transform:translate(528px,16px)}21.03%{transform:translate(496px,16px)}21.4%{transform:translate(496px,0px)}23.99%{transform:translate(608px,0px)}24.35%{transform:translate(608px,-16px)}26.57%{transform:translate(704px,-16px)}26.94%{transform:translate(704px,0px)}28.78%{transform:translate(784px,0px)}29.15%{transform:translate(784px,16px)}29.89%{transform:translate(816px,16px)}30.26%{transform:translate(816px,32px)}30.63%{transform:translate(800px,32px)}31%,78.23%{transform:translate(800px,48px)}31.37%{transform:translate(816px,48px)}31.73%{transform:translate(816px,64px)}33.21%{transform:translate(752px,64px)}33.58%,36.53%{transform:translate(752px,80px)}33.95%{transform:translate(736px,80px)}34.69%{transform:translate(736px,112px)}35.42%{transform:translate(768px,112px)}36.16%{transform:translate(768px,80px)}36.9%{transform:translate(752px,96px)}37.27%{transform:translate(736px,96px)}39.48%{transform:translate(736px,0px)}41.7%{transform:translate(640px,0px)}42.07%{transform:translate(640px,16px)}48.34%,49.82%{transform:translate(368px,16px)}48.71%{transform:translate(368px,0px)}49.08%{transform:translate(352px,0px)}49.45%{transform:translate(352px,16px)}51.29%{transform:translate(384px,64px)}52.77%{transform:translate(352px,96px)}53.51%{transform:translate(352px,64px)}57.93%{transform:translate(176px,80px)}63.47%{transform:translate(384px,48px)}64.21%{transform:translate(352px,48px)}64.58%{transform:translate(352px,32px)}67.9%{transform:translate(496px,32px)}68.63%{transform:translate(496px,64px)}71.59%{transform:translate(624px,64px)}73.06%{transform:translate(624px,0px)}76.38%{transform:translate(768px,0px)}77.49%{transform:translate(768px,48px)}78.97%{transform:translate(800px,80px)}95.94%{transform:translate(64px,80px)}96.68%{transform:translate(64px,48px)}97.05%{transform:translate(48px,48px)}98.52%{transform:translate(48px,-16px)}}.s.s0{transform:translate(0px,-16px);animation-name:s0}@keyframes s1{0%,99.63%{transform:translate(16px,-16px)}0.37%{transform:translate(0px,-16px)}0.74%{transform:translate(0px,0px)}2.58%{transform:translate(80px,0px)}4.06%{transform:translate(80px,64px)}6.27%,57.93%{transform:translate(176px,64px)}6.64%{transform:translate(176px,48px)}10.33%{transform:translate(336px,48px)}10.7%{transform:translate(336px,64px)}11.44%,51.29%{transform:translate(368px,64px)}12.18%{transform:translate(368px,32px)}12.55%{transform:translate(384px,32px)}12.92%{transform:translate(384px,16px)}13.28%{transform:translate(400px,16px)}14.76%{transform:translate(400px,80px)}15.13%,63.1%{transform:translate(384px,80px)}15.5%,52.4%{transform:translate(384px,96px)}18.82%{transform:translate(528px,96px)}20.66%{transform:translate(528px,16px)}21.4%{transform:translate(496px,16px)}21.77%{transform:translate(496px,0px)}24.35%{transform:translate(608px,0px)}24.72%{transform:translate(608px,-16px)}26.94%{transform:translate(704px,-16px)}27.31%{transform:translate(704px,0px)}29.15%{transform:translate(784px,0px)}29.52%{transform:translate(784px,16px)}30.26%{transform:translate(816px,16px)}30.63%{transform:translate(816px,32px)}31%{transform:translate(800px,32px)}31.37%,78.6%{transform:translate(800px,48px)}31.73%{transform:translate(816px,48px)}32.1%{transform:translate(816px,64px)}33.58%{transform:translate(752px,64px)}33.95%,36.9%{transform:translate(752px,80px)}34.32%{transform:translate(736px,80px)}35.06%{transform:translate(736px,112px)}35.79%{transform:translate(768px,112px)}36.53%{transform:translate(768px,80px)}37.27%{transform:translate(752px,96px)}37.64%{transform:translate(736px,96px)}39.85%{transform:translate(736px,0px)}42.07%{transform:translate(640px,0px)}42.44%{transform:translate(640px,16px)}48.71%,50.18%{transform:translate(368px,16px)}49.08%{transform:translate(368px,0px)}49.45%{transform:translate(352px,0px)}49.82%{transform:translate(352px,16px)}51.66%{transform:translate(384px,64px)}53.14%{transform:translate(352px,96px)}53.87%{transform:translate(352px,64px)}58.3%{transform:translate(176px,80px)}63.84%{transform:translate(384px,48px)}64.58%{transform:translate(352px,48px)}64.94%{transform:translate(352px,32px)}68.27%{transform:translate(496px,32px)}69%{transform:translate(496px,64px)}71.96%{transform:translate(624px,64px)}73.43%{transform:translate(624px,0px)}76.75%{transform:translate(768px,0px)}77.86%{transform:translate(768px,48px)}79.34%{transform:translate(800px,80px)}96.31%{transform:translate(64px,80px)}97.05%{transform:translate(64px,48px)}97.42%{transform:translate(48px,48px)}98.89%{transform:translate(48px,-16px)}}.s.s1{transform:translate(16px,-16px);animation-name:s1}@keyframes s2{0%,99.63%{transform:translate(32px,-16px)}0.74%{transform:translate(0px,-16px)}1.11%{transform:translate(0px,0px)}2.95%{transform:translate(80px,0px)}4.43%{transform:translate(80px,64px)}6.64%,58.3%{transform:translate(176px,64px)}7.01%{transform:translate(176px,48px)}10.7%{transform:translate(336px,48px)}11.07%{transform:translate(336px,64px)}11.81%,51.66%{transform:translate(368px,64px)}12.55%{transform:translate(368px,32px)}12.92%{transform:translate(384px,32px)}13.28%{transform:translate(384px,16px)}13.65%{transform:translate(400px,16px)}15.13%{transform:translate(400px,80px)}15.5%,63.47%{transform:translate(384px,80px)}15.87%,52.77%{transform:translate(384px,96px)}19.19%{transform:translate(528px,96px)}21.03%{transform:translate(528px,16px)}21.77%{transform:translate(496px,16px)}22.14%{transform:translate(496px,0px)}24.72%{transform:translate(608px,0px)}25.09%{transform:translate(608px,-16px)}27.31%{transform:translate(704px,-16px)}27.68%{transform:translate(704px,0px)}29.52%{transform:translate(784px,0px)}29.89%{transform:translate(784px,16px)}30.63%{transform:translate(816px,16px)}31%{transform:translate(816px,32px)}31.37%{transform:translate(800px,32px)}31.73%,78.97%{transform:translate(800px,48px)}32.1%{transform:translate(816px,48px)}32.47%{transform:translate(816px,64px)}33.95%{transform:translate(752px,64px)}34.32%,37.27%{transform:translate(752px,80px)}34.69%{transform:translate(736px,80px)}35.42%{transform:translate(736px,112px)}36.16%{transform:translate(768px,112px)}36.9%{transform:translate(768px,80px)}37.64%{transform:translate(752px,96px)}38.01%{transform:translate(736px,96px)}40.22%{transform:translate(736px,0px)}42.44%{transform:translate(640px,0px)}42.8%{transform:translate(640px,16px)}49.08%,50.55%{transform:translate(368px,16px)}49.45%{transform:translate(368px,0px)}49.82%{transform:translate(352px,0px)}50.18%{transform:translate(352px,16px)}52.03%{transform:translate(384px,64px)}53.51%{transform:translate(352px,96px)}54.24%{transform:translate(352px,64px)}58.67%{transform:translate(176px,80px)}64.21%{transform:translate(384px,48px)}64.94%{transform:translate(352px,48px)}65.31%{transform:translate(352px,32px)}68.63%{transform:translate(496px,32px)}69.37%{transform:translate(496px,64px)}72.32%{transform:translate(624px,64px)}73.8%{transform:translate(624px,0px)}77.12%{transform:translate(768px,0px)}78.23%{transform:translate(768px,48px)}79.7%{transform:translate(800px,80px)}96.68%{transform:translate(64px,80px)}97.42%{transform:translate(64px,48px)}97.79%{transform:translate(48px,48px)}99.26%{transform:translate(48px,-16px)}}.s.s2{transform:translate(32px,-16px);animation-name:s2}@keyframes s3{0%,99.63%{transform:translate(48px,-16px)}1.11%{transform:translate(0px,-16px)}1.48%{transform:translate(0px,0px)}3.32%{transform:translate(80px,0px)}4.8%{transform:translate(80px,64px)}7.01%,58.67%{transform:translate(176px,64px)}7.38%{transform:translate(176px,48px)}11.07%{transform:translate(336px,48px)}11.44%{transform:translate(336px,64px)}12.18%,52.03%{transform:translate(368px,64px)}12.92%{transform:translate(368px,32px)}13.28%{transform:translate(384px,32px)}13.65%{transform:translate(384px,16px)}14.02%{transform:translate(400px,16px)}15.5%{transform:translate(400px,80px)}15.87%,63.84%{transform:translate(384px,80px)}16.24%,53.14%{transform:translate(384px,96px)}19.56%{transform:translate(528px,96px)}21.4%{transform:translate(528px,16px)}22.14%{transform:translate(496px,16px)}22.51%{transform:translate(496px,0px)}25.09%{transform:translate(608px,0px)}25.46%{transform:translate(608px,-16px)}27.68%{transform:translate(704px,-16px)}28.04%{transform:translate(704px,0px)}29.89%{transform:translate(784px,0px)}30.26%{transform:translate(784px,16px)}31%{transform:translate(816px,16px)}31.37%{transform:translate(816px,32px)}31.73%{transform:translate(800px,32px)}32.1%,79.34%{transform:translate(800px,48px)}32.47%{transform:translate(816px,48px)}32.84%{transform:translate(816px,64px)}34.32%{transform:translate(752px,64px)}34.69%,37.64%{transform:translate(752px,80px)}35.06%{transform:translate(736px,80px)}35.79%{transform:translate(736px,112px)}36.53%{transform:translate(768px,112px)}37.27%{transform:translate(768px,80px)}38.01%{transform:translate(752px,96px)}38.38%{transform:translate(736px,96px)}40.59%{transform:translate(736px,0px)}42.8%{transform:translate(640px,0px)}43.17%{transform:translate(640px,16px)}49.45%,50.92%{transform:translate(368px,16px)}49.82%{transform:translate(368px,0px)}50.18%{transform:translate(352px,0px)}50.55%{transform:translate(352px,16px)}52.4%{transform:translate(384px,64px)}53.87%{transform:translate(352px,96px)}54.61%{transform:translate(352px,64px)}59.04%{transform:translate(176px,80px)}64.58%{transform:translate(384px,48px)}65.31%{transform:translate(352px,48px)}65.68%{transform:translate(352px,32px)}69%{transform:translate(496px,32px)}69.74%{transform:translate(496px,64px)}72.69%{transform:translate(624px,64px)}74.17%{transform:translate(624px,0px)}77.49%{transform:translate(768px,0px)}78.6%{transform:translate(768px,48px)}80.07%{transform:translate(800px,80px)}97.05%{transform:translate(64px,80px)}97.79%{transform:translate(64px,48px)}98.15%{transform:translate(48px,48px)}}.s.s3{transform:translate(48px,-16px);animation-name:s3}</style><rect class="c" x="2" y="2" rx="2" ry="2"/><rect class="c" x="2" y="18" rx="2" ry="2"/><rect class="c" x="2" y="34" rx="2" ry="2"/><rect class="c" x="2" y="50" rx="2" ry="2"/><rect class="c" x="2" y="66" rx="2" ry="2"/><rect class="c" x="2" y="82" rx="2" ry="2"/><rect class="c" x="2" y="98" rx="2" ry="2"/><rect class="c" x="18" y="2" rx="2" ry="2"/><rect class="c" x="18" y="18" rx="2" ry="2"/><rect class="c" x="18" y="34" rx="2" ry="2"/><rect class="c" x="18" y="50" rx="2" ry="2"/><rect class="c" x="18" y="66" rx="2" ry="2"/><rect class="c" x="18" y="82" rx="2" ry="2"/><rect class="c" x="18" y="98" rx="2" ry="2"/><rect class="c" x="34" y="2" rx="2" ry="2"/><rect class="c" x="34" y="18" rx="2" ry="2"/><rect class="c" x="34" y="34" rx="2" ry="2"/><rect class="c" x="34" y="50" rx="2" ry="2"/><rect class="c" x="34" y="66" rx="2" ry="2"/><rect class="c" x="34" y="82" rx="2" ry="2"/><rect class="c" x="34" y="98" rx="2" ry="2"/><rect class="c" x="50" y="2" rx="2" ry="2"/><rect class="c" x="50" y="18" rx="2" ry="2"/><rect class="c" x="50" y="34" rx="2" ry="2"/><rect class="c" x="50" y="50" rx="2" ry="2"/><rect class="c" x="50" y="66" rx="2" ry="2"/><rect class="c" x="50" y="82" rx="2" ry="2"/><rect class="c" x="50" y="98" rx="2" ry="2"/><rect class="c" x="66" y="2" rx="2" ry="2"/><rect class="c" x="66" y="18" rx="2" ry="2"/><rect class="c" x="66" y="34" rx="2" ry="2"/><rect class="c" x="66" y="50" rx="2" ry="2"/><rect class="c" x="66" y="66" rx="2" ry="2"/><rect class="c" x="66" y="82" rx="2" ry="2"/><rect class="c" x="66" y="98" rx="2" ry="2"/><rect class="c" x="82" y="2" rx="2" ry="2"/><rect class="c" x="82" y="18" rx="2" ry="2"/><rect class="c" x="82" y="34" rx="2" ry="2"/><rect class="c c0" x="82" y="50" rx="2" ry="2"/><rect class="c c1" x="82" y="66" rx="2" ry="2"/><rect class="c" x="82" y="82" rx="2" ry="2"/><rect class="c" x="82" y="98" rx="2" ry="2"/><rect class="c" x="98" y="2" rx="2" ry="2"/><rect class="c" x="98" y="18" rx="2" ry="2"/><rect class="c" x="98" y="34" rx="2" ry="2"/><rect class="c" x="98" y="50" rx="2" ry="2"/><rect class="c" x="98" y="66" rx="2" ry="2"/><rect class="c" x="98" y="82" rx="2" ry="2"/><rect class="c" x="98" y="98" rx="2" ry="2"/><rect class="c" x="114" y="2" rx="2" ry="2"/><rect class="c" x="114" y="18" rx="2" ry="2"/><rect class="c" x="114" y="34" rx="2" ry="2"/><rect class="c" x="114" y="50" rx="2" ry="2"/><rect class="c" x="114" y="66" rx="2" ry="2"/><rect class="c" x="114" y="82" rx="2" ry="2"/><rect class="c" x="114" y="98" rx="2" ry="2"/><rect class="c" x="130" y="2" rx="2" ry="2"/><rect class="c" x="130" y="18" rx="2" ry="2"/><rect class="c" x="130" y="34" rx="2" ry="2"/><rect class="c" x="130" y="50" rx="2" ry="2"/><rect class="c" x="130" y="66" rx="2" ry="2"/><rect class="c" x="130" y="82" rx="2" ry="2"/><rect class="c" x="130" y="98" rx="2" ry="2"/><rect class="c" x="146" y="2" rx="2" ry="2"/><rect class="c" x="146" y="18" rx="2" ry="2"/><rect class="c" x="146" y="34" rx="2" ry="2"/><rect class="c" x="146" y="50" rx="2" ry="2"/><rect class="c" x="146" y="66" rx="2" ry="2"/><rect class="c" x="146" y="82" rx="2" ry="2"/><rect class="c" x="146" y="98" rx="2" ry="2"/><rect class="c" x="162" y="2" rx="2" ry="2"/><rect class="c" x="162" y="18" rx="2" ry="2"/><rect class="c" x="162" y="34" rx="2" ry="2"/><rect class="c" x="162" y="50" rx="2" ry="2"/><rect class="c" x="162" y="66" rx="2" ry="2"/><rect class="c" x="162" y="82" rx="2" ry="2"/><rect class="c" x="162" y="98" rx="2" ry="2"/><rect class="c" x="178" y="2" rx="2" ry="2"/><rect class="c" x="178" y="18" rx="2" ry="2"/><rect class="c" x="178" y="34" rx="2" ry="2"/><rect class="c" x="178" y="50" rx="2" ry="2"/><rect class="c" x="178" y="66" rx="2" ry="2"/><rect class="c c2" x="178" y="82" rx="2" ry="2"/><rect class="c" x="178" y="98" rx="2" ry="2"/><rect class="c" x="194" y="2" rx="2" ry="2"/><rect class="c" x="194" y="18" rx="2" ry="2"/><rect class="c" x="194" y="34" rx="2" ry="2"/><rect class="c" x="194" y="50" rx="2" ry="2"/><rect class="c c3" x="194" y="66" rx="2" ry="2"/><rect class="c" x="194" y="82" rx="2" ry="2"/><rect class="c" x="194" y="98" rx="2" ry="2"/><rect class="c" x="210" y="2" rx="2" ry="2"/><rect class="c" x="210" y="18" rx="2" ry="2"/><rect class="c" x="210" y="34" rx="2" ry="2"/><rect class="c" x="210" y="50" rx="2" ry="2"/><rect class="c" x="210" y="66" rx="2" ry="2"/><rect class="c" x="210" y="82" rx="2" ry="2"/><rect class="c" x="210" y="98" rx="2" ry="2"/><rect class="c" x="226" y="2" rx="2" ry="2"/><rect class="c" x="226" y="18" rx="2" ry="2"/><rect class="c" x="226" y="34" rx="2" ry="2"/><rect class="c" x="226" y="50" rx="2" ry="2"/><rect class="c" x="226" y="66" rx="2" ry="2"/><rect class="c" x="226" y="82" rx="2" ry="2"/><rect class="c" x="226" y="98" rx="2" ry="2"/><rect class="c" x="242" y="2" rx="2" ry="2"/><rect class="c" x="242" y="18" rx="2" ry="2"/><rect class="c" x="242" y="34" rx="2" ry="2"/><rect class="c" x="242" y="50" rx="2" ry="2"/><rect class="c" x="242" y="66" rx="2" ry="2"/><rect class="c" x="242" y="82" rx="2" ry="2"/><rect class="c" x="242" y="98" rx="2" ry="2"/><rect class="c" x="258" y="2" rx="2" ry="2"/><rect class="c" x="258" y="18" rx="2" ry="2"/><rect class="c" x="258" y="34" rx="2" ry="2"/><rect class="c" x="258" y="50" rx="2" ry="2"/><rect class="c" x="258" y="66" rx="2" ry="2"/><rect class="c" x="258" y="82" rx="2" ry="2"/><rect class="c" x="258" y="98" rx="2" ry="2"/><rect class="c" x="274" y="2" rx="2" ry="2"/><rect class="c" x="274" y="18" rx="2" ry="2"/><rect class="c" x="274" y="34" rx="2" ry="2"/><rect class="c" x="274" y="50" rx="2" ry="2"/><rect class="c" x="274" y="66" rx="2" ry="2"/><rect class="c" x="274" y="82" rx="2" ry="2"/><rect class="c" x="274" y="98" rx="2" ry="2"/><rect class="c" x="290" y="2" rx="2" ry="2"/><rect class="c" x="290" y="18" rx="2" ry="2"/><rect class="c" x="290" y="34" rx="2" ry="2"/><rect class="c" x="290" y="50" rx="2" ry="2"/><rect class="c" x="290" y="66" rx="2" ry="2"/><rect class="c" x="290" y="82" rx="2" ry="2"/><rect class="c" x="290" y="98" rx="2" ry="2"/><rect class="c" x="306" y="2" rx="2" ry="2"/><rect class="c" x="306" y="18" rx="2" ry="2"/><rect class="c" x="306" y="34" rx="2" ry="2"/><rect class="c" x="306" y="50" rx="2" ry="2"/><rect class="c" x="306" y="66" rx="2" ry="2"/><rect class="c" x="306" y="82" rx="2" ry="2"/><rect class="c" x="306" y="98" rx="2" ry="2"/><rect class="c" x="322" y="2" rx="2" ry="2"/><rect class="c" x="322" y="18" rx="2" ry="2"/><rect class="c" x="322" y="34" rx="2" ry="2"/><rect class="c" x="322" y="50" rx="2" ry="2"/><rect class="c" x="322" y="66" rx="2" ry="2"/><rect class="c" x="322" y="82" rx="2" ry="2"/><rect class="c" x="322" y="98" rx="2" ry="2"/><rect class="c" x="338" y="2" rx="2" ry="2"/><rect class="c" x="338" y="18" rx="2" ry="2"/><rect class="c" x="338" y="34" rx="2" ry="2"/><rect class="c" x="338" y="50" rx="2" ry="2"/><rect class="c" x="338" y="66" rx="2" ry="2"/><rect class="c" x="338" y="82" rx="2" ry="2"/><rect class="c" x="338" y="98" rx="2" ry="2"/><rect class="c c4" x="354" y="2" rx="2" ry="2"/><rect class="c c5" x="354" y="18" rx="2" ry="2"/><rect class="c c6" x="354" y="34" rx="2" ry="2"/><rect class="c c7" x="354" y="50" rx="2" ry="2"/><rect class="c c8" x="354" y="66" rx="2" ry="2"/><rect class="c c9" x="354" y="82" rx="2" ry="2"/><rect class="c" x="354" y="98" rx="2" ry="2"/><rect class="c ca" x="370" y="2" rx="2" ry="2"/><rect class="c cb" x="370" y="18" rx="2" ry="2"/><rect class="c cc" x="370" y="34" rx="2" ry="2"/><rect class="c cd" x="370" y="50" rx="2" ry="2"/><rect class="c ce" x="370" y="66" rx="2" ry="2"/><rect class="c cf" x="370" y="82" rx="2" ry="2"/><rect class="c cg" x="370" y="98" rx="2" ry="2"/><rect class="c" x="386" y="2" rx="2" ry="2"/><rect class="c ch" x="386" y="18" rx="2" ry="2"/><rect class="c ci" x="386" y="34" rx="2" ry="2"/><rect class="c cj" x="386" y="50" rx="2" ry="2"/><rect class="c ck" x="386" y="66" rx="2" ry="2"/><rect class="c cl" x="386" y="82" rx="2" ry="2"/><rect class="c" x="386" y="98" rx="2" ry="2"/><rect class="c" x="402" y="2" rx="2" ry="2"/><rect class="c" x="402" y="18" rx="2" ry="2"/><rect class="c" x="402" y="34" rx="2" ry="2"/><rect class="c" x="402" y="50" rx="2" ry="2"/><rect class="c" x="402" y="66" rx="2" ry="2"/><rect class="c" x="402" y="82" rx="2" ry="2"/><rect class="c" x="402" y="98" rx="2" ry="2"/><rect class="c" x="418" y="2" rx="2" ry="2"/><rect class="c" x="418" y="18" rx="2" ry="2"/><rect class="c" x="418" y="34" rx="2" ry="2"/><rect class="c" x="418" y="50" rx="2" ry="2"/><rect class="c" x="418" y="66" rx="2" ry="2"/><rect class="c" x="418" y="82" rx="2" ry="2"/><rect class="c" x="418" y="98" rx="2" ry="2"/><rect class="c" x="434" y="2" rx="2" ry="2"/><rect class="c" x="434" y="18" rx="2" ry="2"/><rect class="c" x="434" y="34" rx="2" ry="2"/><rect class="c" x="434" y="50" rx="2" ry="2"/><rect class="c" x="434" y="66" rx="2" ry="2"/><rect class="c" x="434" y="82" rx="2" ry="2"/><rect class="c" x="434" y="98" rx="2" ry="2"/><rect class="c" x="450" y="2" rx="2" ry="2"/><rect class="c" x="450" y="18" rx="2" ry="2"/><rect class="c" x="450" y="34" rx="2" ry="2"/><rect class="c" x="450" y="50" rx="2" ry="2"/><rect class="c" x="450" y="66" rx="2" ry="2"/><rect class="c" x="450" y="82" rx="2" ry="2"/><rect class="c" x="450" y="98" rx="2" ry="2"/><rect class="c" x="466" y="2" rx="2" ry="2"/><rect class="c" x="466" y="18" rx="2" ry="2"/><rect class="c" x="466" y="34" rx="2" ry="2"/><rect class="c" x="466" y="50" rx="2" ry="2"/><rect class="c" x="466" y="66" rx="2" ry="2"/><rect class="c" x="466" y="82" rx="2" ry="2"/><rect class="c" x="466" y="98" rx="2" ry="2"/><rect class="c" x="482" y="2" rx="2" ry="2"/><rect class="c" x="482" y="18" rx="2" ry="2"/><rect class="c" x="482" y="34" rx="2" ry="2"/><rect class="c" x="482" y="50" rx="2" ry="2"/><rect class="c" x="482" y="66" rx="2" ry="2"/><rect class="c" x="482" y="82" rx="2" ry="2"/><rect class="c" x="482" y="98" rx="2" ry="2"/><rect class="c" x="498" y="2" rx="2" ry="2"/><rect class="c cm" x="498" y="18" rx="2" ry="2"/><rect class="c" x="498" y="34" rx="2" ry="2"/><rect class="c" x="498" y="50" rx="2" ry="2"/><rect class="c cn" x="498" y="66" rx="2" ry="2"/><rect class="c" x="498" y="82" rx="2" ry="2"/><rect class="c" x="498" y="98" rx="2" ry="2"/><rect class="c" x="514" y="2" rx="2" ry="2"/><rect class="c" x="514" y="18" rx="2" ry="2"/><rect class="c" x="514" y="34" rx="2" ry="2"/><rect class="c" x="514" y="50" rx="2" ry="2"/><rect class="c" x="514" y="66" rx="2" ry="2"/><rect class="c" x="514" y="82" rx="2" ry="2"/><rect class="c co" x="514" y="98" rx="2" ry="2"/><rect class="c" x="530" y="2" rx="2" ry="2"/><rect class="c cp" x="530" y="18" rx="2" ry="2"/><rect class="c cq" x="530" y="34" rx="2" ry="2"/><rect class="c cr" x="530" y="50" rx="2" ry="2"/><rect class="c cs" x="530" y="66" rx="2" ry="2"/><rect class="c" x="530" y="82" rx="2" ry="2"/><rect class="c" x="530" y="98" rx="2" ry="2"/><rect class="c" x="546" y="2" rx="2" ry="2"/><rect class="c" x="546" y="18" rx="2" ry="2"/><rect class="c" x="546" y="34" rx="2" ry="2"/><rect class="c" x="546" y="50" rx="2" ry="2"/><rect class="c" x="546" y="66" rx="2" ry="2"/><rect class="c" x="546" y="82" rx="2" ry="2"/><rect class="c" x="546" y="98" rx="2" ry="2"/><rect class="c" x="562" y="2" rx="2" ry="2"/><rect class="c" x="562" y="18" rx="2" ry="2"/><rect class="c" x="562" y="34" rx="2" ry="2"/><rect class="c" x="562" y="50" rx="2" ry="2"/><rect class="c" x="562" y="66" rx="2" ry="2"/><rect class="c" x="562" y="82" rx="2" ry="2"/><rect class="c" x="562" y="98" rx="2" ry="2"/><rect class="c" x="578" y="2" rx="2" ry="2"/><rect class="c" x="578" y="18" rx="2" ry="2"/><rect class="c" x="578" y="34" rx="2" ry="2"/><rect class="c" x="578" y="50" rx="2" ry="2"/><rect class="c" x="578" y="66" rx="2" ry="2"/><rect class="c" x="578" y="82" rx="2" ry="2"/><rect class="c" x="578" y="98" rx="2" ry="2"/><rect class="c" x="594" y="2" rx="2" ry="2"/><rect class="c" x="594" y="18" rx="2" ry="2"/><rect class="c" x="594" y="34" rx="2" ry="2"/><rect class="c" x="594" y="50" rx="2" ry="2"/><rect class="c" x="594" y="66" rx="2" ry="2"/><rect class="c" x="594" y="82" rx="2" ry="2"/><rect class="c" x="594" y="98" rx="2" ry="2"/><rect class="c" x="610" y="2" rx="2" ry="2"/><rect class="c" x="610" y="18" rx="2" ry="2"/><rect class="c" x="610" y="34" rx="2" ry="2"/><rect class="c" x="610" y="50" rx="2" ry="2"/><rect class="c" x="610" y="66" rx="2" ry="2"/><rect class="c" x="610" y="82" rx="2" ry="2"/><rect class="c" x="610" y="98" rx="2" ry="2"/><rect class="c ct" x="626" y="2" rx="2" ry="2"/><rect class="c" x="626" y="18" rx="2" ry="2"/><rect class="c" x="626" y="34" rx="2" ry="2"/><rect class="c" x="626" y="50" rx="2" ry="2"/><rect class="c" x="626" y="66" rx="2" ry="2"/><rect class="c" x="626" y="82" rx="2" ry="2"/><rect class="c" x="626" y="98" rx="2" ry="2"/><rect class="c" x="642" y="2" rx="2" ry="2"/><rect class="c" x="642" y="18" rx="2" ry="2"/><rect class="c" x="642" y="34" rx="2" ry="2"/><rect class="c" x="642" y="50" rx="2" ry="2"/><rect class="c" x="642" y="66" rx="2" ry="2"/><rect class="c" x="642" y="82" rx="2" ry="2"/><rect class="c" x="642" y="98" rx="2" ry="2"/><rect class="c" x="658" y="2" rx="2" ry="2"/><rect class="c" x="658" y="18" rx="2" ry="2"/><rect class="c" x="658" y="34" rx="2" ry="2"/><rect class="c" x="658" y="50" rx="2" ry="2"/><rect class="c" x="658" y="66" rx="2" ry="2"/><rect class="c" x="658" y="82" rx="2" ry="2"/><rect class="c" x="658" y="98" rx="2" ry="2"/><rect class="c" x="674" y="2" rx="2" ry="2"/><rect class="c" x="674" y="18" rx="2" ry="2"/><rect class="c" x="674" y="34" rx="2" ry="2"/><rect class="c" x="674" y="50" rx="2" ry="2"/><rect class="c" x="674" y="66" rx="2" ry="2"/><rect class="c" x="674" y="82" rx="2" ry="2"/><rect class="c" x="674" y="98" rx="2" ry="2"/><rect class="c cu" x="690" y="2" rx="2" ry="2"/><rect class="c" x="690" y="18" rx="2" ry="2"/><rect class="c" x="690" y="34" rx="2" ry="2"/><rect class="c" x="690" y="50" rx="2" ry="2"/><rect class="c" x="690" y="66" rx="2" ry="2"/><rect class="c" x="690" y="82" rx="2" ry="2"/><rect class="c" x="690" y="98" rx="2" ry="2"/><rect class="c cv" x="706" y="2" rx="2" ry="2"/><rect class="c" x="706" y="18" rx="2" ry="2"/><rect class="c" x="706" y="34" rx="2" ry="2"/><rect class="c" x="706" y="50" rx="2" ry="2"/><rect class="c" x="706" y="66" rx="2" ry="2"/><rect class="c" x="706" y="82" rx="2" ry="2"/><rect class="c" x="706" y="98" rx="2" ry="2"/><rect class="c" x="722" y="2" rx="2" ry="2"/><rect class="c" x="722" y="18" rx="2" ry="2"/><rect class="c" x="722" y="34" rx="2" ry="2"/><rect class="c" x="722" y="50" rx="2" ry="2"/><rect class="c" x="722" y="66" rx="2" ry="2"/><rect class="c" x="722" y="82" rx="2" ry="2"/><rect class="c" x="722" y="98" rx="2" ry="2"/><rect class="c" x="738" y="2" rx="2" ry="2"/><rect class="c" x="738" y="18" rx="2" ry="2"/><rect class="c" x="738" y="34" rx="2" ry="2"/><rect class="c" x="738" y="50" rx="2" ry="2"/><rect class="c" x="738" y="66" rx="2" ry="2"/><rect class="c" x="738" y="82" rx="2" ry="2"/><rect class="c" x="738" y="98" rx="2" ry="2"/><rect class="c cw" x="754" y="2" rx="2" ry="2"/><rect class="c" x="754" y="18" rx="2" ry="2"/><rect class="c" x="754" y="34" rx="2" ry="2"/><rect class="c" x="754" y="50" rx="2" ry="2"/><rect class="c" x="754" y="66" rx="2" ry="2"/><rect class="c cx" x="754" y="82" rx="2" ry="2"/><rect class="c cy" x="754" y="98" rx="2" ry="2"/><rect class="c cz" x="770" y="2" rx="2" ry="2"/><rect class="c c10" x="770" y="18" rx="2" ry="2"/><rect class="c c11" x="770" y="34" rx="2" ry="2"/><rect class="c c12" x="770" y="50" rx="2" ry="2"/><rect class="c" x="770" y="66" rx="2" ry="2"/><rect class="c c13" x="770" y="82" rx="2" ry="2"/><rect class="c c14" x="770" y="98" rx="2" ry="2"/><rect class="c c15" x="786" y="2" rx="2" ry="2"/><rect class="c c16" x="786" y="18" rx="2" ry="2"/><rect class="c" x="786" y="34" rx="2" ry="2"/><rect class="c" x="786" y="50" rx="2" ry="2"/><rect class="c" x="786" y="66" rx="2" ry="2"/><rect class="c" x="786" y="82" rx="2" ry="2"/><rect class="c" x="786" y="98" rx="2" ry="2"/><rect class="c" x="802" y="2" rx="2" ry="2"/><rect class="c" x="802" y="18" rx="2" ry="2"/><rect class="c c17" x="802" y="34" rx="2" ry="2"/><rect class="c" x="802" y="50" rx="2" ry="2"/><rect class="c" x="802" y="66" rx="2" ry="2"/><rect class="c c18" x="802" y="82" rx="2" ry="2"/><rect class="c" x="802" y="98" rx="2" ry="2"/><rect class="c" x="818" y="2" rx="2" ry="2"/><rect class="c c19" x="818" y="18" rx="2" ry="2"/><rect class="c c1a" x="818" y="34" rx="2" ry="2"/><rect class="c c1b" x="818" y="50" rx="2" ry="2"/><rect class="c c1c" x="818" y="66" rx="2" ry="2"/><rect class="c" x="818" y="82" rx="2" ry="2"/><rect class="c" x="818" y="98" rx="2" ry="2"/><rect class="c" x="834" y="2" rx="2" ry="2"/><rect class="u u0" height="12" width="467.9" x="0.0" y="144"/><rect class="u u1" height="12" width="191.0" x="467.3" y="144"/><rect class="u u2" height="12" width="121.7" x="657.6" y="144"/><rect class="u u3" height="12" width="69.8" x="778.8" y="144"/><rect class="s s0" x="0.8" y="0.8" width="14.4" height="14.4" rx="4.5" ry="4.5"/><rect class="s s1" x="1.8" y="1.8" width="12.3" height="12.3" rx="4.1" ry="4.1"/><rect class="s s2" x="2.6" y="2.6" width="10.8" height="10.8" rx="3.6" ry="3.6"/><rect class="s s3" x="3.0" y="3.0" width="9.9" height="9.9" rx="3.3" ry="3.3"/></svg>